<?xml version="1.0" encoding="UTF-8" standalone="no"?>
<!-- Created with Inkscape (http://www.inkscape.org/) -->
<svg
   xmlns:dc="http://purl.org/dc/elements/1.1/"
   xmlns:cc="http://web.resource.org/cc/"
   xmlns:rdf="http://www.w3.org/1999/02/22-rdf-syntax-ns#"
   xmlns:svg="http://www.w3.org/2000/svg"
   xmlns="http://www.w3.org/2000/svg"
   xmlns:sodipodi="http://inkscape.sourceforge.net/DTD/sodipodi-0.dtd"
   xmlns:inkscape="http://www.inkscape.org/namespaces/inkscape"
   width="44"
   height="44"
   id="svg1439"
   sodipodi:version="0.32"
   inkscape:version="0.43"
   version="1.0"
   sodipodi:docbase="/home/danny/work/kde/EDU/kanagram/kde4"
   sodipodi:docname="appicon.svg">
  <defs
     id="defs1441" />
  <sodipodi:namedview
     id="base"
     pagecolor="#ffffff"
     bordercolor="#666666"
     borderopacity="1.0"
     inkscape:pageopacity="0.0"
     inkscape:pageshadow="2"
     inkscape:zoom="1.7386371"
     inkscape:cx="208.86266"
     inkscape:cy="-44.784295"
     inkscape:document-units="px"
     inkscape:current-layer="layer1"
     inkscape:window-width="1024"
     inkscape:window-height="712"
     inkscape:window-x="0"
     inkscape:window-y="0" />
  <metadata
     id="metadata1444">
    <rdf:RDF>
      <cc:Work
         rdf:about="">
        <dc:format>image/svg+xml</dc:format>
        <dc:type
           rdf:resource="http://purl.org/dc/dcmitype/StillImage" />
      </cc:Work>
    </rdf:RDF>
  </metadata>
  <g
     inkscape:label="Layer 1"
     inkscape:groupmode="layer"
     id="layer1">
    <g
       id="g1513"
       transform="translate(-44.00074,-1.577286e-5)">
      <path
         inkscape:export-ydpi="58.669998"
         inkscape:export-xdpi="58.669998"
         inkscape:export-filename="/home/danny/work/kde/kanagram/graphics_sources/kana.png"
         id="path4129"
         d="M 44.000732,1.054572e-05 L 88.000742,1.054572e-05 L 88.000742,44.000021 L 44.000732,44.000021 L 44.000732,1.054572e-05 z "
         style="color:#000000;fill:#b3b3b3;fill-opacity:1;fill-rule:evenodd;stroke:none;stroke-width:3.125;stroke-linecap:round;stroke-linejoin:round;marker:none;marker-start:none;marker-mid:none;marker-end:none;stroke-miterlimit:4;stroke-dashoffset:0;stroke-opacity:1;visibility:visible;display:inline;overflow:visible" />
      <path
         id="path4133"
         d="M 60.241429,4.9020549 C 59.733376,4.9020549 59.33014,5.078231 58.998804,5.4316847 C 58.667467,5.7851319 58.489512,6.2255948 58.489512,6.755759 L 58.489512,20.770577 C 58.489577,21.293382 58.654365,21.733838 58.978401,22.094651 C 59.309737,22.448105 59.725945,22.624281 60.241429,22.624281 C 60.76428,22.624281 61.20076,22.448099 61.52473,22.094651 C 61.856132,21.733845 62.013619,21.293382 62.013619,20.770577 L 62.013619,16.737243 L 62.05436,16.737243 L 65.598805,21.422429 C 65.981703,21.901051 66.285466,22.217845 66.535842,22.379837 C 66.786154,22.534469 67.115991,22.624281 67.51362,22.624281 C 68.073235,22.624281 68.515386,22.453744 68.817324,22.115022 C 69.119262,21.768934 69.265473,21.386642 69.265473,20.974281 C 69.265473,20.746015 69.183013,20.506036 69.021028,20.240947 C 68.866409,19.975865 68.673265,19.692935 68.430255,19.405762 L 65.456245,15.596502 L 67.370995,13.702057 C 67.864382,13.223435 68.186853,12.871069 68.348773,12.642797 C 68.518189,12.407172 68.593283,12.137241 68.593218,11.827982 C 68.593283,11.555534 68.516429,11.291261 68.369176,11.033538 C 68.229289,10.775815 68.043511,10.569686 67.778403,10.422427 C 67.520726,10.275154 67.213573,10.198346 66.882106,10.198352 C 66.506639,10.198352 66.202811,10.299448 65.945134,10.483538 C 65.694823,10.667627 65.335001,10.971416 64.885875,11.420575 L 62.013619,14.333539 L 62.013619,6.755759 C 62.013619,6.2255948 61.856132,5.7851253 61.52473,5.4316847 C 61.193394,5.0782375 60.756848,4.9020484 60.241429,4.9020549 z M 80.021031,16.289095 C 79.495247,16.289095 79.047359,16.48613 78.696924,16.859465 C 78.354049,17.225193 78.187697,17.683315 78.187697,18.22428 L 78.187697,22.603911 C 77.799128,22.27629 77.381877,22.012701 76.924734,21.829837 C 76.475216,21.646979 75.889071,21.565028 75.172881,21.565022 C 74.136632,21.565022 73.181995,21.846648 72.321029,22.440948 C 71.460063,23.027628 70.78683,23.836426 70.283991,24.865022 C 69.788714,25.886005 69.530255,27.001924 69.53032,28.205764 C 69.53032,29.424844 69.788714,30.558643 70.283991,31.587246 C 70.78683,32.608229 71.467689,33.417021 72.321029,34.011321 C 73.18206,34.598007 74.129006,34.887247 75.172881,34.887247 C 75.85863,34.887247 76.449859,34.761896 76.945137,34.540951 C 77.44791,34.327606 77.898535,33.984569 78.309919,33.481691 C 78.45463,33.801698 78.679845,34.067928 78.961771,34.296506 C 79.251324,34.525078 79.601955,34.642796 80.021031,34.642802 C 80.554376,34.642802 80.98186,34.458537 81.324735,34.092802 C 81.667544,33.727081 81.854364,33.276573 81.854364,32.727987 L 81.854364,18.22428 C 81.854364,17.675688 81.67517,17.204816 81.324735,16.839095 C 80.98186,16.473373 80.546749,16.289088 80.021031,16.289095 z M 75.682108,25.089097 C 76.466873,25.089097 77.073486,25.39108 77.515507,25.985393 C 77.957332,26.572066 78.187697,27.314311 78.187697,28.205764 C 78.187697,29.104837 77.957332,29.864949 77.515507,30.466876 C 77.073551,31.061176 76.466938,31.342795 75.682108,31.342802 C 75.163951,31.342802 74.718606,31.217314 74.337729,30.935394 C 73.964348,30.653481 73.680271,30.254307 73.482108,29.774283 C 73.284075,29.286645 73.176585,28.769596 73.176585,28.205764 C 73.176585,27.321924 73.406819,26.57968 73.84884,25.985393 C 74.298292,25.391087 74.90497,25.08909 75.682108,25.089097 z M 56.7784,25.27243 C 55.837321,25.27243 54.973096,25.471108 54.150654,25.8428 C 53.328213,26.206586 52.604853,26.709633 52.011798,27.350208 C 51.418677,27.990783 50.971311,28.724384 50.64695,29.570579 C 50.322719,30.416768 50.158126,31.28435 50.158061,32.177987 C 50.158061,33.126986 50.318221,34.033145 50.626612,34.887247 C 50.935068,35.733442 51.365486,36.48742 51.950654,37.127988 C 52.543774,37.760656 53.262441,38.246697 54.069173,38.594655 C 54.883727,38.942627 55.774092,39.124291 56.7784,39.124285 C 57.751094,39.124285 58.712966,38.977853 59.630253,38.716877 C 60.547669,38.463809 61.293649,38.111744 61.871059,37.637248 C 62.456161,37.154838 62.746953,36.613208 62.746953,36.027988 C 62.746953,35.537671 62.586858,35.134566 62.278467,34.826136 C 61.969945,34.517712 61.600932,34.377994 61.158063,34.377988 C 60.920789,34.377988 60.534697,34.496136 59.996985,34.765025 C 59.467029,35.026 59.016273,35.233784 58.652475,35.376136 C 58.288676,35.518487 57.820907,35.600204 57.267289,35.60021 C 56.191733,35.60021 55.419549,35.358386 54.945132,34.907617 C 54.470518,34.448935 54.232136,33.975358 54.232136,33.461321 L 61.076582,33.461321 C 61.725044,33.461321 62.209892,33.331902 62.502508,33.094654 C 62.795059,32.857406 62.930253,32.419061 62.930319,31.77058 C 62.930253,30.639695 62.670295,29.581348 62.156179,28.592801 C 61.650081,27.604267 60.930111,26.798031 59.996985,26.189097 C 59.063793,25.58015 57.988433,25.272436 56.7784,25.27243 z M 56.696919,28.51132 C 57.163579,28.51132 57.57568,28.645288 57.939544,28.898357 C 58.31123,29.143512 58.601956,29.463708 58.815438,29.835394 C 59.028984,30.199173 59.141429,30.512668 59.141364,30.813172 L 54.232136,30.813172 C 54.232136,30.504755 54.332065,30.191273 54.537724,29.835394 C 54.751271,29.471608 55.041932,29.151412 55.413618,28.898357 C 55.793191,28.645295 56.230388,28.511326 56.696919,28.51132 z "
         style="font-size:12px;font-weight:900;fill:#666666;fill-opacity:1;stroke-width:1;font-family:VAG Rounded Black SSi" />
    </g>
  </g>
</svg>
