<?xml version="1.0" encoding="UTF-8" standalone="no"?>
<!-- Created with Inkscape (http://www.inkscape.org/) -->
<svg
   xmlns:dc="http://purl.org/dc/elements/1.1/"
   xmlns:cc="http://web.resource.org/cc/"
   xmlns:rdf="http://www.w3.org/1999/02/22-rdf-syntax-ns#"
   xmlns:svg="http://www.w3.org/2000/svg"
   xmlns="http://www.w3.org/2000/svg"
   xmlns:sodipodi="http://inkscape.sourceforge.net/DTD/sodipodi-0.dtd"
   xmlns:inkscape="http://www.inkscape.org/namespaces/inkscape"
   width="44"
   height="44"
   id="svg1439"
   sodipodi:version="0.32"
   inkscape:version="0.43"
   version="1.0"
   sodipodi:docbase="/home/danny/work/kde/EDU/kanagram/kde4"
   sodipodi:docname="appiconover.svg">
  <defs
     id="defs1441" />
  <sodipodi:namedview
     id="base"
     pagecolor="#ffffff"
     bordercolor="#666666"
     borderopacity="1.0"
     inkscape:pageopacity="0.0"
     inkscape:pageshadow="2"
     inkscape:zoom="1.7386371"
     inkscape:cx="208.86266"
     inkscape:cy="-44.784295"
     inkscape:document-units="px"
     inkscape:current-layer="layer1"
     inkscape:window-width="1024"
     inkscape:window-height="712"
     inkscape:window-x="0"
     inkscape:window-y="0" />
  <metadata
     id="metadata1444">
    <rdf:RDF>
      <cc:Work
         rdf:about="">
        <dc:format>image/svg+xml</dc:format>
        <dc:type
           rdf:resource="http://purl.org/dc/dcmitype/StillImage" />
      </cc:Work>
    </rdf:RDF>
  </metadata>
  <g
     inkscape:label="Layer 1"
     inkscape:groupmode="layer"
     id="layer1">
    <g
       id="g1501"
       transform="translate(-193.9267,-1.577286e-5)">
      <path
         id="path4155"
         d="M 193.92669,1.054572e-05 L 237.9267,1.054572e-05 L 237.9267,44.000021 L 193.92669,44.000021 L 193.92669,1.054572e-05 z "
         style="color:#000000;fill:#b3b3b3;fill-opacity:1;fill-rule:evenodd;stroke:none;stroke-width:3.125;stroke-linecap:round;stroke-linejoin:round;marker:none;marker-start:none;marker-mid:none;marker-end:none;stroke-miterlimit:4;stroke-dashoffset:0;stroke-opacity:1;visibility:visible;display:inline;overflow:visible" />
      <path
         id="path4159"
         d="M 210.16739,4.9020549 C 209.65934,4.9020549 209.2561,5.078231 208.92476,5.4316847 C 208.59343,5.7851319 208.41547,6.2255948 208.41547,6.755759 L 208.41547,20.770577 C 208.41554,21.293382 208.58032,21.733838 208.90436,22.094651 C 209.2357,22.448105 209.6519,22.624281 210.16739,22.624281 C 210.69024,22.624281 211.12672,22.448099 211.45069,22.094651 C 211.78209,21.733845 211.93958,21.293382 211.93958,20.770577 L 211.93958,16.737243 L 211.98032,16.737243 L 215.52477,21.422429 C 215.90766,21.901051 216.21143,22.217845 216.4618,22.379837 C 216.71211,22.534469 217.04195,22.624281 217.43958,22.624281 C 217.9992,22.624281 218.44135,22.453744 218.74328,22.115022 C 219.04522,21.768934 219.19143,21.386642 219.19143,20.974281 C 219.19143,20.746015 219.10897,20.506036 218.94699,20.240947 C 218.79237,19.975865 218.59923,19.692935 218.35621,19.405762 L 215.38221,15.596502 L 217.29696,13.702057 C 217.79034,13.223435 218.11281,12.871069 218.27473,12.642797 C 218.44415,12.407172 218.51924,12.137241 218.51918,11.827982 C 218.51924,11.555534 218.44239,11.291261 218.29514,11.033538 C 218.15525,10.775815 217.96947,10.569686 217.70436,10.422427 C 217.44669,10.275154 217.13953,10.198346 216.80807,10.198352 C 216.4326,10.198352 216.12877,10.299448 215.87109,10.483538 C 215.62072,10.667627 215.26096,10.971416 214.81183,11.420575 L 211.93958,14.333539 L 211.93958,6.755759 C 211.93958,6.2255948 211.78209,5.7851253 211.45069,5.4316847 C 211.11935,5.0782375 210.68281,4.9020484 210.16739,4.9020549 z M 229.94699,16.289095 C 229.42121,16.289095 228.97332,16.48613 228.62288,16.859465 C 228.28001,17.225193 228.11366,17.683315 228.11366,18.22428 L 228.11366,22.603911 C 227.72509,22.27629 227.30784,22.012701 226.85069,21.829837 C 226.40118,21.646979 225.81503,21.565028 225.09884,21.565022 C 224.06259,21.565022 223.10795,21.846648 222.24699,22.440948 C 221.38602,23.027628 220.71279,23.836426 220.20995,24.865022 C 219.71467,25.886005 219.45621,27.001924 219.45628,28.205764 C 219.45628,29.424844 219.71467,30.558643 220.20995,31.587246 C 220.71279,32.608229 221.39365,33.417021 222.24699,34.011321 C 223.10802,34.598007 224.05497,34.887247 225.09884,34.887247 C 225.78459,34.887247 226.37582,34.761896 226.8711,34.540951 C 227.37394,34.327606 227.8245,33.984569 228.23588,33.481691 C 228.38059,33.801698 228.60581,34.067928 228.88773,34.296506 C 229.17728,34.525078 229.52791,34.642796 229.94699,34.642802 C 230.48034,34.642802 230.90782,34.458537 231.25069,34.092802 C 231.5935,33.727081 231.78032,33.276573 231.78032,32.727987 L 231.78032,18.22428 C 231.78032,17.675688 231.60113,17.204816 231.25069,16.839095 C 230.90782,16.473373 230.47271,16.289088 229.94699,16.289095 z M 225.60807,25.089097 C 226.39283,25.089097 226.99945,25.39108 227.44147,25.985393 C 227.88329,26.572066 228.11366,27.314311 228.11366,28.205764 C 228.11366,29.104837 227.88329,29.864949 227.44147,30.466876 C 226.99951,31.061176 226.3929,31.342795 225.60807,31.342802 C 225.08991,31.342802 224.64457,31.217314 224.26369,30.935394 C 223.89031,30.653481 223.60623,30.254307 223.40807,29.774283 C 223.21003,29.286645 223.10254,28.769596 223.10254,28.205764 C 223.10254,27.321924 223.33278,26.57968 223.7748,25.985393 C 224.22425,25.391087 224.83093,25.08909 225.60807,25.089097 z M 206.70436,25.27243 C 205.76335,25.27243 204.89906,25.471108 204.07661,25.8428 C 203.25417,26.206586 202.53081,26.709633 201.93776,27.350208 C 201.34464,27.990783 200.89727,28.724384 200.57291,29.570579 C 200.24868,30.416768 200.08409,31.28435 200.08402,32.177987 C 200.08402,33.126986 200.24418,34.033145 200.55257,34.887247 C 200.86103,35.733442 201.29145,36.48742 201.87661,37.127988 C 202.46973,37.760656 203.1884,38.246697 203.99513,38.594655 C 204.80969,38.942627 205.70005,39.124291 206.70436,39.124285 C 207.67705,39.124285 208.63893,38.977853 209.55621,38.716877 C 210.47363,38.463809 211.21961,38.111744 211.79702,37.637248 C 212.38212,37.154838 212.67291,36.613208 212.67291,36.027988 C 212.67291,35.537671 212.51282,35.134566 212.20443,34.826136 C 211.89591,34.517712 211.52689,34.377994 211.08402,34.377988 C 210.84675,34.377988 210.46066,34.496136 209.92294,34.765025 C 209.39299,35.026 208.94223,35.233784 208.57843,35.376136 C 208.2147,35.518487 207.74687,35.600204 207.19325,35.60021 C 206.11769,35.60021 205.34551,35.358386 204.87109,34.907617 C 204.39648,34.448935 204.1581,33.975358 204.1581,33.461321 L 211.00254,33.461321 C 211.651,33.461321 212.13585,33.331902 212.42847,33.094654 C 212.72102,32.857406 212.85621,32.419061 212.85628,31.77058 C 212.85621,30.639695 212.59625,29.581348 212.08214,28.592801 C 211.57611,27.604267 210.85607,26.798031 209.92294,26.189097 C 208.98975,25.58015 207.91439,25.272436 206.70436,25.27243 z M 206.62288,28.51132 C 207.08954,28.51132 207.50164,28.645288 207.8655,28.898357 C 208.23719,29.143512 208.52792,29.463708 208.7414,29.835394 C 208.95494,30.199173 209.06739,30.512668 209.06732,30.813172 L 204.1581,30.813172 C 204.1581,30.504755 204.25802,30.191273 204.46368,29.835394 C 204.67723,29.471608 204.96789,29.151412 205.33958,28.898357 C 205.71915,28.645295 206.15635,28.511326 206.62288,28.51132 z "
         style="font-size:12px;font-weight:900;fill:#0f0f0f;fill-opacity:1;stroke-width:1;font-family:VAG Rounded Black SSi" />
    </g>
  </g>
</svg>
