<?xml version="1.0" encoding="UTF-8" standalone="no"?>
<!-- Created with Inkscape (http://www.inkscape.org/) -->
<svg
   xmlns:svg="http://www.w3.org/2000/svg"
   xmlns="http://www.w3.org/2000/svg"
   version="1.0"
   width="1000"
   height="725"
   id="svg1">
  <defs
     id="defs3" />
  <path
     d="M 844.75,106.15625 L 844.75,179.125 L 1000,179.125 L 1000,106.15625 L 844.75,106.15625 z M 297.75,253.8125 L 297.75,326.75 L 478.375,326.75 L 478.375,253.8125 L 297.75,253.8125 z M 161.75,475.25 L 161.75,548.21875 L 347.375,548.21875 L 347.375,475.25 L 161.75,475.25 z M 710.75,622.90625 L 710.75,695.84375 L 895.375,695.84375 L 895.375,622.90625 L 710.75,622.90625 z "
     style="opacity:1;color:#000000;fill:#bd6556;fill-opacity:1;fill-rule:evenodd;stroke:none;stroke-width:2;stroke-linecap:square;stroke-linejoin:round;marker:none;marker-start:none;marker-mid:none;marker-end:none;stroke-miterlimit:4;stroke-dashoffset:0;stroke-opacity:1;visibility:visible;display:inline;overflow:visible"
     id="path6123" />
  <path
     d="M 0,0 L 0,179.96875 L 165.375,179.96875 L 165.375,252.9375 L 0,252.9375 L 0,725 L 112.75,725 L 112.75,696.71875 L 294.375,696.71875 L 294.375,725 L 1000,725 L 1000,179.125 L 844.75,179.125 L 844.75,106.15625 L 1000,106.15625 L 1000,0 L 0,0 z M 528.75,32.34375 L 712.375,32.34375 L 712.375,105.3125 L 528.75,105.3125 L 528.75,32.34375 z M 297.75,253.8125 L 478.375,253.8125 L 478.375,326.75 L 297.75,326.75 L 297.75,253.8125 z M 477.75,401.4375 L 661.375,401.4375 L 661.375,474.40625 L 477.75,474.40625 L 477.75,401.4375 z M 161.75,475.25 L 347.375,475.25 L 347.375,548.21875 L 161.75,548.21875 L 161.75,475.25 z M 710.75,622.90625 L 895.375,622.90625 L 895.375,695.84375 L 710.75,695.84375 L 710.75,622.90625 z "
     style="opacity:1;color:#000000;fill:#bb4c3a;fill-opacity:1;fill-rule:evenodd;stroke:none;stroke-width:2;stroke-linecap:square;stroke-linejoin:round;marker:none;marker-start:none;marker-mid:none;marker-end:none;stroke-miterlimit:4;stroke-dashoffset:0;stroke-opacity:1;visibility:visible;display:inline;overflow:visible"
     id="path7033" />
  <path
     d="M 109.21875,0 L 109.21875,25.25 C 109.21885,27.1177 107.71145,28.6248 105.84375,28.625 L 0,28.625 L 0,35.375 L 156.4375,35.375 C 158.3054,35.374998 159.8125,36.8822 159.8125,38.75 L 159.8125,99.03125 C 159.8126,100.89895 158.3053,102.40615 156.4375,102.40625 L 0,102.40625 L 0,109.15625 L 105.84375,109.15625 C 107.71155,109.15625 109.21875,110.66345 109.21875,112.53125 L 109.21875,172.8125 C 109.21885,174.6803 107.71145,176.1875 105.84375,176.1875 L 0,176.1875 L 0,182.9375 L 156.4375,182.9375 C 158.3054,182.9375 159.8125,184.4448 159.8125,186.3125 L 159.8125,246.59375 C 159.8126,248.46145 158.3053,249.96865 156.4375,249.96875 L 0,249.96875 L 0,256.71875 L 105.84375,256.71875 C 107.71155,256.71874 109.21875,258.22595 109.21875,260.09375 L 109.21875,320.375 C 109.21885,322.24271 107.71145,323.7498 105.84375,323.75 L 0,323.75 L 0,330.5 L 156.4375,330.5 C 158.3054,330.50001 159.8125,332.0072 159.8125,333.875 L 159.8125,394.15625 C 159.8126,396.02394 158.3053,397.53115 156.4375,397.53125 L 0,397.53125 L 0,404.28125 L 105.84375,404.28125 C 107.71155,404.28124 109.21875,405.7572 109.21875,407.625 L 109.21875,467.9375 C 109.21885,469.8053 107.71145,471.3125 105.84375,471.3125 L 0,471.3125 L 0,478.0625 L 156.4375,478.0625 C 158.3054,478.0625 159.8125,479.53845 159.8125,481.40625 L 159.8125,541.71875 C 159.8126,543.58647 158.3053,545.09365 156.4375,545.09375 L 0,545.09375 L 0,551.8125 L 105.84375,551.8125 C 107.71155,551.81263 109.21875,553.3198 109.21875,555.1875 L 109.21875,615.5 C 109.21885,617.36771 107.71145,618.8749 105.84375,618.875 L 0,618.875 L 0,625.59375 L 156.4375,625.59375 C 158.3054,625.59377 159.8125,627.10095 159.8125,628.96875 L 159.8125,689.28125 C 159.8126,691.14897 158.3053,692.65615 156.4375,692.65625 L 0,692.65625 L 0,699.375 L 105.84375,699.375 C 107.71155,699.37501 109.21875,700.8822 109.21875,702.75 L 109.21875,725 L 115.96875,725 L 115.96875,702.75 C 115.96865,700.98301 117.30505,699.5256 119.03125,699.375 C 119.05717,699.374 119.09888,699.37452 119.125,699.375 C 119.13023,699.37495 119.15101,699.37526 119.15625,699.375 C 119.16221,699.37506 119.18375,699.37505 119.1875,699.375 C 119.2347,699.37451 119.29995,699.3749 119.34375,699.375 L 289,699.375 C 290.86749,699.37501 292.375,700.8822 292.375,702.75 L 292.375,725 L 299.125,725 L 299.125,702.75 C 299.12489,701.03781 300.352,699.5987 302,699.375 C 302.01589,699.37512 302.04653,699.37471 302.0625,699.375 C 302.0662,699.37489 302.09045,699.37536 302.09375,699.375 C 302.09745,699.37481 302.121,699.3749 302.125,699.375 C 302.13749,699.37551 302.1764,699.3752 302.1875,699.375 C 302.21351,699.37401 302.25515,699.3744 302.28125,699.375 L 472.15625,699.375 C 474.02385,699.37501 475.53125,700.8822 475.53125,702.75 L 475.53125,725 L 482.28125,725 L 482.28125,702.75 C 482.28115,701.03781 483.50815,699.5987 485.15625,699.375 C 485.17217,699.37512 485.20278,699.37471 485.21875,699.375 C 485.22245,699.37489 485.2467,699.37536 485.25,699.375 C 485.25369,699.37481 485.27725,699.3749 485.28125,699.375 C 485.29375,699.37551 485.33255,699.3752 485.34375,699.375 C 485.36965,699.37401 485.4114,699.3744 485.4375,699.375 C 485.44281,699.37491 485.46355,699.3752 485.46875,699.375 C 485.52635,699.37201 485.5666,699.3747 485.625,699.375 L 655.3125,699.375 C 657.18028,699.37501 658.65625,700.8822 658.65625,702.75 L 658.65625,725 L 665.40625,725 L 665.40625,702.75 L 838.4375,699.375 C 840.30528,699.37501 841.8125,700.8822 841.8125,702.75 L 841.8125,725 L 848.5625,725 L 848.5625,702.75 C 848.56248,701.03781 849.7895,699.5987 851.4375,699.375 C 851.45341,699.37512 851.48403,699.37471 851.5,699.375 C 851.5037,699.37489 851.52795,699.37536 851.53125,699.375 C 851.53498,699.37481 851.5586,699.3749 851.5625,699.375 C 851.57508,699.37551 851.6138,699.3752 851.625,699.375 C 851.65092,699.37401 851.69265,699.3744 851.71875,699.375 C 851.72398,699.37491 851.7446,699.3752 851.75,699.375 C 851.75592,699.37501 851.77745,699.375 851.78125,699.375 C 851.82838,699.37451 851.8938,699.3747 851.9375,699.375 L 1000,699.375 L 1000,692.65625 L 902.5,692.65625 C 900.63242,692.65637 899.1249,691.14885 899.125,689.28125 L 899.125,628.96875 C 899.12492,627.24277 900.3931,625.79985 902.0625,625.59375 C 902.07839,625.59385 902.10905,625.59348 902.125,625.59375 C 902.12872,625.59366 902.15291,625.59407 902.15625,625.59375 C 902.15998,625.59367 902.1836,625.59375 902.1875,625.59375 C 902.19998,625.59417 902.2387,625.59395 902.25,625.59375 C 902.25262,625.59357 902.27475,625.59365 902.28125,625.59375 C 902.31238,625.59367 902.3431,625.59495 902.375,625.59375 C 902.41822,625.59217 902.4562,625.59365 902.5,625.59375 L 1000,625.59375 L 1000,618.875 L 851.9375,618.875 C 850.06978,618.87491 848.5625,617.3676 848.5625,615.5 L 848.5625,555.1875 C 848.56248,553.46173 849.8312,552.0188 851.5,551.8125 C 851.51588,551.81263 851.54655,551.81225 851.5625,551.8125 C 851.56622,551.8124 851.59041,551.81284 851.59375,551.8125 C 851.59748,551.81243 851.621,551.8125 851.625,551.8125 C 851.63742,551.81303 851.6763,551.8128 851.6875,551.8125 C 851.69108,551.81233 851.71265,551.8124 851.71875,551.8125 C 851.74448,551.81243 851.7868,551.8121 851.8125,551.8125 C 851.81928,551.81263 851.83665,551.8128 851.84375,551.8125 C 851.87278,551.81193 851.9084,551.8125 851.9375,551.8125 L 1000,551.8125 L 1000,545.09375 L 902.5,545.09375 C 900.63242,545.09377 899.1249,543.58635 899.125,541.71875 L 899.125,481.40625 C 899.12492,479.73784 900.3499,478.338 901.9375,478.0625 C 901.94257,478.0626 901.96409,478.06199 901.96875,478.0625 C 901.97156,478.06234 901.99682,478.06299 902,478.0625 C 902.00282,478.0624 902.02875,478.0625 902.03125,478.0625 C 902.03378,478.0626 902.0597,478.0627 902.0625,478.0625 C 902.06618,478.0624 902.08975,478.0627 902.09375,478.0625 C 902.11058,478.0631 902.14275,478.0633 902.15625,478.0625 C 902.26498,478.06 902.3904,478.0626 902.5,478.0625 L 1000,478.0625 L 1000,471.3125 L 851.9375,471.3125 C 850.06978,471.3125 848.5625,469.8052 848.5625,467.9375 L 848.5625,407.625 C 848.56248,405.95651 849.7873,404.55655 851.375,404.28125 C 851.38006,404.28134 851.40161,404.28074 851.40625,404.28125 C 851.40905,404.2811 851.43434,404.28172 851.4375,404.28125 C 851.44038,404.28104 851.46625,404.28125 851.46875,404.28125 C 851.47128,404.28134 851.4971,404.28135 851.5,404.28125 C 851.50362,404.28104 851.52725,404.28125 851.53125,404.28125 C 851.54808,404.28184 851.58025,404.28185 851.59375,404.28125 C 851.70238,404.27874 851.8282,404.28125 851.9375,404.28125 L 1000,404.28125 L 1000,397.53125 L 902.5,397.53125 C 900.63242,397.53124 899.1249,396.02385 899.125,394.15625 L 899.125,333.875 C 899.12492,332.19231 900.36075,330.7601 901.96875,330.5 C 901.9738,330.50008 901.99539,330.49952 902,330.5 C 902.00282,330.49987 902.02804,330.50044 902.03125,330.5 C 902.03498,330.49981 902.0586,330.4999 902.0625,330.5 C 902.07518,330.50061 902.1138,330.5003 902.125,330.5 C 902.13572,330.49991 902.1769,330.4996 902.1875,330.5 C 902.28838,330.49581 902.3932,330.4998 902.5,330.5 L 1000,330.5 L 1000,323.75 L 851.9375,323.75 C 850.06978,323.75001 848.5625,322.2426 848.5625,320.375 L 848.5625,260.09375 C 848.56248,258.41124 849.7689,256.97895 851.375,256.71875 C 851.38004,256.71883 851.40164,256.71828 851.40625,256.71875 C 851.40906,256.71861 851.4343,256.71919 851.4375,256.71875 C 851.44118,256.71854 851.46475,256.71875 851.46875,256.71875 C 851.48148,256.71934 851.52015,256.71905 851.53125,256.71875 C 851.54188,256.71874 851.58295,256.71855 851.59375,256.71875 C 851.70238,256.71454 851.8308,256.71875 851.9375,256.71875 L 1000,256.71875 L 1000,249.96875 L 902.5,249.96875 C 900.63242,249.96875 899.1249,248.46135 899.125,246.59375 L 899.125,186.3125 C 899.12492,184.6299 900.36075,183.1979 901.96875,182.9375 C 901.9738,182.93759 901.99539,182.93702 902,182.9375 C 902.00282,182.93736 902.02804,182.93795 902.03125,182.9375 C 902.03498,182.9374 902.0586,182.9375 902.0625,182.9375 C 902.07518,182.9382 902.1138,182.9379 902.125,182.9375 C 902.13572,182.9375 902.1769,182.9375 902.1875,182.9375 C 902.28838,182.9334 902.3932,182.9375 902.5,182.9375 L 1000,182.9375 L 1000,176.1875 L 851.9375,176.1875 C 850.06978,176.1875 848.5625,174.6803 848.5625,172.8125 L 848.5625,112.53125 C 848.56248,110.80775 849.8343,109.36475 851.5,109.15625 C 851.51589,109.15636 851.54656,109.15599 851.5625,109.15625 C 851.56621,109.15615 851.59042,109.15659 851.59375,109.15625 C 851.70738,109.14485 851.8208,109.15615 851.9375,109.15625 L 1000,109.15625 L 1000,102.40625 L 902.5,102.40625 C 900.63242,102.40625 899.1249,100.89885 899.125,99.03125 L 899.125,38.75 C 899.12492,37.053298 900.3727,35.6178 902,35.375 C 902.00503,35.375067 902.02669,35.374556 902.03125,35.375 C 902.03408,35.37488 902.05925,35.3754 902.0625,35.375 C 902.06618,35.374798 902.08975,35.3749 902.09375,35.375 C 902.10638,35.375498 902.14515,35.3752 902.15625,35.375 C 902.15898,35.374998 902.1845,35.3748 902.1875,35.375 C 902.28698,35.369398 902.3978,35.3748 902.5,35.375 L 1000,35.375 L 1000,28.625 L 851.9375,28.625 C 850.06978,28.625 848.5625,27.1176 848.5625,25.25 L 848.5625,0 L 841.8125,0 L 841.8125,25.25 C 841.81248,27.1177 840.3053,28.6248 838.4375,28.625 L 668.78125,28.625 C 666.91348,28.625 665.40625,27.1176 665.40625,25.25 L 665.40625,0 L 658.65625,0 L 658.65625,25.25 C 658.65618,27.1177 657.1803,28.6248 655.3125,28.625 L 485.625,28.625 C 483.75709,28.625 482.28125,27.1176 482.28125,25.25 L 482.28125,0 L 475.53125,0 L 475.53125,25.25 C 475.53135,27.1177 474.02395,28.6248 472.15625,28.625 L 302.5,28.625 C 300.63239,28.625 299.1249,27.1176 299.125,25.25 L 299.125,0 L 292.375,0 L 292.375,25.25 C 292.37499,27.1177 290.8675,28.6248 289,28.625 L 119.34375,28.625 C 117.47615,28.625 115.96875,27.1176 115.96875,25.25 L 115.96875,0 L 109.21875,0 z M 662,30.21875 C 662.00346,30.219219 662.02845,30.218627 662.03125,30.21875 C 662.0346,30.218194 662.06003,30.219183 662.0625,30.21875 C 662.10088,30.25835 662.1484,30.30395 662.1875,30.34375 C 662.19438,30.35055 662.21685,30.3727 662.21875,30.375 L 661.84375,30.375 C 661.84987,30.369063 661.8713,30.3476 661.875,30.34375 C 661.90712,30.31195 661.9681,30.25005 662,30.21875 z M 845.15625,30.21875 C 845.15972,30.219219 845.1847,30.218627 845.1875,30.21875 C 845.19086,30.218194 845.21626,30.219183 845.21875,30.21875 C 845.25718,30.25835 845.30455,30.30395 845.34375,30.34375 C 845.34572,30.34585 845.3369,30.368262 845.34375,30.375 L 845,30.375 C 845.0061,30.369063 845.0276,30.3476 845.03125,30.34375 C 845.06348,30.31195 845.12435,30.25005 845.15625,30.21875 z M 712.40625,33.625 L 712.78125,33.625 C 712.77937,33.627149 712.75685,33.649513 712.75,33.65625 C 712.71072,33.696052 712.6633,33.74175 712.625,33.78125 C 712.61812,33.788052 712.59565,33.8104 712.59375,33.8125 C 712.58758,33.805401 712.5698,33.78875 712.5625,33.78125 C 712.53068,33.749952 712.4697,33.68805 712.4375,33.65625 C 712.43018,33.648552 712.41255,33.6323 712.40625,33.625 z M 895.5625,33.625 L 895.9375,33.625 C 895.93564,33.627149 895.9131,33.649513 895.90625,33.65625 C 895.86708,33.696052 895.81965,33.74175 895.78125,33.78125 C 895.77877,33.780817 895.75336,33.781806 895.75,33.78125 C 895.74719,33.781374 895.72223,33.780781 895.71875,33.78125 C 895.68688,33.749952 895.62595,33.68805 895.59375,33.65625 C 895.58648,33.648552 895.5689,33.6323 895.5625,33.625 z M 169.40625,35.375 C 169.41129,35.375067 169.43293,35.374556 169.4375,35.375 C 169.44033,35.37488 169.4655,35.3754 169.46875,35.375 C 169.47245,35.374798 169.496,35.3749 169.5,35.375 C 169.5126,35.375498 169.5514,35.3752 169.5625,35.375 C 169.5653,35.374998 169.59075,35.3748 169.59375,35.375 C 169.69325,35.369398 169.80415,35.3748 169.90625,35.375 L 339.5625,35.375 C 341.43031,35.374998 342.9376,36.8822 342.9375,38.75 L 342.9375,99.03125 C 342.93751,100.89895 341.4303,102.40615 339.5625,102.40625 L 169.90625,102.40625 C 168.03855,102.40625 166.53125,100.89885 166.53125,99.03125 L 166.53125,38.75 C 166.53125,37.053298 167.77895,35.6178 169.40625,35.375 z M 352.5625,35.375 C 352.56755,35.375067 352.58917,35.374556 352.59375,35.375 C 352.59659,35.37488 352.62174,35.3754 352.625,35.375 C 352.62859,35.374798 352.65225,35.3749 352.65625,35.375 C 352.66885,35.375498 352.70765,35.3752 352.71875,35.375 C 352.72145,35.374998 352.7469,35.3748 352.75,35.375 C 352.84939,35.369398 352.9604,35.3748 353.0625,35.375 L 522.71875,35.375 C 524.58658,35.374998 526.09375,36.8822 526.09375,38.75 L 526.09375,99.03125 C 526.09378,100.89895 524.58645,102.40615 522.71875,102.40625 L 353.0625,102.40625 C 351.19501,102.40625 349.6876,100.89885 349.6875,99.03125 L 349.6875,38.75 C 349.68761,37.053298 350.9352,35.6178 352.5625,35.375 z M 535.875,35.375 C 535.88104,35.375162 535.9027,35.37525 535.90625,35.375 C 536.00568,35.369398 536.11665,35.3749 536.21875,35.375 L 705.875,35.375 C 707.74272,35.374998 709.25,36.8822 709.25,38.75 L 709.25,99.03125 C 709.25002,100.89895 707.7426,102.40615 705.875,102.40625 L 536.21875,102.40625 C 534.35118,102.40625 532.84375,100.89885 532.84375,99.03125 L 532.84375,38.75 C 532.84388,36.998998 534.1708,35.5469 535.875,35.375 z M 718.84375,35.375 C 718.84879,35.375067 718.87042,35.374556 718.875,35.375 C 718.87783,35.37488 718.903,35.3754 718.90625,35.375 C 718.90998,35.374798 718.9336,35.3749 718.9375,35.375 C 718.95018,35.375498 718.9888,35.3752 719,35.375 C 719.00602,35.375098 719.02775,35.3751 719.03125,35.375 C 719.13068,35.369398 719.24165,35.3748 719.34375,35.375 L 889,35.375 C 890.86782,35.374998 892.375,36.8822 892.375,38.75 L 892.375,99.03125 C 892.37502,100.89895 890.8677,102.40615 889,102.40625 L 719.34375,102.40625 C 717.47618,102.40625 715.96875,100.89885 715.96875,99.03125 L 715.96875,38.75 C 715.96888,37.053298 717.21645,35.6178 718.84375,35.375 z M 529.4375,103.96875 C 529.44408,103.96134 529.46499,103.97288 529.46875,103.96875 C 529.50823,104.02417 529.55288,104.1019 529.59375,104.15625 L 529.28125,104.15625 C 529.3244,104.10165 529.39804,104.01322 529.4375,103.96875 z M 712.5625,104 C 712.56597,104.00046 712.59095,103.99987 712.59375,104 C 712.5971,103.99945 712.62251,104.00042 712.625,104 C 712.66332,104.0395 712.7106,104.0851 712.75,104.125 C 712.75191,104.12705 712.74315,104.14951 712.75,104.15625 L 712.40625,104.15625 C 712.41235,104.15034 712.43385,104.12885 712.4375,104.125 C 712.46968,104.0932 712.5307,104.0312 712.5625,104 z M 895.71875,104 C 895.72223,104.00046 895.74719,103.99987 895.75,104 C 895.75336,103.99945 895.77877,104.00042 895.78125,104 C 895.81968,104.0395 895.86705,104.0851 895.90625,104.125 C 895.90817,104.12705 895.89938,104.14951 895.90625,104.15625 L 895.5625,104.15625 C 895.56861,104.15034 895.5901,104.12885 895.59375,104.125 C 895.62598,104.0932 895.68685,104.0312 895.71875,104 z M 661.84375,107.40625 L 662.21875,107.40625 C 662.21687,107.40845 662.19436,107.43075 662.1875,107.4375 C 662.14828,107.4773 662.1009,107.5231 662.0625,107.5625 C 662.06003,107.56207 662.03461,107.56305 662.03125,107.5625 C 662.02845,107.56263 662.00346,107.56204 662,107.5625 C 661.96812,107.5313 661.9071,107.4693 661.875,107.4375 C 661.87131,107.43365 661.84986,107.44341 661.84375,107.4375 C 661.8411,107.43483 661.84533,107.4081 661.84375,107.40625 z M 845,107.40625 L 845.375,107.40625 C 845.37311,107.40845 845.35062,107.43075 845.34375,107.4375 C 845.30458,107.4773 845.25715,107.5231 845.21875,107.5625 C 845.21627,107.56207 845.19086,107.56305 845.1875,107.5625 C 845.1847,107.56263 845.15972,107.56204 845.15625,107.5625 C 845.12438,107.5313 845.06345,107.4693 845.03125,107.4375 C 845.02762,107.43365 845.0061,107.44341 845,107.4375 C 844.99735,107.43483 845.00158,107.4081 845,107.40625 z M 118.84375,109.15625 C 118.84879,109.15633 118.87043,109.1558 118.875,109.15625 C 118.87783,109.15612 118.903,109.15666 118.90625,109.15625 C 118.90995,109.15605 118.9336,109.15625 118.9375,109.15625 C 118.9502,109.15685 118.9888,109.15655 119,109.15625 C 119.1136,109.14485 119.22705,109.15615 119.34375,109.15625 L 289,109.15625 C 290.86749,109.15625 292.375,110.66345 292.375,112.53125 L 292.375,172.8125 C 292.37499,174.6803 290.8675,176.1875 289,176.1875 L 119.34375,176.1875 C 117.47615,176.1875 115.96875,174.6803 115.96875,172.8125 L 115.96875,112.53125 C 115.96865,110.83465 117.21645,109.39925 118.84375,109.15625 z M 302,109.15625 C 302.00503,109.15633 302.02669,109.1558 302.03125,109.15625 C 302.03408,109.15612 302.05925,109.15666 302.0625,109.15625 C 302.06621,109.15605 302.08975,109.15625 302.09375,109.15625 C 302.10635,109.15685 302.14515,109.15655 302.15625,109.15625 C 302.26985,109.14485 302.3832,109.15615 302.5,109.15625 L 472.15625,109.15625 C 474.02385,109.15625 475.53125,110.66345 475.53125,112.53125 L 475.53125,172.8125 C 475.53135,174.6803 474.02395,176.1875 472.15625,176.1875 L 302.5,176.1875 C 300.63239,176.1875 299.1249,174.6803 299.125,172.8125 L 299.125,112.53125 C 299.12489,110.83465 300.3727,109.39925 302,109.15625 z M 485.125,109.15625 C 485.13003,109.15633 485.15169,109.1558 485.15625,109.15625 C 485.15908,109.15612 485.18425,109.15666 485.1875,109.15625 C 485.19121,109.15605 485.21475,109.15625 485.21875,109.15625 C 485.23135,109.15685 485.27015,109.15655 485.28125,109.15625 C 485.39485,109.14485 485.5082,109.15615 485.625,109.15625 L 655.3125,109.15625 C 657.18028,109.15625 658.65625,110.66345 658.65625,112.53125 L 658.65625,172.8125 C 658.65618,174.6803 657.1803,176.1875 655.3125,176.1875 L 485.625,176.1875 C 483.75709,176.1875 482.28125,174.6803 482.28125,172.8125 L 482.28125,112.53125 C 482.28115,110.83465 483.4995,109.39925 485.125,109.15625 z M 668.28125,109.15625 C 668.28629,109.15633 668.30792,109.1558 668.3125,109.15625 C 668.31533,109.15612 668.3405,109.15666 668.34375,109.15625 C 668.34748,109.15605 668.371,109.15625 668.375,109.15625 C 668.38762,109.15685 668.4264,109.15655 668.4375,109.15625 C 668.55118,109.14485 668.66455,109.15615 668.78125,109.15625 L 838.4375,109.15625 C 840.30528,109.15625 841.8125,110.66345 841.8125,112.53125 L 841.8125,172.8125 C 841.81248,174.6803 840.3053,176.1875 838.4375,176.1875 L 668.78125,176.1875 C 666.91348,176.1875 665.40625,174.6803 665.40625,172.8125 L 665.40625,112.53125 C 665.40628,110.83465 666.65395,109.39925 668.28125,109.15625 z M 295.75,177.78125 C 295.75849,177.79025 295.796,177.82745 295.8125,177.84375 C 295.82331,177.85445 295.8642,177.89535 295.875,177.90625 C 295.88079,177.91215 295.89825,177.9295 295.90625,177.9375 L 295.5625,177.9375 C 295.56561,177.934 295.59065,177.90965 295.59375,177.90625 C 295.60375,177.89655 295.63985,177.86005 295.65625,177.84375 C 295.6624,177.83751 295.6843,177.81575 295.6875,177.8125 C 295.68831,177.8117 295.70376,177.82006 295.71875,177.8125 C 295.72467,177.80969 295.74908,177.78133 295.75,177.78125 z M 478.84375,177.78125 C 478.84722,177.78172 478.87219,177.78113 478.875,177.78125 C 478.87836,177.78069 478.90377,177.78168 478.90625,177.78125 C 478.94465,177.82085 478.99205,177.86645 479.03125,177.90625 C 479.03315,177.90835 479.02437,177.93076 479.03125,177.9375 L 478.6875,177.9375 C 478.69361,177.93157 478.7151,177.9101 478.71875,177.90625 C 478.75095,177.87445 478.81185,177.81255 478.84375,177.78125 z M 662,177.78125 C 662.00346,177.78172 662.02845,177.78113 662.03125,177.78125 C 662.0346,177.78069 662.06003,177.78168 662.0625,177.78125 C 662.10088,177.82085 662.1484,177.86645 662.1875,177.90625 C 662.19438,177.91295 662.21685,177.9354 662.21875,177.9375 L 661.84375,177.9375 C 661.84987,177.93157 661.8713,177.9101 661.875,177.90625 C 661.90712,177.87445 661.9681,177.81255 662,177.78125 z M 845.15625,177.78125 C 845.15972,177.78172 845.1847,177.78113 845.1875,177.78125 C 845.19086,177.78069 845.21626,177.78168 845.21875,177.78125 C 845.25718,177.82085 845.30455,177.86645 845.34375,177.90625 C 845.34768,177.91045 845.3711,177.9332 845.375,177.9375 L 845,177.9375 C 845.0061,177.93157 845.0276,177.9101 845.03125,177.90625 C 845.06348,177.87445 845.12435,177.81255 845.15625,177.78125 z M 529.28125,181.1875 L 529.625,181.1875 C 529.62341,181.18935 529.60077,181.21183 529.59375,181.21875 C 529.58388,181.22825 529.54765,181.26495 529.53125,181.28125 C 529.52792,181.28425 529.50617,181.30624 529.5,181.3125 C 529.49292,181.3195 529.47025,181.34195 529.46875,181.34375 C 529.46708,181.34405 529.4446,181.34385 529.4375,181.34375 C 529.42578,181.33225 529.3911,181.29725 529.375,181.28125 C 529.35842,181.26495 529.3215,181.22755 529.3125,181.21875 C 529.30968,181.21555 529.28965,181.196 529.28125,181.1875 z M 712.40625,181.1875 L 712.78125,181.1875 C 712.77937,181.1897 712.75685,181.212 712.75,181.21875 C 712.71072,181.25855 712.6633,181.30415 712.625,181.34375 C 712.61812,181.35055 712.59565,181.3727 712.59375,181.375 C 712.58758,181.36781 712.5698,181.35125 712.5625,181.34375 C 712.53068,181.31245 712.4697,181.25055 712.4375,181.21875 C 712.43384,181.2149 712.41235,181.22469 712.40625,181.21875 C 712.4036,181.21607 712.40783,181.18935 712.40625,181.1875 z M 895.5625,181.1875 L 895.9375,181.1875 C 895.93564,181.1897 895.9131,181.212 895.90625,181.21875 C 895.86708,181.25855 895.81965,181.30415 895.78125,181.34375 C 895.77877,181.34332 895.75336,181.34431 895.75,181.34375 C 895.74719,181.34387 895.72223,181.34328 895.71875,181.34375 C 895.68688,181.31245 895.62595,181.25055 895.59375,181.21875 C 895.58648,181.21105 895.5689,181.1949 895.5625,181.1875 z M 169.375,182.9375 C 169.38004,182.93759 169.40165,182.93702 169.40625,182.9375 C 169.40907,182.93736 169.43429,182.93795 169.4375,182.9375 C 169.4412,182.9374 169.46475,182.9375 169.46875,182.9375 C 169.48145,182.9382 169.52015,182.9379 169.53125,182.9375 C 169.54205,182.9375 169.58305,182.9375 169.59375,182.9375 C 169.69455,182.9334 169.79955,182.9375 169.90625,182.9375 L 339.5625,182.9375 C 341.43031,182.9375 342.9376,184.4449 342.9375,186.3125 L 342.9375,246.59375 C 342.93751,248.46145 341.4303,249.96865 339.5625,249.96875 L 169.90625,249.96875 C 168.03855,249.96875 166.53125,248.46135 166.53125,246.59375 L 166.53125,186.3125 C 166.53125,184.6299 167.7671,183.1979 169.375,182.9375 z M 352.5,182.9375 C 352.50504,182.93759 352.52664,182.93702 352.53125,182.9375 C 352.53406,182.93736 352.5593,182.93795 352.5625,182.9375 C 352.56621,182.9374 352.58975,182.9375 352.59375,182.9375 C 352.60645,182.9382 352.64515,182.9379 352.65625,182.9375 C 352.66685,182.9375 352.70795,182.9375 352.71875,182.9375 C 352.82735,182.9334 352.9558,182.9375 353.0625,182.9375 L 522.71875,182.9375 C 524.58658,182.9375 526.09375,184.4449 526.09375,186.3125 L 526.09375,246.59375 C 526.09378,248.46145 524.58645,249.96865 522.71875,249.96875 L 353.0625,249.96875 C 351.19501,249.96875 349.6876,248.46135 349.6875,246.59375 L 349.6875,186.3125 C 349.68761,184.6299 350.8939,183.1979 352.5,182.9375 z M 535.65625,182.9375 C 535.6613,182.93759 535.68289,182.93702 535.6875,182.9375 C 535.69032,182.93736 535.71554,182.93795 535.71875,182.9375 C 535.72248,182.9374 535.746,182.9375 535.75,182.9375 C 535.76262,182.9382 535.8015,182.9379 535.8125,182.9375 C 535.82318,182.9375 535.8642,182.9375 535.875,182.9375 C 535.98362,182.9334 536.11205,182.9375 536.21875,182.9375 L 705.875,182.9375 C 707.74272,182.9375 709.25,184.4449 709.25,186.3125 L 709.25,246.59375 C 709.25002,248.46145 707.7425,249.96865 705.875,249.96875 L 536.21875,249.96875 C 534.35118,249.96875 532.84375,248.46135 532.84375,246.59375 L 532.84375,186.3125 C 532.84388,184.6299 534.05015,183.1979 535.65625,182.9375 z M 718.8125,182.9375 C 718.81755,182.93759 718.83914,182.93702 718.84375,182.9375 C 718.84658,182.93736 718.87177,182.93795 718.875,182.9375 C 718.87862,182.9374 718.90225,182.9375 718.90625,182.9375 C 718.91898,182.9382 718.95765,182.9379 718.96875,182.9375 C 718.97958,182.9375 719.02055,182.9375 719.03125,182.9375 C 719.13208,182.9334 719.23705,182.9375 719.34375,182.9375 L 889,182.9375 C 890.86782,182.9375 892.375,184.4449 892.375,186.3125 L 892.375,246.59375 C 892.37502,248.46145 890.8677,249.96865 889,249.96875 L 719.34375,249.96875 C 717.47618,249.96875 715.96875,248.46135 715.96875,246.59375 L 715.96875,186.3125 C 715.96888,184.6299 717.2046,183.1979 718.8125,182.9375 z M 118.8125,256.71875 C 118.81755,256.71883 118.83914,256.71828 118.84375,256.71875 C 118.84658,256.71861 118.87177,256.71919 118.875,256.71875 C 118.8786,256.71854 118.90225,256.71875 118.90625,256.71875 C 118.91895,256.71934 118.95765,256.71905 118.96875,256.71875 C 118.97671,256.71785 118.99212,256.71944 119,256.71875 C 119.10936,256.71184 119.22886,256.71866 119.34375,256.71875 L 289,256.71875 C 290.86749,256.71874 292.375,258.22595 292.375,260.09375 L 292.375,320.375 C 292.37499,322.24271 290.8675,323.7498 289,323.75 L 119.34375,323.75 C 117.47615,323.75001 115.96875,322.2426 115.96875,320.375 L 115.96875,260.09375 C 115.96865,258.41124 117.2046,256.97895 118.8125,256.71875 z M 302,256.71875 C 302.0159,256.71888 302.04654,256.71847 302.0625,256.71875 C 302.0662,256.71864 302.09046,256.71912 302.09375,256.71875 C 302.10435,256.71874 302.14545,256.71855 302.15625,256.71875 C 302.26485,256.71454 302.3932,256.71875 302.5,256.71875 L 472.15625,256.71875 C 474.02385,256.71874 475.53125,258.22595 475.53125,260.09375 L 475.53125,320.375 C 475.53135,322.24271 474.02395,323.7498 472.15625,323.75 L 302.5,323.75 C 300.63239,323.75001 299.1249,322.2426 299.125,320.375 L 299.125,260.09375 C 299.12489,258.38454 300.3552,256.94545 302,256.71875 z M 485.09375,256.71875 C 485.0988,256.71883 485.12039,256.71828 485.125,256.71875 C 485.12782,256.71861 485.15304,256.71919 485.15625,256.71875 C 485.15995,256.71854 485.1836,256.71875 485.1875,256.71875 C 485.20021,256.71934 485.2388,256.71905 485.25,256.71875 C 485.25796,256.71785 485.27337,256.71944 485.28125,256.71875 C 485.39056,256.71184 485.50994,256.71866 485.625,256.71875 L 655.3125,256.71875 C 657.18028,256.71874 658.65625,258.22595 658.65625,260.09375 L 658.65625,320.375 C 658.65618,322.24271 657.1803,323.7498 655.3125,323.75 L 485.625,323.75 C 483.75709,323.75001 482.28125,322.2426 482.28125,320.375 L 482.28125,260.09375 C 482.28115,258.41124 483.48755,256.97895 485.09375,256.71875 z M 668.25,256.71875 C 668.25504,256.71883 668.27665,256.71828 668.28125,256.71875 C 668.28407,256.71861 668.30929,256.71919 668.3125,256.71875 C 668.31618,256.71854 668.33975,256.71875 668.34375,256.71875 C 668.35648,256.71934 668.39515,256.71905 668.40625,256.71875 C 668.41421,256.71785 668.42962,256.71944 668.4375,256.71875 C 668.54687,256.71184 668.66636,256.71866 668.78125,256.71875 L 838.4375,256.71875 C 840.30528,256.71874 841.8125,258.22595 841.8125,260.09375 L 841.8125,320.375 C 841.81248,322.24271 840.3053,323.7498 838.4375,323.75 L 668.78125,323.75 C 666.91348,323.75001 665.40625,322.2426 665.40625,320.375 L 665.40625,260.09375 C 665.40628,258.41124 666.6421,256.97895 668.25,256.71875 z M 169.375,330.5 C 169.38004,330.50008 169.40165,330.49952 169.40625,330.5 C 169.40907,330.49987 169.43429,330.50044 169.4375,330.5 C 169.4412,330.49981 169.46475,330.4999 169.46875,330.5 C 169.48145,330.50061 169.52015,330.5003 169.53125,330.5 C 169.54205,330.49991 169.58305,330.4996 169.59375,330.5 C 169.69455,330.49581 169.79955,330.4998 169.90625,330.5 L 339.5625,330.5 C 341.43031,330.50001 342.9376,332.0072 342.9375,333.875 L 342.9375,394.15625 C 342.93751,396.02394 341.4303,397.53115 339.5625,397.53125 L 169.90625,397.53125 C 168.03855,397.53124 166.53125,396.02385 166.53125,394.15625 L 166.53125,333.875 C 166.53125,332.19231 167.7671,330.7601 169.375,330.5 z M 352.5,330.5 C 352.50504,330.50008 352.52664,330.49952 352.53125,330.5 C 352.53406,330.49987 352.5593,330.50044 352.5625,330.5 C 352.56621,330.49981 352.58975,330.4999 352.59375,330.5 C 352.60645,330.50061 352.64515,330.5003 352.65625,330.5 C 352.66685,330.49991 352.70795,330.4996 352.71875,330.5 C 352.82735,330.49581 352.9558,330.4998 353.0625,330.5 L 522.71875,330.5 C 524.58658,330.50001 526.09375,332.0072 526.09375,333.875 L 526.09375,394.15625 C 526.09378,396.02394 524.58645,397.53115 522.71875,397.53125 L 353.0625,397.53125 C 351.19501,397.53124 349.6876,396.02385 349.6875,394.15625 L 349.6875,333.875 C 349.68761,332.19231 350.8939,330.7601 352.5,330.5 z M 535.65625,330.5 C 535.6613,330.50008 535.68289,330.49952 535.6875,330.5 C 535.69032,330.49987 535.71554,330.50044 535.71875,330.5 C 535.72248,330.49981 535.746,330.4999 535.75,330.5 C 535.76262,330.50061 535.8015,330.5003 535.8125,330.5 C 535.82318,330.49991 535.8642,330.4996 535.875,330.5 C 535.98362,330.49581 536.11205,330.4998 536.21875,330.5 L 705.875,330.5 C 707.74272,330.50001 709.25,332.0072 709.25,333.875 L 709.25,394.15625 C 709.25002,396.02394 707.7425,397.53115 705.875,397.53125 L 536.21875,397.53125 C 534.35118,397.53124 532.84375,396.02385 532.84375,394.15625 L 532.84375,333.875 C 532.84388,332.19231 534.05015,330.7601 535.65625,330.5 z M 718.8125,330.5 C 718.81755,330.50008 718.83914,330.49952 718.84375,330.5 C 718.84658,330.49987 718.87177,330.50044 718.875,330.5 C 718.87862,330.49981 718.90225,330.4999 718.90625,330.5 C 718.91898,330.50061 718.95765,330.5003 718.96875,330.5 C 718.97958,330.49991 719.02055,330.4996 719.03125,330.5 C 719.13208,330.49581 719.23705,330.4998 719.34375,330.5 L 889,330.5 C 890.86782,330.50001 892.375,332.0072 892.375,333.875 L 892.375,394.15625 C 892.37502,396.02394 890.8677,397.53115 889,397.53125 L 719.34375,397.53125 C 717.47618,397.53124 715.96875,396.02385 715.96875,394.15625 L 715.96875,333.875 C 715.96888,332.19231 717.2046,330.7601 718.8125,330.5 z M 118.78125,404.28125 C 118.78631,404.28134 118.80785,404.28074 118.8125,404.28125 C 118.81531,404.2811 118.84058,404.28172 118.84375,404.28125 C 118.84655,404.28104 118.8724,404.28125 118.875,404.28125 C 118.8775,404.28134 118.90345,404.28135 118.90625,404.28125 C 118.90995,404.28104 118.9336,404.28125 118.9375,404.28125 C 118.9543,404.28184 118.9864,404.28185 119,404.28125 C 119.1086,404.27874 119.23435,404.28125 119.34375,404.28125 L 289,404.28125 C 290.86749,404.28124 292.375,405.7572 292.375,407.625 L 292.375,467.9375 C 292.37499,469.8053 290.8675,471.3125 289,471.3125 L 119.34375,471.3125 C 117.47615,471.3125 115.96875,469.8052 115.96875,467.9375 L 115.96875,407.625 C 115.96865,405.95651 117.19355,404.55655 118.78125,404.28125 z M 301.9375,404.28125 C 301.94257,404.28134 301.96409,404.28074 301.96875,404.28125 C 301.97156,404.2811 301.99683,404.28172 302,404.28125 C 302.00279,404.28104 302.02875,404.28125 302.03125,404.28125 C 302.03375,404.28134 302.0597,404.28135 302.0625,404.28125 C 302.06621,404.28104 302.08975,404.28125 302.09375,404.28125 C 302.11055,404.28184 302.14275,404.28185 302.15625,404.28125 C 302.26495,404.27874 302.3904,404.28125 302.5,404.28125 L 472.15625,404.28125 C 474.02385,404.28124 475.53125,405.7572 475.53125,407.625 L 475.53125,467.9375 C 475.53135,469.8053 474.02395,471.3125 472.15625,471.3125 L 302.5,471.3125 C 300.63239,471.3125 299.1249,469.8052 299.125,467.9375 L 299.125,407.625 C 299.12489,405.95651 300.3499,404.55655 301.9375,404.28125 z M 485.21875,404.28125 C 485.22411,404.28124 485.24435,404.28104 485.25,404.28125 C 485.25528,404.28137 485.277,404.28155 485.28125,404.28125 C 485.39055,404.27614 485.5064,404.28125 485.625,404.28125 L 655.3125,404.28125 C 657.18028,404.28124 658.65625,405.7572 658.65625,407.625 L 658.65625,467.9375 C 658.65618,469.8053 657.1802,471.3125 655.3125,471.3125 L 485.625,471.3125 C 483.75709,471.3125 482.28125,469.8052 482.28125,467.9375 L 482.28125,407.625 C 482.28115,405.90311 483.55585,404.49135 485.21875,404.28125 z M 668.21875,404.28125 C 668.22381,404.28134 668.24535,404.28074 668.25,404.28125 C 668.25281,404.2811 668.27807,404.28172 668.28125,404.28125 C 668.28408,404.28104 668.31,404.28125 668.3125,404.28125 C 668.31508,404.28134 668.34095,404.28135 668.34375,404.28125 C 668.34748,404.28104 668.371,404.28125 668.375,404.28125 C 668.39172,404.28184 668.424,404.28185 668.4375,404.28125 C 668.54618,404.27874 668.67185,404.28125 668.78125,404.28125 L 838.4375,404.28125 C 840.30528,404.28124 841.8125,405.7572 841.8125,407.625 L 841.8125,467.9375 C 841.81248,469.8053 840.3053,471.3125 838.4375,471.3125 L 668.78125,471.3125 C 666.91348,471.3125 665.40625,469.8052 665.40625,467.9375 L 665.40625,407.625 C 665.40628,405.95651 666.63105,404.55655 668.21875,404.28125 z M 169.40625,478.0625 C 169.41129,478.06258 169.43293,478.06206 169.4375,478.0625 C 169.44033,478.06237 169.4655,478.06291 169.46875,478.0625 C 169.47245,478.0624 169.496,478.0626 169.5,478.0625 C 169.5167,478.0631 169.549,478.0632 169.5625,478.0625 C 169.6712,478.06 169.79685,478.0626 169.90625,478.0625 L 339.5625,478.0625 C 341.43031,478.0625 342.9376,479.53845 342.9375,481.40625 L 342.9375,541.71875 C 342.93751,543.58647 341.4303,545.09365 339.5625,545.09375 L 169.90625,545.09375 C 168.03855,545.09377 166.53125,543.58635 166.53125,541.71875 L 166.53125,481.40625 C 166.53125,479.71134 167.78145,478.3062 169.40625,478.0625 z M 352.5,478.0625 C 352.50505,478.0626 352.52661,478.06199 352.53125,478.0625 C 352.53405,478.06234 352.55934,478.06299 352.5625,478.0625 C 352.56541,478.0624 352.59125,478.0625 352.59375,478.0625 C 352.59625,478.0626 352.6221,478.0627 352.625,478.0625 C 352.62859,478.0624 352.65225,478.0627 352.65625,478.0625 C 352.67305,478.0631 352.70525,478.0633 352.71875,478.0625 C 352.82735,478.06 352.9532,478.0626 353.0625,478.0625 L 522.71875,478.0625 C 524.58658,478.0625 526.09375,479.53845 526.09375,481.40625 L 526.09375,541.71875 C 526.09378,543.58647 524.58645,545.09365 522.71875,545.09375 L 353.0625,545.09375 C 351.19501,545.09377 349.6876,543.58635 349.6875,541.71875 L 349.6875,481.40625 C 349.68761,479.73784 350.9123,478.338 352.5,478.0625 z M 535.65625,478.0625 C 535.66131,478.0626 535.68285,478.06199 535.6875,478.0625 C 535.69031,478.06234 535.71557,478.06299 535.71875,478.0625 C 535.72158,478.0624 535.7474,478.0625 535.75,478.0625 C 535.75252,478.0626 535.77845,478.0627 535.78125,478.0625 C 535.78498,478.0624 535.8086,478.0627 535.8125,478.0625 C 535.82928,478.0631 535.8614,478.0633 535.875,478.0625 C 535.98362,478.06 536.10935,478.0626 536.21875,478.0625 L 705.875,478.0625 C 707.74272,478.0625 709.25,479.53845 709.25,481.40625 L 709.25,541.71875 C 709.25002,543.58647 707.7425,545.09365 705.875,545.09375 L 536.21875,545.09375 C 534.35118,545.09377 532.84375,543.58635 532.84375,541.71875 L 532.84375,481.40625 C 532.84388,479.73784 534.06855,478.338 535.65625,478.0625 z M 718.8125,478.0625 C 718.81756,478.0626 718.8391,478.06199 718.84375,478.0625 C 718.84656,478.06234 718.87181,478.06299 718.875,478.0625 C 718.87782,478.0624 718.90375,478.0625 718.90625,478.0625 C 718.90878,478.0626 718.9347,478.0627 718.9375,478.0625 C 718.94828,478.0625 718.9894,478.0623 719,478.0625 C 719.10932,478.0574 719.22525,478.0625 719.34375,478.0625 L 889,478.0625 C 890.86782,478.0625 892.375,479.53845 892.375,481.40625 L 892.375,541.71875 C 892.37502,543.58647 890.8677,545.09365 889,545.09375 L 719.34375,545.09375 C 717.47618,545.09377 715.96875,543.58635 715.96875,541.71875 L 715.96875,481.40625 C 715.96888,479.73784 717.223,478.338 718.8125,478.0625 z M 118.90625,551.8125 C 118.92215,551.81263 118.9528,551.81225 118.96875,551.8125 C 118.97247,551.8124 118.99666,551.81284 119,551.8125 C 119.0037,551.81243 119.02725,551.8125 119.03125,551.8125 C 119.04375,551.81303 119.08255,551.8128 119.09375,551.8125 C 119.09725,551.81233 119.1188,551.8124 119.125,551.8125 C 119.1506,551.81243 119.19285,551.8121 119.21875,551.8125 C 119.22545,551.81263 119.2428,551.8128 119.25,551.8125 C 119.279,551.81193 119.31455,551.8125 119.34375,551.8125 L 289,551.8125 C 290.86749,551.81263 292.375,553.3198 292.375,555.1875 L 292.375,615.5 C 292.37499,617.36771 290.8675,618.8749 289,618.875 L 119.34375,618.875 C 117.47615,618.87491 115.96875,617.3676 115.96875,615.5 L 115.96875,555.1875 C 115.96865,553.46173 117.23735,552.0188 118.90625,551.8125 z M 302.0625,551.8125 C 302.0784,551.81263 302.10905,551.81225 302.125,551.8125 C 302.12872,551.8124 302.15291,551.81284 302.15625,551.8125 C 302.15995,551.81243 302.1836,551.8125 302.1875,551.8125 C 302.20001,551.81303 302.2387,551.8128 302.25,551.8125 C 302.25349,551.81233 302.27515,551.8124 302.28125,551.8125 C 302.30695,551.81243 302.349,551.8121 302.375,551.8125 C 302.38169,551.81263 302.39915,551.8128 302.40625,551.8125 C 302.43525,551.81193 302.4708,551.8125 302.5,551.8125 L 472.15625,551.8125 C 474.02385,551.81263 475.53125,553.3198 475.53125,555.1875 L 475.53125,615.5 C 475.53135,617.36771 474.02395,618.8749 472.15625,618.875 L 302.5,618.875 C 300.63239,618.87491 299.1249,617.3676 299.125,615.5 L 299.125,555.1875 C 299.12489,553.46173 300.3937,552.0188 302.0625,551.8125 z M 485.21875,551.8125 C 485.23465,551.81263 485.26533,551.81225 485.28125,551.8125 C 485.28496,551.8124 485.30917,551.81284 485.3125,551.8125 C 485.31631,551.81243 485.33975,551.8125 485.34375,551.8125 C 485.35625,551.81303 485.39505,551.8128 485.40625,551.8125 C 485.40975,551.81233 485.4314,551.8124 485.4375,551.8125 C 485.46321,551.81243 485.50545,551.8121 485.53125,551.8125 C 485.53795,551.81263 485.5554,551.8128 485.5625,551.8125 C 485.59161,551.81193 485.5958,551.8125 485.625,551.8125 L 655.3125,551.8125 C 657.18028,551.81263 658.65625,553.3198 658.65625,555.1875 L 658.65625,615.5 C 658.65618,617.36771 657.1803,618.8749 655.3125,618.875 L 485.625,618.875 C 483.75709,618.87491 482.28125,617.3676 482.28125,615.5 L 482.28125,555.1875 C 482.28115,553.46173 483.54995,552.0188 485.21875,551.8125 z M 668.34375,551.8125 C 668.35966,551.81263 668.39033,551.81225 668.40625,551.8125 C 668.40996,551.8124 668.43417,551.81284 668.4375,551.8125 C 668.44128,551.81243 668.46475,551.8125 668.46875,551.8125 C 668.48128,551.81303 668.52005,551.8128 668.53125,551.8125 C 668.53478,551.81233 668.5564,551.8124 668.5625,551.8125 C 668.58818,551.81243 668.63045,551.8121 668.65625,551.8125 C 668.66298,551.81263 668.6804,551.8128 668.6875,551.8125 C 668.71658,551.81193 668.75205,551.8125 668.78125,551.8125 L 838.4375,551.8125 C 840.30528,551.81263 841.8125,553.3198 841.8125,555.1875 L 841.8125,615.5 C 841.81248,617.36771 840.3053,618.8749 838.4375,618.875 L 668.78125,618.875 C 666.91348,618.87491 665.40625,617.3676 665.40625,615.5 L 665.40625,555.1875 C 665.40628,553.46173 666.67495,552.0188 668.34375,551.8125 z M 169.46875,625.59375 C 169.48465,625.59385 169.51533,625.59348 169.53125,625.59375 C 169.53496,625.59366 169.55917,625.59407 169.5625,625.59375 C 169.5663,625.59367 169.58975,625.59375 169.59375,625.59375 C 169.60625,625.59417 169.64505,625.59395 169.65625,625.59375 C 169.66275,625.59387 169.6849,625.59385 169.6875,625.59375 C 169.7187,625.59367 169.74955,625.59495 169.78125,625.59375 C 169.82465,625.59217 169.86245,625.59365 169.90625,625.59375 L 339.5625,625.59375 C 341.43031,625.59377 342.9376,627.10095 342.9375,628.96875 L 342.9375,689.28125 C 342.93751,691.14897 341.4303,692.65615 339.5625,692.65625 L 169.90625,692.65625 C 168.03855,692.65637 166.53125,691.14885 166.53125,689.28125 L 166.53125,628.96875 C 166.53125,627.24277 167.79935,625.79985 169.46875,625.59375 z M 352.625,625.59375 C 352.64087,625.59385 352.67155,625.59348 352.6875,625.59375 C 352.69122,625.59366 352.71541,625.59407 352.71875,625.59375 C 352.72245,625.59367 352.746,625.59375 352.75,625.59375 C 352.76239,625.59417 352.8013,625.59395 352.8125,625.59375 C 352.81911,625.59387 352.84115,625.59385 352.84375,625.59375 C 352.87485,625.59367 352.9059,625.59495 352.9375,625.59375 C 352.98101,625.59217 353.0188,625.59365 353.0625,625.59375 L 522.71875,625.59375 C 524.58658,625.59377 526.09375,627.10095 526.09375,628.96875 L 526.09375,689.28125 C 526.09378,691.14897 524.58645,692.65615 522.71875,692.65625 L 353.0625,692.65625 C 351.19501,692.65637 349.6876,691.14885 349.6875,689.28125 L 349.6875,628.96875 C 349.68761,627.24277 350.9556,625.79985 352.625,625.59375 z M 535.75,625.59375 C 535.76588,625.59385 535.79655,625.59348 535.8125,625.59375 C 535.81622,625.59366 535.84041,625.59407 535.84375,625.59375 C 535.84748,625.59367 535.871,625.59375 535.875,625.59375 C 535.88742,625.59417 535.9263,625.59395 535.9375,625.59375 C 535.94408,625.59387 535.96615,625.59385 535.96875,625.59375 C 535.99988,625.59367 536.0309,625.59495 536.0625,625.59375 C 536.10598,625.59217 536.17495,625.59365 536.21875,625.59375 L 705.875,625.59375 C 707.74272,625.59377 709.25,627.10095 709.25,628.96875 L 709.25,689.28125 C 709.25002,691.14897 707.7425,692.65615 705.875,692.65625 L 536.21875,692.65625 C 534.35118,692.65637 532.84375,691.14885 532.84375,689.28125 L 532.84375,628.96875 C 532.84388,627.24277 534.0836,625.79985 535.75,625.59375 z M 719,625.59375 C 719.01585,625.59381 719.04661,625.59352 719.0625,625.59375 C 719.06624,625.59368 719.09034,625.594 719.09375,625.59375 C 719.10026,625.59382 719.12235,625.59385 719.125,625.59375 C 719.15612,625.59367 719.18705,625.59495 719.21875,625.59375 C 719.26218,625.59217 719.29995,625.59365 719.34375,625.59375 L 889,625.59375 C 890.86782,625.59377 892.375,627.10095 892.375,628.96875 L 892.375,689.28125 C 892.37502,691.14897 890.8677,692.65615 889,692.65625 L 719.34375,692.65625 C 717.47618,692.65637 715.96875,691.14885 715.96875,689.28125 L 715.96875,628.96875 C 715.96888,627.21537 717.2918,625.76325 719,625.59375 z "
     style="opacity:1;color:#000000;fill:#91625a;fill-opacity:1;fill-rule:evenodd;stroke:none;stroke-width:10.00000095;stroke-linecap:round;stroke-linejoin:round;marker:none;marker-start:none;marker-mid:none;marker-end:none;stroke-miterlimit:4;stroke-dashoffset:0;stroke-opacity:1"
     id="path7035" />
  <path
     d="M 528.75,32.34375 L 528.75,105.3125 L 712.375,105.3125 L 712.375,32.34375 L 528.75,32.34375 z M 0,179.96875 L 0,252.9375 L 165.375,252.9375 L 165.375,179.96875 L 0,179.96875 z M 477.75,401.4375 L 477.75,474.40625 L 661.375,474.40625 L 661.375,401.4375 L 477.75,401.4375 z M 112.75,696.71875 L 112.75,725 L 294.375,725 L 294.375,696.71875 L 112.75,696.71875 z "
     style="opacity:1;color:#000000;fill:#9c584b;fill-opacity:1;fill-rule:evenodd;stroke:none;stroke-width:2;stroke-linecap:square;stroke-linejoin:round;marker:none;marker-start:none;marker-mid:none;marker-end:none;stroke-miterlimit:4;stroke-dashoffset:0;stroke-opacity:1;visibility:visible;display:inline;overflow:visible"
     id="path7037" />
  <g
     id="layer1" />
  <path
     d="M 579.16809,43.374188 L 575.63256,122.0138 L 131.16538,123.78157 L 124.09431,37.464285 L 579.16809,43.374188 z "
     style="fill:#464646;fill-opacity:1;fill-rule:evenodd;stroke:none;stroke-width:5;stroke-linecap:round;stroke-linejoin:round;stroke-miterlimit:4;stroke-opacity:1"
     id="path2140" />
  <path
     d="M 0,31.625 L 0,41.625 L 1000,48.25 L 1000,38.25 L 0,31.625 z "
     style="fill:#464646;fill-opacity:1;fill-rule:evenodd;stroke:none;stroke-width:10;stroke-linecap:butt;stroke-linejoin:miter;stroke-miterlimit:4;stroke-opacity:1"
     id="path2142" />
  <path
     d="M 569.16809,33.374188 L 565.63256,112.0138 L 121.16538,113.78157 L 114.09431,27.464285 L 569.16809,33.374188 z "
     style="fill:#e1e1e1;fill-opacity:1;fill-rule:evenodd;stroke:#7f7f7f;stroke-width:5;stroke-linecap:round;stroke-linejoin:round;stroke-miterlimit:4;stroke-opacity:1"
     id="path2144" />
  <path
     d="M 0,24.125 L 0,34.125 L 1000,40.75 L 1000,30.75 L 0,24.125 z "
     style="fill:#7f7f7f;fill-opacity:1;fill-rule:evenodd;stroke:none;stroke-width:10;stroke-linecap:butt;stroke-linejoin:miter;stroke-miterlimit:4;stroke-opacity:1"
     id="path2146" />
  <g
     transform="translate(90.75,7.5)"
     style="fill:#c84d1d;fill-opacity:1"
     id="g2148">
    <path
       d="M 182.8125,241.875 L 156.90625,267.8125 L 179.53125,303.71875 C 175.7139,310.33399 172.67296,317.43534 170.46875,324.90625 L 129.5625,335.46875 L 129.5625,368.5625 L 170.6875,381.4375 C 172.80792,388.39718 175.69213,395.00503 179.21875,401.21875 L 155.46875,433.34375 L 182.8125,460.6875 L 213.34375,436.53125 C 220.78782,441.12382 228.85519,444.75868 237.4375,447.25 L 246.875,490.9375 L 281.4375,490.9375 L 288.75,448.21875 C 297.41254,446.05182 305.60304,442.70007 313.1875,438.40625 L 345.5,462.125 L 371.40625,433.34375 L 366.07582,419.12039 L 349.85707,425.96414 L 329.90625,400.21875 C 315.23305,420.26336 291.59736,433.34375 264.875,433.34375 C 220.37511,433.34375 184.25,397.21864 184.25,352.71875 C 184.25,321.16303 202.47047,293.91634 228.90625,280.6875 L 228.90625,261.125 C 225.03054,262.64969 221.30617,264.45493 217.6875,266.4375 L 182.8125,241.875 z "
       transform="matrix(0.219067,0,0,0.213405,17.39984,-8.559191)"
       style="fill-rule:evenodd;stroke:none;stroke-width:1pt;stroke-linecap:butt;stroke-linejoin:miter;stroke-opacity:1"
       id="path2150" />
    <path
       d="M 237.17711,215.20644 L 237.17711,413.19334 L 288.58245,409.6306 L 289.09141,325.65158 L 352.20292,417.26505 L 404.11722,399.96029 L 339.47882,309.8737 L 339.47882,308.85577 L 402.08137,226.40364 L 349.14914,209.09888 L 286.03763,297.14961 L 288.53763,209.60784 L 237.17711,215.20644 z "
       transform="matrix(0.219067,0,0,0.213405,17.39984,-8.559191)"
       style="fill-rule:evenodd;stroke:none;stroke-width:1pt;stroke-linecap:butt;stroke-linejoin:miter;stroke-opacity:1"
       id="path2152" />
  </g>
  <path
     d="M 390.46725,55.805791 L 385.95287,85.037214 C 385.40626,88.576177 384.41496,91.522077 382.97898,93.874787 C 381.54286,96.227535 379.77127,98.051685 377.66421,99.347235 C 375.55343,100.66607 373.21999,101.49759 370.66387,101.84185 C 368.1274,102.21295 365.45052,102.18095 362.63335,101.74588 C 360.42151,101.40429 358.05668,100.74108 355.5389,99.756335 C 353.04444,98.775135 350.96295,97.512055 349.2945,95.967115 C 347.64935,94.425847 346.97417,92.700557 347.26902,90.791387 C 347.45599,89.580657 348.11932,88.526977 349.25898,87.63027 C 350.39511,86.756831 351.53355,86.408253 352.67443,86.584445 C 353.48927,86.710286 354.61917,87.266192 356.06405,88.252147 C 357.53224,89.241707 358.74978,90.001857 359.71666,90.532587 C 360.70684,91.066907 362.12162,91.476107 363.961,91.760177 C 367.29041,92.274357 369.79644,91.791267 371.47923,90.310957 C 373.18161,88.857517 374.28814,86.477735 374.79872,83.171629 L 374.65902,83.150054 C 372.23053,85.754759 368.62978,86.68855 363.85683,85.951436 C 360.41101,85.419278 357.60419,84.068042 355.43634,81.897723 C 353.2721,79.704111 351.80315,77.021956 351.02941,73.851195 C 350.28259,70.660731 350.18058,67.307677 350.72354,63.791956 C 351.29165,60.113326 352.57335,56.83093 354.56852,53.944681 C 356.59058,51.038916 359.05553,48.892709 361.96337,47.506268 C 364.87475,46.096504 367.91368,45.636162 371.08014,46.125117 C 373.19888,46.452386 374.95291,47.057022 376.34239,47.939037 C 377.75505,48.824702 378.98119,50.146389 380.02086,51.904044 C 380.58736,51.014211 381.36695,50.288373 382.35959,49.726453 C 383.35576,49.141339 384.49412,48.947694 385.77472,49.145404 C 387.40446,49.397155 388.65692,50.162693 389.53212,51.442019 C 390.41076,52.698141 390.72248,54.152729 390.46725,55.805791 M 377.16109,67.874862 C 377.58179,65.150785 377.25532,62.788116 376.18187,60.786762 C 375.11188,58.762193 373.37786,57.564737 370.97978,57.194327 C 368.60492,56.827623 366.59039,57.44617 364.9363,59.050044 C 363.30539,60.657546 362.28142,62.81172 361.86432,65.512492 C 361.58386,67.328553 361.62942,69.04003 362.00111,70.646865 C 362.37632,72.230445 363.05798,73.527672 364.04611,74.538409 C 365.05748,75.552795 366.37813,76.185829 368.00794,76.43753 C 369.61438,76.685621 371.05278,76.478685 372.32312,75.816676 C 373.61668,75.158313 374.666,74.152271 375.47103,72.798631 C 376.30283,71.425316 376.86624,69.784088 377.16109,67.874862"
     style="font-size:12px;font-style:normal;font-variant:normal;font-weight:bold;font-stretch:normal;writing-mode:lr-tb;text-anchor:start;fill:#7f42c0;fill-opacity:1;stroke:none;stroke-width:1pt;stroke-linecap:butt;stroke-linejoin:miter;stroke-opacity:1;font-family:VAG Rounded Black SSi"
     id="path1366" />
  <path
     d="M 253.72044,84.179261 L 257.03147,56.459235 C 257.22985,54.798391 257.90936,53.479704 259.06998,52.503164 C 260.25675,51.506121 261.66887,51.105364 263.3063,51.300887 C 264.66305,51.463005 265.78941,51.96526 266.68526,52.807756 C 267.60731,53.629755 268.20991,54.543998 268.49299,55.550546 C 270.66129,52.891273 274.0496,51.836792 278.65791,52.387174 C 281.30122,52.702966 283.6183,53.466134 285.60911,54.676663 C 287.62322,55.890036 289.10802,57.562179 290.06362,59.692975 C 291.04528,61.803267 291.35729,64.355497 290.99964,67.349733 L 288.49332,88.332728 C 288.29214,90.016986 287.59817,91.357702 286.41139,92.35481 C 285.22462,93.35191 283.81249,93.75267 282.17501,93.55708 C 280.53752,93.36149 279.26091,92.62773 278.34522,91.355736 C 277.42943,90.083742 277.06935,88.629038 277.26494,86.991548 L 279.40245,69.096324 C 279.64553,67.0612 279.29137,65.358115 278.34005,63.986937 C 277.41485,62.595254 275.9815,61.783435 274.03993,61.551463 C 272.12176,61.322406 270.53752,61.773787 269.28716,62.90561 C 268.03685,64.037499 267.29151,65.609325 267.05122,67.621025 L 264.91372,85.516249 C 264.71533,87.177153 264.02136,88.517809 262.8318,89.538327 C 261.66843,90.538226 260.25631,90.938987 258.5954,90.7406 C 256.95798,90.545017 255.67997,89.822931 254.76143,88.574357 C 253.86905,87.305161 253.52205,85.840165 253.72044,84.179261"
     style="font-size:12px;font-style:normal;font-variant:normal;font-weight:bold;font-stretch:normal;writing-mode:lr-tb;text-anchor:start;fill:#55b636;fill-opacity:1;stroke:none;stroke-width:1pt;stroke-linecap:butt;stroke-linejoin:miter;stroke-opacity:1;font-family:VAG Rounded Black SSi"
     id="path1367" />
  <path
     d="M 239.76409,53.539149 L 242.58354,81.313481 C 242.75485,83.001038 242.37026,84.460903 241.42975,85.693009 C 240.48917,86.925121 239.19857,87.624449 237.55794,87.790994 C 236.2688,87.921859 235.14323,87.680943 234.18124,87.068185 C 233.2426,86.453057 232.5007,85.675931 231.95549,84.736681 C 230.84678,86.412141 229.55235,87.656473 228.07204,88.469743 C 226.61754,89.304166 224.8356,89.828411 222.72617,90.042545 C 219.51511,90.36851 216.49372,89.763548 213.66196,88.227606 C 210.85129,86.665942 208.51312,84.393253 206.64732,81.409551 C 204.80266,78.399993 203.68999,75.020185 203.30931,71.270057 C 202.93338,67.566849 203.34774,64.06755 204.55235,60.772092 C 205.77813,57.450975 207.62365,54.753517 210.08893,52.679926 C 212.55189,50.58286 215.37713,49.37257 218.56479,49.048921 C 220.69762,48.832471 222.54743,48.976227 224.1141,49.48019 C 225.70417,49.981847 227.22352,50.952424 228.67207,52.391869 C 228.99634,51.388118 229.56817,50.489451 230.38746,49.695811 C 231.20432,48.878836 232.25732,48.404946 233.54646,48.274021 C 235.18709,48.107536 236.5919,48.533246 237.76088,49.55115 C 238.92743,50.545721 239.59516,51.875052 239.76409,53.539149 M 221.25323,59.787149 C 218.86251,60.029898 217.06854,61.135501 215.87126,63.104024 C 214.69738,65.070222 214.24847,67.412757 214.52452,70.131568 C 214.70053,71.86605 215.16946,73.452343 215.9311,74.890474 C 216.69038,76.305265 217.68826,77.387942 218.92479,78.138567 C 220.18472,78.886878 221.6116,79.180071 223.20544,79.018276 C 225.61956,78.773211 227.41354,77.667608 228.58741,75.7014 C 229.75886,73.711809 230.2042,71.334105 229.92344,68.568378 C 229.64507,65.826101 228.73457,63.621624 227.19196,61.954827 C 225.64691,60.264685 223.66736,59.542144 221.25323,59.787149"
     style="font-size:12px;font-style:normal;font-variant:normal;font-weight:bold;font-stretch:normal;writing-mode:lr-tb;text-anchor:start;fill:#c38823;fill-opacity:1;stroke:none;stroke-width:1pt;stroke-linecap:butt;stroke-linejoin:miter;stroke-opacity:1;font-family:VAG Rounded Black SSi"
     id="path1368" />
  <path
     d="M 486.72567,90.535822 L 486.72567,62.618748 C 486.72567,60.946098 487.24391,59.556128 488.28052,58.448828 C 489.34067,57.318068 490.6953,56.752658 492.34441,56.752598 C 493.71081,56.752658 494.88874,57.117778 495.87818,57.848078 C 496.89122,58.554918 497.59799,59.391238 497.99852,60.357108 C 498.91729,58.943618 500.24834,57.871658 501.99172,57.141298 C 503.73506,56.387478 505.64327,56.010538 507.71644,56.010478 C 509.62472,56.010538 511.53295,56.387478 513.44123,57.141298 C 515.34945,57.871658 516.93972,59.049638 518.2119,60.675128 C 520.14371,59.214528 521.8988,58.071948 523.4773,57.247328 C 525.0792,56.422818 526.96391,56.010538 529.13139,56.010478 C 531.79344,56.010538 534.18469,56.493508 536.30501,57.459378 C 538.4488,58.425308 540.12146,59.909548 541.32302,61.911968 C 542.54804,63.890938 543.16056,66.388148 543.16061,69.403668 L 543.16061,90.535822 C 543.16056,92.208532 542.63049,93.622032 541.57041,94.776432 C 540.53374,95.907255 539.17911,96.472665 537.50652,96.472665 C 535.85733,96.472665 534.5027,95.907255 533.44262,94.776432 C 532.40601,93.622032 531.8877,92.208532 531.88777,90.535822 L 531.88777,72.513388 C 531.8877,70.581588 531.38115,68.956038 530.36819,67.636758 C 529.37868,66.317468 528.00052,65.657848 526.23367,65.657788 C 524.4667,65.657848 523.07671,66.317468 522.06375,67.636758 C 521.07424,68.956038 520.57951,70.581588 520.57956,72.513388 L 520.57956,90.535822 C 520.57951,92.208532 520.04943,93.622032 518.98936,94.776432 C 517.95269,95.907255 516.59811,96.472665 514.92546,96.472665 C 513.27628,96.472665 511.92172,95.907255 510.86157,94.776432 C 509.82496,93.622032 509.30665,92.208532 509.30672,90.535822 L 509.30672,72.513388 C 509.30665,70.581588 508.80017,68.956038 507.78713,67.636758 C 506.79769,66.317468 505.41947,65.657848 503.65261,65.657788 C 501.88564,65.657848 500.49573,66.317468 499.48269,67.636758 C 498.49325,68.956038 497.99845,70.581588 497.99852,72.513388 L 497.99852,90.535822 C 497.99845,92.208532 497.46838,93.622032 496.40826,94.776432 C 495.3717,95.907255 494.01707,96.472665 492.34441,96.472665 C 490.6953,96.472665 489.34067,95.907255 488.28052,94.776432 C 487.24391,93.622032 486.72567,92.208532 486.72567,90.535822"
     style="font-size:12px;font-style:normal;font-variant:normal;font-weight:bold;font-stretch:normal;writing-mode:lr-tb;text-anchor:start;fill:#843256;fill-opacity:1;stroke:none;stroke-width:1pt;stroke-linecap:butt;stroke-linejoin:miter;stroke-opacity:1;font-family:VAG Rounded Black SSi"
     id="path1369" />
  <path
     d="M 403.97905,91.078922 L 401.50623,63.271581 C 401.35807,61.605506 401.75122,60.175089 402.68563,58.980325 C 403.64143,57.760106 404.94065,57.076929 406.5833,56.930794 C 407.94432,56.809823 409.14996,57.069169 410.20027,57.708951 C 411.27193,58.323281 412.04995,59.093714 412.53445,60.02031 C 414.69477,56.919095 417.15943,55.245303 419.92845,54.999002 C 421.45378,54.86342 422.84035,55.295951 424.08829,56.296585 C 425.35758,57.271707 426.06842,58.615756 426.22075,60.328747 C 426.37726,62.088781 425.93952,63.416715 424.90757,64.312563 C 423.89907,65.206458 422.17172,66.128727 419.72557,67.079437 C 417.23241,68.034378 415.58903,69.102915 414.79543,70.285096 C 413.9997,71.443915 413.72704,73.431198 413.97745,76.247136 L 415.2076,90.080402 C 415.35577,91.746532 414.95298,93.201432 413.99927,94.445202 C 413.06689,95.663395 411.76767,96.346575 410.1016,96.494735 C 408.45895,96.640805 407.05956,96.197615 405.90343,95.165132 C 404.76869,94.107092 404.12722,92.745052 403.97905,91.078922"
     style="font-size:12px;font-style:normal;font-variant:normal;font-weight:bold;font-stretch:normal;writing-mode:lr-tb;text-anchor:start;fill:#be318a;fill-opacity:1;stroke:none;stroke-width:1pt;stroke-linecap:butt;stroke-linejoin:miter;stroke-opacity:1;font-family:VAG Rounded Black SSi"
     id="path1370" />
  <path
     d="M 337.33382,57.578524 L 338.56969,85.468229 C 338.64479,87.162795 338.17782,88.598435 337.16878,89.775075 C 336.15968,90.951725 334.83141,91.576545 333.18397,91.649555 C 331.88947,91.706915 330.77942,91.402395 329.85382,90.735935 C 328.95166,90.068445 328.25515,89.250395 327.76422,88.281665 C 326.56205,89.891385 325.19897,91.060115 323.67482,91.787915 C 322.17523,92.538295 320.36637,92.960385 318.24818,93.054245 C 315.02377,93.197125 312.04167,92.421375 309.30181,90.726925 C 306.58447,89.007995 304.37929,86.606055 302.68614,83.521098 C 301.01556,80.411535 300.09684,76.973936 299.92997,73.208231 C 299.76519,69.489641 300.37781,66.019558 301.76784,62.797914 C 303.18044,59.551857 305.17633,56.963683 307.75551,55.033602 C 310.33372,53.079951 313.22319,52.032239 316.42409,51.890338 C 318.56578,51.795494 320.40443,52.044182 321.93991,52.636398 C 323.49889,53.227642 324.9606,54.283028 326.32498,55.802498 C 326.70578,54.818805 327.32778,53.954102 328.19086,53.208323 C 329.05285,52.439109 330.13109,52.025851 331.42559,51.968428 C 333.07303,51.895485 334.45136,52.400372 335.56058,53.48309 C 336.6687,54.542372 337.25978,55.907514 337.33382,57.578524 M 318.4977,62.764041 C 316.09705,62.870481 314.24312,63.872305 312.93586,65.769577 C 311.6521,67.665857 311.07073,69.979082 311.19177,72.70919 C 311.26889,74.450873 311.64687,76.061259 312.32552,77.540365 C 313.00314,78.996035 313.93785,80.133691 315.12971,80.953402 C 316.34506,81.772132 317.75296,82.145972 319.35342,82.075051 C 321.77757,81.96763 323.6315,80.965805 324.91526,79.069515 C 326.19792,77.149741 326.77772,74.801201 326.65466,72.023986 C 326.53263,69.270318 325.74894,67.017643 324.30358,65.265841 C 322.85712,63.490594 320.92185,62.65668 318.4977,62.764041"
     style="font-size:12px;font-style:normal;font-variant:normal;font-weight:bold;font-stretch:normal;writing-mode:lr-tb;text-anchor:start;fill:#5173bc;fill-opacity:1;stroke:none;stroke-width:1pt;stroke-linecap:butt;stroke-linejoin:miter;stroke-opacity:1;font-family:VAG Rounded Black SSi"
     id="path1371" />
  <path
     d="M 474.08017,62.443132 L 471.0049,90.190309 C 470.81805,91.876219 470.1355,93.222779 468.95724,94.229939 C 467.77893,95.237089 466.37026,95.649825 464.73123,95.468175 C 463.44335,95.325435 462.39346,94.853559 461.58158,94.052469 C 460.79302,93.253959 460.23083,92.338379 459.895,91.305589 C 458.45921,92.710899 456.93235,93.655689 455.31428,94.140009 C 453.71699,94.650419 451.86471,94.788819 449.75734,94.555259 C 446.54941,94.199719 443.72241,92.973829 441.27628,90.877539 C 438.85618,88.760519 437.04733,86.047539 435.84963,82.738589 C 434.67802,79.408795 434.29983,75.870698 434.71505,72.124238 C 435.12509,68.42465 436.26496,65.090364 438.13468,62.121308 C 440.03047,59.131609 442.40125,56.881794 445.24697,55.372074 C 448.09535,53.838913 451.11173,53.248828 454.29629,53.601718 C 456.42703,53.837931 458.20541,54.366892 459.63134,55.188579 C 461.08063,56.012926 462.36231,57.280889 463.47633,58.992402 C 464.00412,58.079114 464.75191,57.320551 465.71957,56.716631 C 466.68976,56.089387 467.81879,55.847165 469.10669,55.989843 C 470.7457,56.171559 472.0298,56.88275 472.95899,58.123417 C 473.8907,59.34076 474.26442,60.780661 474.08017,62.443132 M 454.67006,64.66506 C 452.28167,64.400411 450.29554,65.104681 448.71161,66.777923 C 447.15105,68.453805 446.22028,70.649858 445.9193,73.366023 C 445.72719,75.098797 445.85258,76.748188 446.29528,78.314184 C 446.74056,79.856864 447.48886,81.124935 448.54021,82.118469 C 449.61494,83.114649 450.94844,83.700909 452.54072,83.877389 C 454.95249,84.144689 456.93861,83.440419 458.49917,81.764519 C 460.06226,80.065253 460.99693,77.834065 461.30316,75.071044 C 461.6068,72.331449 461.17948,69.984936 460.02124,68.031389 C 458.86552,66.054507 457.08181,64.93242 454.67006,64.66506"
     style="font-size:12px;font-style:normal;font-variant:normal;font-weight:bold;font-stretch:normal;writing-mode:lr-tb;text-anchor:start;fill:#0aa3b9;fill-opacity:1;stroke:none;stroke-width:1pt;stroke-linecap:butt;stroke-linejoin:miter;stroke-opacity:1;font-family:VAG Rounded Black SSi"
     id="path1372" />
  <path
     d="M 714.9085,25.939396 L 960.1973,25.939396 C 961.7504,25.939396 963.0006,27.048961 963.0006,28.427207 L 963.0006,640.80686 C 963.0006,642.18511 961.7504,643.29468 960.1973,643.29468 L 714.9085,643.29468 C 713.3555,643.29468 712.1052,642.18511 712.1052,640.80686 L 712.1052,28.427207 C 712.1052,27.048961 713.3555,25.939396 714.9085,25.939396 z "
     style="color:#000000;fill:#cccccc;fill-opacity:1;fill-rule:evenodd;stroke:#4f4f4f;stroke-width:7.49998331;stroke-linecap:round;stroke-linejoin:round;marker:none;marker-start:none;marker-mid:none;marker-end:none;stroke-miterlimit:4;stroke-dashoffset:0;stroke-opacity:1"
     id="path2170" />
  <path
     d="M 733.83089,184.29291 L 941.27513,184.29291 C 942.82816,184.29291 944.07843,185.21692 944.07843,186.36468 L 944.07843,306.61187 C 944.07843,307.75964 942.82816,308.68365 941.27513,308.68365 L 733.83089,308.68365 C 732.27786,308.68365 731.02759,307.75964 731.02759,306.61187 L 731.02759,186.36468 C 731.02759,185.21692 732.27786,184.29291 733.83089,184.29291 z "
     style="color:#000000;fill:#b3b3b3;fill-opacity:1;fill-rule:evenodd;stroke:#4f4f4f;stroke-width:7.49998331;stroke-linecap:round;stroke-linejoin:round;marker:none;marker-start:none;marker-mid:none;marker-end:none;stroke-miterlimit:4;stroke-dashoffset:0;stroke-opacity:1"
     id="rect2172" />
  <path
     d="M 733.83089,44.975296 L 941.27513,44.975296 C 942.82816,44.975296 944.07843,45.899307 944.07843,47.047069 L 944.07843,167.29426 C 944.07843,168.44202 942.82816,169.36604 941.27513,169.36604 L 733.83089,169.36604 C 732.27786,169.36604 731.02759,168.44202 731.02759,167.29426 L 731.02759,47.047069 C 731.02759,45.899307 732.27786,44.975296 733.83089,44.975296 z "
     style="color:#000000;fill:#b3b3b3;fill-opacity:1;fill-rule:evenodd;stroke:#4f4f4f;stroke-width:7.49998331;stroke-linecap:round;stroke-linejoin:round;marker:none;marker-start:none;marker-mid:none;marker-end:none;stroke-miterlimit:4;stroke-dashoffset:0;stroke-opacity:1"
     id="rect2174" />
  <path
     d="M 733.8309,462.92812 L 941.2751,462.92812 C 942.8282,462.92812 944.0784,463.85214 944.0784,464.9999 L 944.0784,585.2471 C 944.0784,586.39485 942.8282,587.31887 941.2751,587.31887 L 733.8309,587.31887 C 732.2779,587.31887 731.0276,586.39485 731.0276,585.2471 L 731.0276,464.9999 C 731.0276,463.85214 732.2779,462.92812 733.8309,462.92812 z "
     style="color:#000000;fill:#373737;fill-opacity:1;fill-rule:evenodd;stroke:#4f4f4f;stroke-width:7.49998331;stroke-linecap:round;stroke-linejoin:round;marker:none;marker-start:none;marker-mid:none;marker-end:none;stroke-miterlimit:4;stroke-dashoffset:0;stroke-opacity:1"
     id="rect2178" />
  <path
     d="M 733.83089,323.61053 L 941.27513,323.61053 C 942.82816,323.61053 944.07843,324.53455 944.07843,325.68231 L 944.07843,445.9295 C 944.07843,447.07726 942.82816,448.00127 941.27513,448.00127 L 733.83089,448.00127 C 732.27786,448.00127 731.02759,447.07726 731.02759,445.9295 L 731.02759,325.68231 C 731.02759,324.53455 732.27786,323.61053 733.83089,323.61053 z "
     style="color:#000000;fill:#b3b3b3;fill-opacity:1;fill-rule:evenodd;stroke:#4f4f4f;stroke-width:7.49998331;stroke-linecap:round;stroke-linejoin:round;marker:none;marker-start:none;marker-mid:none;marker-end:none;stroke-miterlimit:4;stroke-dashoffset:0;stroke-opacity:1"
     id="rect2184" />
  <path
     d="M 787.0564,401.17257 C 787.6314,412.83778 795.1311,421.34516 803.9405,426.63436 C 813.1061,432.13746 824.7669,435.13824 837.5633,435.13825 C 850.3597,435.13825 862.0205,432.13746 871.1861,426.63436 C 879.9955,421.34516 887.4759,412.83779 888.0494,401.17257 L 871.2277,401.17257 C 870.5501,403.07445 868.5309,405.93392 863.7513,408.80362 C 857.607,412.49273 848.1124,415.18778 837.5633,415.18778 C 827.0142,415.18778 817.5196,412.49273 811.3753,408.80362 C 806.5957,405.93392 804.5613,403.07445 803.8782,401.17257 L 787.0564,401.17257 z "
     style="color:#000000;fill:#7f7f7f;fill-opacity:1;fill-rule:evenodd;stroke:none;stroke-width:25;stroke-linecap:round;stroke-linejoin:round;marker:none;marker-start:none;marker-mid:none;marker-end:none;stroke-miterlimit:4;stroke-dashoffset:0;stroke-opacity:1"
     id="path2188" />
  <path
     d="M 787.0564,261.8549 C 787.6314,273.52012 795.1311,282.0275 803.9405,287.3167 C 813.1061,292.81981 824.7669,295.82058 837.5633,295.82059 C 850.3597,295.82059 862.0205,292.81981 871.1861,287.3167 C 879.9955,282.0275 887.4759,273.52013 888.0494,261.8549 L 871.2277,261.8549 C 870.5501,263.75679 868.5309,266.61625 863.7513,269.48596 C 857.607,273.17507 848.1124,275.87012 837.5633,275.87012 C 827.0142,275.87012 817.5196,273.17507 811.3753,269.48596 C 806.5957,266.61625 804.5613,263.75679 803.8782,261.8549 L 787.0564,261.8549 z "
     style="color:#000000;fill:#7f7f7f;fill-opacity:1;fill-rule:evenodd;stroke:none;stroke-width:25;stroke-linecap:round;stroke-linejoin:round;marker:none;marker-start:none;marker-mid:none;marker-end:none;stroke-miterlimit:4;stroke-dashoffset:0;stroke-opacity:1"
     id="path2190" />
  <path
     d="M 787.0564,122.5373 C 787.6314,134.20252 795.1311,142.7099 803.9405,147.99909 C 813.1061,153.50219 824.7669,156.50298 837.5633,156.50299 C 850.3597,156.50299 862.0205,153.50219 871.1861,147.99909 C 879.9955,142.7099 887.4759,134.20253 888.0494,122.5373 L 871.2277,122.5373 C 870.5501,124.43919 868.5309,127.29865 863.7513,130.16835 C 857.607,133.85746 848.1124,136.5525 837.5633,136.5525 C 827.0142,136.5525 817.5196,133.85746 811.3753,130.16835 C 806.5957,127.29865 804.5613,124.43919 803.8782,122.5373 L 787.0564,122.5373 z "
     style="color:#000000;fill:#7f7f7f;fill-opacity:1;fill-rule:evenodd;stroke:none;stroke-width:25;stroke-linecap:round;stroke-linejoin:round;marker:none;marker-start:none;marker-mid:none;marker-end:none;stroke-miterlimit:4;stroke-dashoffset:0;stroke-opacity:1"
     id="path2192" />
  <path
     d="M 706.24319,528.19983 L 968.86274,528.19983 C 970.82884,528.19983 972.41165,529.3696 972.41165,530.82264 L 972.41165,683.05274 C 972.41165,684.50578 970.82884,685.67555 968.86274,685.67555 L 706.24319,685.67555 C 704.27709,685.67555 702.69427,684.50578 702.69427,683.05274 L 702.69427,530.82264 C 702.69427,529.3696 704.27709,528.19983 706.24319,528.19983 z "
     style="color:#000000;fill:#b3b3b3;fill-opacity:1;fill-rule:evenodd;stroke:#4f4f4f;stroke-width:7.49997854;stroke-linecap:round;stroke-linejoin:round;marker:none;marker-start:none;marker-mid:none;marker-end:none;stroke-miterlimit:4;stroke-dashoffset:0;stroke-opacity:1"
     id="rect2180" />
  <path
     d="M 697.69546,538.21259 L 977.41065,538.21259 C 979.50473,538.21259 981.19058,539.45851 981.19058,541.00614 L 981.19058,703.14587 C 981.19058,704.6935 979.50473,705.93942 977.41065,705.93942 L 697.69546,705.93942 C 695.60138,705.93942 693.91553,704.6935 693.91553,703.14587 L 693.91553,541.00614 C 693.91553,539.45851 695.60138,538.21259 697.69546,538.21259 z "
     style="color:#000000;fill:#b3b3b3;fill-opacity:1;fill-rule:evenodd;stroke:#4f4f4f;stroke-width:7.49998283;stroke-linecap:round;stroke-linejoin:round;marker:none;marker-start:none;marker-mid:none;marker-end:none;stroke-miterlimit:4;stroke-dashoffset:0;stroke-opacity:1"
     id="rect2182" />
  <path
     d="M 767.9246,634.94345 C 768.7176,651.02833 779.0587,662.75893 791.2057,670.05206 C 803.8439,677.64013 819.9226,681.77784 837.5673,681.77785 C 855.212,681.77785 871.2907,677.64013 883.9289,670.05206 C 896.0759,662.75893 906.3905,651.02834 907.1813,634.94345 L 883.9862,634.94345 C 883.0519,637.56592 880.2677,641.50875 873.6772,645.46572 C 865.205,650.55253 852.1132,654.26866 837.5673,654.26866 C 823.0214,654.26865 809.9296,650.55253 801.4573,645.46572 C 794.8669,641.50875 792.0618,637.56592 791.1198,634.94345 L 767.9246,634.94345 z "
     style="color:#000000;fill:#7f7f7f;fill-opacity:1;fill-rule:evenodd;stroke:none;stroke-width:25;stroke-linecap:round;stroke-linejoin:round;marker:none;marker-start:none;marker-mid:none;marker-end:none;stroke-miterlimit:4;stroke-dashoffset:0;stroke-opacity:1"
     id="path2186" />
  <path
     d="M 33.758348,149.77388 L 657.00405,149.77388 C 657.75112,149.77388 658.35255,150.37531 658.35255,151.12238 L 658.35255,594.54682 C 658.35255,595.29389 657.75112,595.89532 657.00405,595.89532 L 33.758348,595.89532 C 33.011275,595.89532 32.409842,595.29389 32.409842,594.54682 L 32.409842,151.12238 C 32.409842,150.37531 33.011275,149.77388 33.758348,149.77388 z "
     style="color:#000000;fill:#a55229;fill-opacity:1;fill-rule:evenodd;stroke:#7f4224;stroke-width:7.50000048;stroke-linecap:round;stroke-linejoin:round;marker:none;marker-start:none;marker-mid:none;marker-end:none;stroke-miterlimit:4;stroke-dashoffset:0;stroke-opacity:1"
     id="rect1117" />
  <path
     d="M 62.135291,179.73883 L 628.62711,179.73883 C 629.27382,179.73883 629.79446,180.25947 629.79446,180.90619 L 629.79446,564.76301 C 629.79446,565.40973 629.27382,565.93037 628.62711,565.93037 L 62.135291,565.93037 C 61.488577,565.93037 60.967937,565.40973 60.967937,564.76301 L 60.967937,180.90619 C 60.967937,180.25947 61.488577,179.73883 62.135291,179.73883 z "
     style="color:#000000;fill:#2d2d2d;fill-opacity:1;fill-rule:evenodd;stroke:#7f4224;stroke-width:4.99999762;stroke-linecap:round;stroke-linejoin:round;marker:none;marker-start:none;marker-mid:none;marker-end:none;stroke-miterlimit:4;stroke-dashoffset:0;stroke-opacity:1"
     id="rect1739" />
  <path
     d="M 62.335687,180.32562 L 32.803895,150.79382"
     style="fill:none;fill-opacity:0.75;fill-rule:evenodd;stroke:#7f4224;stroke-width:5.00000095;stroke-linecap:butt;stroke-linejoin:round;stroke-miterlimit:4;stroke-opacity:1"
     id="path1742" />
  <path
     d="M 629.5178,180.32562 L 659.04959,150.79382"
     style="fill:none;fill-opacity:0.75;fill-rule:evenodd;stroke:#7f4224;stroke-width:5.00000095;stroke-linecap:butt;stroke-linejoin:round;stroke-miterlimit:4;stroke-opacity:1"
     id="path2987" />
  <path
     d="M 62.335687,565.45938 L 32.803895,594.99117"
     style="fill:none;fill-opacity:0.75;fill-rule:evenodd;stroke:#7f4224;stroke-width:5.00000095;stroke-linecap:butt;stroke-linejoin:round;stroke-miterlimit:4;stroke-opacity:1"
     id="path2988" />
  <path
     d="M 629.5178,565.45941 L 659.04959,594.9912"
     style="fill:none;fill-opacity:0.75;fill-rule:evenodd;stroke:#7f4224;stroke-width:5.00000095;stroke-linecap:butt;stroke-linejoin:round;stroke-miterlimit:4;stroke-opacity:1"
     id="path2989" />
  <path
     d="M 35.539352,611.91216 L 655.22304,611.91216 L 655.22304,631.12969 L 35.539352,631.12969 L 35.539352,611.91216 z "
     style="color:#000000;fill:#fb9660;fill-opacity:1;fill-rule:evenodd;stroke:#6b3d27;stroke-width:7.50000048;stroke-linecap:round;stroke-linejoin:round;marker:none;marker-start:none;marker-mid:none;marker-end:none;stroke-miterlimit:4;stroke-dashoffset:0;stroke-opacity:1"
     id="path1073" />
  <path
     d="M 18.683027,593.3702 L 672.07937,593.3702 L 655.22304,612.58774 L 35.539352,612.58774 L 18.683027,593.3702 z "
     style="color:#000000;fill:#f18347;fill-opacity:1;fill-rule:evenodd;stroke:#6b3d27;stroke-width:7.50000048;stroke-linecap:round;stroke-linejoin:round;marker:none;marker-start:none;marker-mid:none;marker-end:none;stroke-miterlimit:4;stroke-dashoffset:0;stroke-opacity:1"
     id="rect1697" />
  <g
     transform="matrix(0.628274,0,0,0.628274,145.0612,254.0232)"
     id="g4820">
    <path
       d="M 127.92325,531.3083 L 26.58465,531.3083 C 13.825199,531.3083 3.5531501,523.60463 3.5531501,514.03549 C 3.5531501,504.46636 13.825199,496.7627 26.58465,496.7627 L 127.92325,496.7627"
       style="color:#000000;fill:#e1e1e1;fill-opacity:1;fill-rule:evenodd;stroke:#b3b3b3;stroke-width:7.95831203;stroke-linecap:round;stroke-linejoin:round;marker:none;marker-start:none;marker-mid:none;marker-end:none;stroke-miterlimit:4;stroke-dashoffset:0;stroke-opacity:1"
       id="rect4197" />
    <path
       d="M 145.19688,514.03549 C 145.19688,523.57053 137.45829,531.30912 127.92325,531.30912 C 118.38821,531.30912 110.64963,523.57053 110.64963,514.03549 C 110.64963,504.50045 118.38821,496.76187 127.92325,496.76187 C 137.45829,496.76187 145.19688,504.50045 145.19688,514.03549 z "
       style="color:#000000;fill:#c7c7c7;fill-opacity:1;fill-rule:evenodd;stroke:#b3b3b3;stroke-width:7.95831203;stroke-linecap:round;stroke-linejoin:round;marker:none;marker-start:none;marker-mid:none;marker-end:none;stroke-miterlimit:4;stroke-dashoffset:0;stroke-opacity:1"
       id="path4193" />
  </g>
</svg>
