<?xml version="1.0" encoding="UTF-8" standalone="no"?>
<!-- Created with Inkscape (http://www.inkscape.org/) -->
<svg
   xmlns:dc="http://purl.org/dc/elements/1.1/"
   xmlns:cc="http://web.resource.org/cc/"
   xmlns:rdf="http://www.w3.org/1999/02/22-rdf-syntax-ns#"
   xmlns:svg="http://www.w3.org/2000/svg"
   xmlns="http://www.w3.org/2000/svg"
   xmlns:sodipodi="http://inkscape.sourceforge.net/DTD/sodipodi-0.dtd"
   xmlns:inkscape="http://www.inkscape.org/namespaces/inkscape"
   version="1.0"
   width="1000"
   height="725"
   id="svg1"
   sodipodi:version="0.32"
   inkscape:version="0.43"
   sodipodi:docname="bg_illusion.svg"
   sodipodi:docbase="/home/danny/work/kde/EDU/kanagram/kde4">
  <metadata
     id="metadata46">
    <rdf:RDF>
      <cc:Work
         rdf:about="">
        <dc:format>image/svg+xml</dc:format>
        <dc:type
           rdf:resource="http://purl.org/dc/dcmitype/StillImage" />
      </cc:Work>
    </rdf:RDF>
  </metadata>
  <sodipodi:namedview
     inkscape:cy="319.13365"
     inkscape:cx="670.55319"
     inkscape:zoom="0.55301729"
     inkscape:window-height="712"
     inkscape:window-width="1024"
     inkscape:pageshadow="2"
     inkscape:pageopacity="0.0"
     borderopacity="1.0"
     bordercolor="#666666"
     pagecolor="#ffffff"
     id="base"
     inkscape:window-x="0"
     inkscape:window-y="0"
     inkscape:current-layer="svg1" />
  <defs
     id="defs3" />
  <path
     d="M 528.75,32.34375 L 528.75,105.3125 L 712.375,105.3125 L 712.375,32.34375 L 528.75,32.34375 z M 0,179.96875 L 0,252.9375 L 165.375,252.9375 L 165.375,179.96875 L 0,179.96875 z M 112.75,696.71875 L 112.75,725 L 294.375,725 L 294.375,696.71875 L 112.75,696.71875 z "
     style="opacity:1;color:#000000;fill:#9c584b;fill-opacity:1;fill-rule:evenodd;stroke:none;stroke-width:2;stroke-linecap:square;stroke-linejoin:round;marker:none;marker-start:none;marker-mid:none;marker-end:none;stroke-miterlimit:4;stroke-dashoffset:0;stroke-opacity:1;visibility:visible;display:inline;overflow:visible"
     id="path7037"
     sodipodi:nodetypes="ccccccccccccccc" />
  <path
     d="M 844.75,106.15625 L 844.75,179.125 L 1000,179.125 L 1000,106.15625 L 844.75,106.15625 z "
     style="opacity:1;color:#000000;fill:#bd6556;fill-opacity:1;fill-rule:evenodd;stroke:none;stroke-width:2;stroke-linecap:square;stroke-linejoin:round;marker:none;marker-start:none;marker-mid:none;marker-end:none;stroke-miterlimit:4;stroke-dashoffset:0;stroke-opacity:1;visibility:visible;display:inline;overflow:visible"
     id="path6123"
     sodipodi:nodetypes="ccccc" />
  <path
     d="M 0,0 L 0,179.96875 L 165.375,179.96875 L 165.375,252.9375 L 0,252.9375 L 0,725 L 112.75,725 L 112.75,696.71875 L 294.375,696.71875 L 294.375,725 L 1000,725 L 1000,179.125 L 844.75,179.125 L 844.75,106.15625 L 1000,106.15625 L 1000,0 L 0,0 z M 528.75,32.34375 L 712.375,32.34375 L 712.375,105.3125 L 528.75,105.3125 L 528.75,32.34375 z M 661.375,401.4375 L 661.375,474.40625 L 661.375,401.4375 z "
     style="opacity:1;color:#000000;fill:#bb4c3a;fill-opacity:1;fill-rule:evenodd;stroke:none;stroke-width:2;stroke-linecap:square;stroke-linejoin:round;marker:none;marker-start:none;marker-mid:none;marker-end:none;stroke-miterlimit:4;stroke-dashoffset:0;stroke-opacity:1;visibility:visible;display:inline;overflow:visible"
     id="path7033"
     sodipodi:nodetypes="ccccccccccccccccccccccccc" />
  <g
     id="layer1" />
  <path
     style="opacity:1;color:#000000;fill:#91625a;fill-opacity:1;fill-rule:evenodd;stroke:none;stroke-width:10.00000095;stroke-linecap:round;stroke-linejoin:round;marker:none;marker-start:none;marker-mid:none;marker-end:none;stroke-miterlimit:4;stroke-dashoffset:0;stroke-opacity:1"
     d="M 109.21875,0 L 109.21875,28.625 L 0,28.625 L 0,35.375 L 156.4375,35.375 L 156.4375,102.40625 L 0,102.40625 L 0,109.15625 L 105.84375,109.15625 C 107.71155,109.15625 109.21875,110.66345 109.21875,112.53125 L 109.21875,176.1875 L 0,176.1875 L 0,182.9375 L 156.4375,182.9375 L 156.4375,249.96875 L 0,249.96875 L 0,256.71875 L 105.84375,256.71875 L 105.84375,323.75 L 0,323.75 L 0,330.5 L 156.4375,330.5 L 156.4375,397.53125 L 0,397.53125 L 0,404.28125 L 105.84375,404.28125 L 105.84375,471.3125 L 0,471.3125 L 0,478.0625 L 156.4375,478.0625 L 156.4375,545.09375 L 0,545.09375 L 0,551.8125 L 105.84375,551.8125 L 105.84375,618.875 L 0,618.875 L 0,625.59375 L 156.4375,625.59375 C 158.3054,625.59377 159.8125,627.10095 159.8125,628.96875 L 159.8125,689.28125 C 159.8126,691.14897 158.3053,692.65615 156.4375,692.65625 L 0,692.65625 L 0,699.375 L 105.84375,699.375 C 107.71155,699.37501 109.21875,700.8822 109.21875,702.75 L 109.21875,725 L 115.96875,725 L 115.96875,702.75 C 115.96865,701.03823 119.10853,699.4709 119.34375,699.375 L 289,699.375 C 290.86749,699.37501 292.375,700.8822 292.375,702.75 L 292.375,725 L 299.125,725 L 299.125,702.75 C 299.12489,701.09132 302.07392,699.47364 302.28125,699.375 L 472.15625,699.375 C 474.02385,699.37501 475.53125,700.8822 475.53125,702.75 L 475.53125,725 L 482.28125,725 L 482.28125,702.75 C 482.28115,701.03781 485.46355,699.375 485.46875,699.375 L 655.3125,699.375 L 655.4375,699.375 L 655.75,699.375 C 657.47511,699.5276 658.8125,700.98435 658.8125,702.75 L 658.8125,725 L 665.5625,725 L 665.5625,702.75 C 665.56248,701.14315 668.50831,699.56135 668.90625,699.375 L 841.8125,699.375 L 841.8125,725 L 848.5625,725 L 848.5625,699.375 L 1000,699.375 L 1000,692.65625 L 851.9375,692.65625 L 851.9375,625.59375 L 1000,625.59375 L 1000,618.875 L 851.9375,618.875 L 851.9375,551.8125 L 1000,551.8125 L 1000,545.09375 L 902.5,545.09375 L 902.5,478.0625 L 1000,478.0625 L 1000,471.3125 L 851.9375,471.3125 L 851.9375,404.28125 L 1000,404.28125 L 1000,397.53125 L 902.5,397.53125 C 902.4927,397.53125 902.47593,397.53329 902.46875,397.53125 C 902.4546,397.52313 902.41996,397.48486 902.40625,397.46875 C 900.72563,394.97166 902.3713,331.51058 902.5,330.5 L 1000,330.5 L 1000,323.75 L 851.9375,323.75 L 851.9375,256.71875 L 1000,256.71875 L 1000,249.96875 L 902.5,249.96875 L 902.5,182.9375 L 1000,182.9375 L 1000,176.1875 L 851.9375,176.1875 C 851.9302,176.1875 851.9135,176.18953 851.90625,176.1875 C 851.89186,176.17941 851.85794,176.14106 851.84375,176.125 C 850.07512,173.61563 849.86683,109.36068 851.5,109.15625 L 1000,109.15625 L 1000,102.40625 L 902.5,102.40625 L 902,35.375 L 902.03125,35.375 L 902.0625,35.375 L 902.09375,35.375 L 902.15625,35.375 L 902.1875,35.375 L 902.5,35.375 L 1000,35.375 L 1000,28.625 L 848.5625,28.625 L 848.5625,0 L 841.8125,0 L 841.8125,28.625 L 668.78125,28.625 C 666.91348,28.625 665.40625,27.1176 665.40625,25.25 L 665.40625,0 L 658.65625,0 L 658.65625,25.25 C 658.65618,27.1177 657.1803,28.6248 655.3125,28.625 L 482.28125,28.625 L 482.28125,0 L 475.53125,0 L 475.53125,28.625 L 299.125,28.625 L 299.125,0 L 292.375,0 L 292.375,28.625 L 115.96875,28.625 L 115.96875,0 L 109.21875,0 z M 535.875,35.375 L 785.875,35.375 L 785.875,102.40625 L 536.21875,102.40625 L 535.875,35.375 z M 119.3125,109.15625 C 119.31729,109.15464 119.34042,109.15706 119.34375,109.15625 L 292.375,109.15625 L 292.375,176.1875 L 115.96875,176.1875 L 115.96875,112.53125 C 115.96865,110.91418 118.93395,109.30267 119.3125,109.15625 z M 299.125,109.15625 L 475.53125,109.15625 L 475.53125,176.1875 L 299.125,176.1875 L 299.125,109.15625 z M 482.28125,109.15625 L 655.3125,109.15625 C 657.18028,109.15625 658.65625,110.66345 658.65625,112.53125 L 658.65625,176.1875 L 482.28125,176.1875 L 482.28125,109.15625 z M 668.21875,109.15625 C 668.24399,109.15187 668.25582,109.16005 668.28125,109.15625 L 838.4375,109.15625 L 838.4375,176.1875 L 668.78125,176.1875 C 666.91348,176.1875 665.40625,174.6803 665.40625,172.8125 L 665.40625,112.53125 C 665.40628,110.86116 666.62876,109.43191 668.21875,109.15625 z M 535.65625,182.9375 L 785.875,182.9375 L 785.875,249.96875 L 536.21875,249.96875 L 535.65625,182.9375 z M 668.75,256.71875 C 668.75477,256.71712 668.77794,256.71957 668.78125,256.71875 L 838.4375,256.71875 L 838.4375,323.75 L 668.78125,323.75 C 666.91348,323.75001 665.40625,322.2426 665.40625,320.375 L 665.40625,260.09375 C 665.40628,258.49011 668.37287,256.86635 668.75,256.71875 z M 535.65625,330.5 L 785.875,330.5 L 785.875,397.53125 L 536.21875,397.53125 L 535.65625,330.5 z M 668.15625,404.28125 C 668.18088,404.2764 668.19394,404.28555 668.21875,404.28125 L 838.4375,404.28125 L 838.4375,471.3125 L 668.78125,471.3125 C 666.91348,471.3125 665.40625,469.8052 665.40625,467.9375 L 665.40625,407.625 C 665.40628,405.98258 666.60473,404.58664 668.15625,404.28125 z M 535.65625,478.0625 L 785.875,478.0625 L 785.875,545.09375 L 536.21875,545.09375 L 535.65625,478.0625 z M 668.28125,551.8125 C 668.30713,551.80868 668.31768,551.81572 668.34375,551.8125 L 838.4375,551.8125 L 838.4375,618.875 L 668.78125,618.875 C 666.91348,618.87491 665.40625,617.3676 665.40625,615.5 L 665.40625,555.1875 C 665.40628,553.4887 666.65104,552.05339 668.28125,551.8125 z M 532.84375,625.59375 L 838.4375,625.59375 L 838.4375,692.65625 L 536.21875,692.65625 C 534.35118,692.65637 532.84375,691.14885 532.84375,689.28125 L 532.84375,625.59375 z M 166.53125,628.96875 L 342.9375,628.96875 L 342.9375,689.28125 C 342.93751,691.14897 341.4303,692.65615 339.5625,692.65625 L 169.90625,692.65625 C 168.03855,692.65637 166.53125,691.14885 166.53125,689.28125 L 166.53125,628.96875 z M 349.6875,628.96875 L 526.09375,628.96875 L 526.09375,689.28125 C 526.09378,691.14897 524.58645,692.65615 522.71875,692.65625 L 353.0625,692.65625 C 351.19501,692.65637 349.6876,691.14885 349.6875,689.28125 L 349.6875,628.96875 z "
     id="path7035"
     sodipodi:nodetypes="ccccccccccccccccccccccccccccccccccccccccccccccccccccccccccccccccccccccccccccccccccccccccccccssccccccccccccsscccccccccccccccccccccccccccccccccccccccccccccccccccccccccccccccccccccccccccccccccccccccccccccccccccccccccccccccccccccccccccc" />
  <path
     d="M 579.16809,43.374188 L 575.63256,122.0138 L 131.16538,123.78157 L 124.09431,37.464285 L 579.16809,43.374188 z "
     style="fill:#464646;fill-opacity:1;fill-rule:evenodd;stroke:none;stroke-width:5;stroke-linecap:round;stroke-linejoin:round;stroke-miterlimit:4;stroke-opacity:1"
     id="path2140" />
  <path
     d="M 0,31.625 L 0,41.625 L 1000,48.25 L 1000,38.25 L 0,31.625 z "
     style="fill:#464646;fill-opacity:1;fill-rule:evenodd;stroke:none;stroke-width:10;stroke-linecap:butt;stroke-linejoin:miter;stroke-miterlimit:4;stroke-opacity:1"
     id="path2142" />
  <path
     d="M 569.16809,33.374188 L 565.63256,112.0138 L 121.16538,113.78157 L 114.09431,27.464285 L 569.16809,33.374188 z "
     style="fill:#e1e1e1;fill-opacity:1;fill-rule:evenodd;stroke:#7f7f7f;stroke-width:5;stroke-linecap:round;stroke-linejoin:round;stroke-miterlimit:4;stroke-opacity:1"
     id="path2144" />
  <path
     d="M 0,24.125 L 0,34.125 L 1000,40.75 L 1000,30.75 L 0,24.125 z "
     style="fill:#7f7f7f;fill-opacity:1;fill-rule:evenodd;stroke:none;stroke-width:10;stroke-linecap:butt;stroke-linejoin:miter;stroke-miterlimit:4;stroke-opacity:1"
     id="path2146" />
  <g
     transform="translate(90.75,7.5)"
     style="fill:#c84d1d;fill-opacity:1"
     id="g2148">
    <path
       d="M 182.8125,241.875 L 156.90625,267.8125 L 179.53125,303.71875 C 175.7139,310.33399 172.67296,317.43534 170.46875,324.90625 L 129.5625,335.46875 L 129.5625,368.5625 L 170.6875,381.4375 C 172.80792,388.39718 175.69213,395.00503 179.21875,401.21875 L 155.46875,433.34375 L 182.8125,460.6875 L 213.34375,436.53125 C 220.78782,441.12382 228.85519,444.75868 237.4375,447.25 L 246.875,490.9375 L 281.4375,490.9375 L 288.75,448.21875 C 297.41254,446.05182 305.60304,442.70007 313.1875,438.40625 L 345.5,462.125 L 371.40625,433.34375 L 366.07582,419.12039 L 349.85707,425.96414 L 329.90625,400.21875 C 315.23305,420.26336 291.59736,433.34375 264.875,433.34375 C 220.37511,433.34375 184.25,397.21864 184.25,352.71875 C 184.25,321.16303 202.47047,293.91634 228.90625,280.6875 L 228.90625,261.125 C 225.03054,262.64969 221.30617,264.45493 217.6875,266.4375 L 182.8125,241.875 z "
       transform="matrix(0.219067,0,0,0.213405,17.39984,-8.559191)"
       style="fill-rule:evenodd;stroke:none;stroke-width:1pt;stroke-linecap:butt;stroke-linejoin:miter;stroke-opacity:1"
       id="path2150" />
    <path
       d="M 237.17711,215.20644 L 237.17711,413.19334 L 288.58245,409.6306 L 289.09141,325.65158 L 352.20292,417.26505 L 404.11722,399.96029 L 339.47882,309.8737 L 339.47882,308.85577 L 402.08137,226.40364 L 349.14914,209.09888 L 286.03763,297.14961 L 288.53763,209.60784 L 237.17711,215.20644 z "
       transform="matrix(0.219067,0,0,0.213405,17.39984,-8.559191)"
       style="fill-rule:evenodd;stroke:none;stroke-width:1pt;stroke-linecap:butt;stroke-linejoin:miter;stroke-opacity:1"
       id="path2152" />
  </g>
  <path
     d="M 390.46725,55.805791 L 385.95287,85.037214 C 385.40626,88.576177 384.41496,91.522077 382.97898,93.874787 C 381.54286,96.227535 379.77127,98.051685 377.66421,99.347235 C 375.55343,100.66607 373.21999,101.49759 370.66387,101.84185 C 368.1274,102.21295 365.45052,102.18095 362.63335,101.74588 C 360.42151,101.40429 358.05668,100.74108 355.5389,99.756335 C 353.04444,98.775135 350.96295,97.512055 349.2945,95.967115 C 347.64935,94.425847 346.97417,92.700557 347.26902,90.791387 C 347.45599,89.580657 348.11932,88.526977 349.25898,87.63027 C 350.39511,86.756831 351.53355,86.408253 352.67443,86.584445 C 353.48927,86.710286 354.61917,87.266192 356.06405,88.252147 C 357.53224,89.241707 358.74978,90.001857 359.71666,90.532587 C 360.70684,91.066907 362.12162,91.476107 363.961,91.760177 C 367.29041,92.274357 369.79644,91.791267 371.47923,90.310957 C 373.18161,88.857517 374.28814,86.477735 374.79872,83.171629 L 374.65902,83.150054 C 372.23053,85.754759 368.62978,86.68855 363.85683,85.951436 C 360.41101,85.419278 357.60419,84.068042 355.43634,81.897723 C 353.2721,79.704111 351.80315,77.021956 351.02941,73.851195 C 350.28259,70.660731 350.18058,67.307677 350.72354,63.791956 C 351.29165,60.113326 352.57335,56.83093 354.56852,53.944681 C 356.59058,51.038916 359.05553,48.892709 361.96337,47.506268 C 364.87475,46.096504 367.91368,45.636162 371.08014,46.125117 C 373.19888,46.452386 374.95291,47.057022 376.34239,47.939037 C 377.75505,48.824702 378.98119,50.146389 380.02086,51.904044 C 380.58736,51.014211 381.36695,50.288373 382.35959,49.726453 C 383.35576,49.141339 384.49412,48.947694 385.77472,49.145404 C 387.40446,49.397155 388.65692,50.162693 389.53212,51.442019 C 390.41076,52.698141 390.72248,54.152729 390.46725,55.805791 M 377.16109,67.874862 C 377.58179,65.150785 377.25532,62.788116 376.18187,60.786762 C 375.11188,58.762193 373.37786,57.564737 370.97978,57.194327 C 368.60492,56.827623 366.59039,57.44617 364.9363,59.050044 C 363.30539,60.657546 362.28142,62.81172 361.86432,65.512492 C 361.58386,67.328553 361.62942,69.04003 362.00111,70.646865 C 362.37632,72.230445 363.05798,73.527672 364.04611,74.538409 C 365.05748,75.552795 366.37813,76.185829 368.00794,76.43753 C 369.61438,76.685621 371.05278,76.478685 372.32312,75.816676 C 373.61668,75.158313 374.666,74.152271 375.47103,72.798631 C 376.30283,71.425316 376.86624,69.784088 377.16109,67.874862"
     style="font-size:12px;font-style:normal;font-variant:normal;font-weight:bold;font-stretch:normal;writing-mode:lr-tb;text-anchor:start;fill:#7f42c0;fill-opacity:1;stroke:none;stroke-width:1pt;stroke-linecap:butt;stroke-linejoin:miter;stroke-opacity:1;font-family:VAG Rounded Black SSi"
     id="path1366" />
  <path
     d="M 253.72044,84.179261 L 257.03147,56.459235 C 257.22985,54.798391 257.90936,53.479704 259.06998,52.503164 C 260.25675,51.506121 261.66887,51.105364 263.3063,51.300887 C 264.66305,51.463005 265.78941,51.96526 266.68526,52.807756 C 267.60731,53.629755 268.20991,54.543998 268.49299,55.550546 C 270.66129,52.891273 274.0496,51.836792 278.65791,52.387174 C 281.30122,52.702966 283.6183,53.466134 285.60911,54.676663 C 287.62322,55.890036 289.10802,57.562179 290.06362,59.692975 C 291.04528,61.803267 291.35729,64.355497 290.99964,67.349733 L 288.49332,88.332728 C 288.29214,90.016986 287.59817,91.357702 286.41139,92.35481 C 285.22462,93.35191 283.81249,93.75267 282.17501,93.55708 C 280.53752,93.36149 279.26091,92.62773 278.34522,91.355736 C 277.42943,90.083742 277.06935,88.629038 277.26494,86.991548 L 279.40245,69.096324 C 279.64553,67.0612 279.29137,65.358115 278.34005,63.986937 C 277.41485,62.595254 275.9815,61.783435 274.03993,61.551463 C 272.12176,61.322406 270.53752,61.773787 269.28716,62.90561 C 268.03685,64.037499 267.29151,65.609325 267.05122,67.621025 L 264.91372,85.516249 C 264.71533,87.177153 264.02136,88.517809 262.8318,89.538327 C 261.66843,90.538226 260.25631,90.938987 258.5954,90.7406 C 256.95798,90.545017 255.67997,89.822931 254.76143,88.574357 C 253.86905,87.305161 253.52205,85.840165 253.72044,84.179261"
     style="font-size:12px;font-style:normal;font-variant:normal;font-weight:bold;font-stretch:normal;writing-mode:lr-tb;text-anchor:start;fill:#55b636;fill-opacity:1;stroke:none;stroke-width:1pt;stroke-linecap:butt;stroke-linejoin:miter;stroke-opacity:1;font-family:VAG Rounded Black SSi"
     id="path1367" />
  <path
     d="M 239.76409,53.539149 L 242.58354,81.313481 C 242.75485,83.001038 242.37026,84.460903 241.42975,85.693009 C 240.48917,86.925121 239.19857,87.624449 237.55794,87.790994 C 236.2688,87.921859 235.14323,87.680943 234.18124,87.068185 C 233.2426,86.453057 232.5007,85.675931 231.95549,84.736681 C 230.84678,86.412141 229.55235,87.656473 228.07204,88.469743 C 226.61754,89.304166 224.8356,89.828411 222.72617,90.042545 C 219.51511,90.36851 216.49372,89.763548 213.66196,88.227606 C 210.85129,86.665942 208.51312,84.393253 206.64732,81.409551 C 204.80266,78.399993 203.68999,75.020185 203.30931,71.270057 C 202.93338,67.566849 203.34774,64.06755 204.55235,60.772092 C 205.77813,57.450975 207.62365,54.753517 210.08893,52.679926 C 212.55189,50.58286 215.37713,49.37257 218.56479,49.048921 C 220.69762,48.832471 222.54743,48.976227 224.1141,49.48019 C 225.70417,49.981847 227.22352,50.952424 228.67207,52.391869 C 228.99634,51.388118 229.56817,50.489451 230.38746,49.695811 C 231.20432,48.878836 232.25732,48.404946 233.54646,48.274021 C 235.18709,48.107536 236.5919,48.533246 237.76088,49.55115 C 238.92743,50.545721 239.59516,51.875052 239.76409,53.539149 M 221.25323,59.787149 C 218.86251,60.029898 217.06854,61.135501 215.87126,63.104024 C 214.69738,65.070222 214.24847,67.412757 214.52452,70.131568 C 214.70053,71.86605 215.16946,73.452343 215.9311,74.890474 C 216.69038,76.305265 217.68826,77.387942 218.92479,78.138567 C 220.18472,78.886878 221.6116,79.180071 223.20544,79.018276 C 225.61956,78.773211 227.41354,77.667608 228.58741,75.7014 C 229.75886,73.711809 230.2042,71.334105 229.92344,68.568378 C 229.64507,65.826101 228.73457,63.621624 227.19196,61.954827 C 225.64691,60.264685 223.66736,59.542144 221.25323,59.787149"
     style="font-size:12px;font-style:normal;font-variant:normal;font-weight:bold;font-stretch:normal;writing-mode:lr-tb;text-anchor:start;fill:#c38823;fill-opacity:1;stroke:none;stroke-width:1pt;stroke-linecap:butt;stroke-linejoin:miter;stroke-opacity:1;font-family:VAG Rounded Black SSi"
     id="path1368" />
  <path
     d="M 486.72567,90.535822 L 486.72567,62.618748 C 486.72567,60.946098 487.24391,59.556128 488.28052,58.448828 C 489.34067,57.318068 490.6953,56.752658 492.34441,56.752598 C 493.71081,56.752658 494.88874,57.117778 495.87818,57.848078 C 496.89122,58.554918 497.59799,59.391238 497.99852,60.357108 C 498.91729,58.943618 500.24834,57.871658 501.99172,57.141298 C 503.73506,56.387478 505.64327,56.010538 507.71644,56.010478 C 509.62472,56.010538 511.53295,56.387478 513.44123,57.141298 C 515.34945,57.871658 516.93972,59.049638 518.2119,60.675128 C 520.14371,59.214528 521.8988,58.071948 523.4773,57.247328 C 525.0792,56.422818 526.96391,56.010538 529.13139,56.010478 C 531.79344,56.010538 534.18469,56.493508 536.30501,57.459378 C 538.4488,58.425308 540.12146,59.909548 541.32302,61.911968 C 542.54804,63.890938 543.16056,66.388148 543.16061,69.403668 L 543.16061,90.535822 C 543.16056,92.208532 542.63049,93.622032 541.57041,94.776432 C 540.53374,95.907255 539.17911,96.472665 537.50652,96.472665 C 535.85733,96.472665 534.5027,95.907255 533.44262,94.776432 C 532.40601,93.622032 531.8877,92.208532 531.88777,90.535822 L 531.88777,72.513388 C 531.8877,70.581588 531.38115,68.956038 530.36819,67.636758 C 529.37868,66.317468 528.00052,65.657848 526.23367,65.657788 C 524.4667,65.657848 523.07671,66.317468 522.06375,67.636758 C 521.07424,68.956038 520.57951,70.581588 520.57956,72.513388 L 520.57956,90.535822 C 520.57951,92.208532 520.04943,93.622032 518.98936,94.776432 C 517.95269,95.907255 516.59811,96.472665 514.92546,96.472665 C 513.27628,96.472665 511.92172,95.907255 510.86157,94.776432 C 509.82496,93.622032 509.30665,92.208532 509.30672,90.535822 L 509.30672,72.513388 C 509.30665,70.581588 508.80017,68.956038 507.78713,67.636758 C 506.79769,66.317468 505.41947,65.657848 503.65261,65.657788 C 501.88564,65.657848 500.49573,66.317468 499.48269,67.636758 C 498.49325,68.956038 497.99845,70.581588 497.99852,72.513388 L 497.99852,90.535822 C 497.99845,92.208532 497.46838,93.622032 496.40826,94.776432 C 495.3717,95.907255 494.01707,96.472665 492.34441,96.472665 C 490.6953,96.472665 489.34067,95.907255 488.28052,94.776432 C 487.24391,93.622032 486.72567,92.208532 486.72567,90.535822"
     style="font-size:12px;font-style:normal;font-variant:normal;font-weight:bold;font-stretch:normal;writing-mode:lr-tb;text-anchor:start;fill:#843256;fill-opacity:1;stroke:none;stroke-width:1pt;stroke-linecap:butt;stroke-linejoin:miter;stroke-opacity:1;font-family:VAG Rounded Black SSi"
     id="path1369" />
  <path
     d="M 403.97905,91.078922 L 401.50623,63.271581 C 401.35807,61.605506 401.75122,60.175089 402.68563,58.980325 C 403.64143,57.760106 404.94065,57.076929 406.5833,56.930794 C 407.94432,56.809823 409.14996,57.069169 410.20027,57.708951 C 411.27193,58.323281 412.04995,59.093714 412.53445,60.02031 C 414.69477,56.919095 417.15943,55.245303 419.92845,54.999002 C 421.45378,54.86342 422.84035,55.295951 424.08829,56.296585 C 425.35758,57.271707 426.06842,58.615756 426.22075,60.328747 C 426.37726,62.088781 425.93952,63.416715 424.90757,64.312563 C 423.89907,65.206458 422.17172,66.128727 419.72557,67.079437 C 417.23241,68.034378 415.58903,69.102915 414.79543,70.285096 C 413.9997,71.443915 413.72704,73.431198 413.97745,76.247136 L 415.2076,90.080402 C 415.35577,91.746532 414.95298,93.201432 413.99927,94.445202 C 413.06689,95.663395 411.76767,96.346575 410.1016,96.494735 C 408.45895,96.640805 407.05956,96.197615 405.90343,95.165132 C 404.76869,94.107092 404.12722,92.745052 403.97905,91.078922"
     style="font-size:12px;font-style:normal;font-variant:normal;font-weight:bold;font-stretch:normal;writing-mode:lr-tb;text-anchor:start;fill:#be318a;fill-opacity:1;stroke:none;stroke-width:1pt;stroke-linecap:butt;stroke-linejoin:miter;stroke-opacity:1;font-family:VAG Rounded Black SSi"
     id="path1370" />
  <path
     d="M 337.33382,57.578524 L 338.56969,85.468229 C 338.64479,87.162795 338.17782,88.598435 337.16878,89.775075 C 336.15968,90.951725 334.83141,91.576545 333.18397,91.649555 C 331.88947,91.706915 330.77942,91.402395 329.85382,90.735935 C 328.95166,90.068445 328.25515,89.250395 327.76422,88.281665 C 326.56205,89.891385 325.19897,91.060115 323.67482,91.787915 C 322.17523,92.538295 320.36637,92.960385 318.24818,93.054245 C 315.02377,93.197125 312.04167,92.421375 309.30181,90.726925 C 306.58447,89.007995 304.37929,86.606055 302.68614,83.521098 C 301.01556,80.411535 300.09684,76.973936 299.92997,73.208231 C 299.76519,69.489641 300.37781,66.019558 301.76784,62.797914 C 303.18044,59.551857 305.17633,56.963683 307.75551,55.033602 C 310.33372,53.079951 313.22319,52.032239 316.42409,51.890338 C 318.56578,51.795494 320.40443,52.044182 321.93991,52.636398 C 323.49889,53.227642 324.9606,54.283028 326.32498,55.802498 C 326.70578,54.818805 327.32778,53.954102 328.19086,53.208323 C 329.05285,52.439109 330.13109,52.025851 331.42559,51.968428 C 333.07303,51.895485 334.45136,52.400372 335.56058,53.48309 C 336.6687,54.542372 337.25978,55.907514 337.33382,57.578524 M 318.4977,62.764041 C 316.09705,62.870481 314.24312,63.872305 312.93586,65.769577 C 311.6521,67.665857 311.07073,69.979082 311.19177,72.70919 C 311.26889,74.450873 311.64687,76.061259 312.32552,77.540365 C 313.00314,78.996035 313.93785,80.133691 315.12971,80.953402 C 316.34506,81.772132 317.75296,82.145972 319.35342,82.075051 C 321.77757,81.96763 323.6315,80.965805 324.91526,79.069515 C 326.19792,77.149741 326.77772,74.801201 326.65466,72.023986 C 326.53263,69.270318 325.74894,67.017643 324.30358,65.265841 C 322.85712,63.490594 320.92185,62.65668 318.4977,62.764041"
     style="font-size:12px;font-style:normal;font-variant:normal;font-weight:bold;font-stretch:normal;writing-mode:lr-tb;text-anchor:start;fill:#5173bc;fill-opacity:1;stroke:none;stroke-width:1pt;stroke-linecap:butt;stroke-linejoin:miter;stroke-opacity:1;font-family:VAG Rounded Black SSi"
     id="path1371" />
  <path
     d="M 474.08017,62.443132 L 471.0049,90.190309 C 470.81805,91.876219 470.1355,93.222779 468.95724,94.229939 C 467.77893,95.237089 466.37026,95.649825 464.73123,95.468175 C 463.44335,95.325435 462.39346,94.853559 461.58158,94.052469 C 460.79302,93.253959 460.23083,92.338379 459.895,91.305589 C 458.45921,92.710899 456.93235,93.655689 455.31428,94.140009 C 453.71699,94.650419 451.86471,94.788819 449.75734,94.555259 C 446.54941,94.199719 443.72241,92.973829 441.27628,90.877539 C 438.85618,88.760519 437.04733,86.047539 435.84963,82.738589 C 434.67802,79.408795 434.29983,75.870698 434.71505,72.124238 C 435.12509,68.42465 436.26496,65.090364 438.13468,62.121308 C 440.03047,59.131609 442.40125,56.881794 445.24697,55.372074 C 448.09535,53.838913 451.11173,53.248828 454.29629,53.601718 C 456.42703,53.837931 458.20541,54.366892 459.63134,55.188579 C 461.08063,56.012926 462.36231,57.280889 463.47633,58.992402 C 464.00412,58.079114 464.75191,57.320551 465.71957,56.716631 C 466.68976,56.089387 467.81879,55.847165 469.10669,55.989843 C 470.7457,56.171559 472.0298,56.88275 472.95899,58.123417 C 473.8907,59.34076 474.26442,60.780661 474.08017,62.443132 M 454.67006,64.66506 C 452.28167,64.400411 450.29554,65.104681 448.71161,66.777923 C 447.15105,68.453805 446.22028,70.649858 445.9193,73.366023 C 445.72719,75.098797 445.85258,76.748188 446.29528,78.314184 C 446.74056,79.856864 447.48886,81.124935 448.54021,82.118469 C 449.61494,83.114649 450.94844,83.700909 452.54072,83.877389 C 454.95249,84.144689 456.93861,83.440419 458.49917,81.764519 C 460.06226,80.065253 460.99693,77.834065 461.30316,75.071044 C 461.6068,72.331449 461.17948,69.984936 460.02124,68.031389 C 458.86552,66.054507 457.08181,64.93242 454.67006,64.66506"
     style="font-size:12px;font-style:normal;font-variant:normal;font-weight:bold;font-stretch:normal;writing-mode:lr-tb;text-anchor:start;fill:#0aa3b9;fill-opacity:1;stroke:none;stroke-width:1pt;stroke-linecap:butt;stroke-linejoin:miter;stroke-opacity:1;font-family:VAG Rounded Black SSi"
     id="path1372" />
  <path
     d="M 714.9085,25.939396 L 960.1973,25.939396 C 961.7504,25.939396 963.0006,27.048961 963.0006,28.427207 L 963.0006,640.80686 C 963.0006,642.18511 961.7504,643.29468 960.1973,643.29468 L 714.9085,643.29468 C 713.3555,643.29468 712.1052,642.18511 712.1052,640.80686 L 712.1052,28.427207 C 712.1052,27.048961 713.3555,25.939396 714.9085,25.939396 z "
     style="color:#000000;fill:#cccccc;fill-opacity:1;fill-rule:evenodd;stroke:#4f4f4f;stroke-width:7.49998331;stroke-linecap:round;stroke-linejoin:round;marker:none;marker-start:none;marker-mid:none;marker-end:none;stroke-miterlimit:4;stroke-dashoffset:0;stroke-opacity:1"
     id="path2170" />
  <path
     d="M 733.83089,184.29291 L 941.27513,184.29291 C 942.82816,184.29291 944.07843,185.21692 944.07843,186.36468 L 944.07843,306.61187 C 944.07843,307.75964 942.82816,308.68365 941.27513,308.68365 L 733.83089,308.68365 C 732.27786,308.68365 731.02759,307.75964 731.02759,306.61187 L 731.02759,186.36468 C 731.02759,185.21692 732.27786,184.29291 733.83089,184.29291 z "
     style="color:#000000;fill:#b3b3b3;fill-opacity:1;fill-rule:evenodd;stroke:#4f4f4f;stroke-width:7.49998331;stroke-linecap:round;stroke-linejoin:round;marker:none;marker-start:none;marker-mid:none;marker-end:none;stroke-miterlimit:4;stroke-dashoffset:0;stroke-opacity:1"
     id="rect2172" />
  <path
     d="M 733.83089,44.975296 L 941.27513,44.975296 C 942.82816,44.975296 944.07843,45.899307 944.07843,47.047069 L 944.07843,167.29426 C 944.07843,168.44202 942.82816,169.36604 941.27513,169.36604 L 733.83089,169.36604 C 732.27786,169.36604 731.02759,168.44202 731.02759,167.29426 L 731.02759,47.047069 C 731.02759,45.899307 732.27786,44.975296 733.83089,44.975296 z "
     style="color:#000000;fill:#b3b3b3;fill-opacity:1;fill-rule:evenodd;stroke:#4f4f4f;stroke-width:7.49998331;stroke-linecap:round;stroke-linejoin:round;marker:none;marker-start:none;marker-mid:none;marker-end:none;stroke-miterlimit:4;stroke-dashoffset:0;stroke-opacity:1"
     id="rect2174" />
  <path
     d="M 733.8309,462.92812 L 941.2751,462.92812 C 942.8282,462.92812 944.0784,463.85214 944.0784,464.9999 L 944.0784,585.2471 C 944.0784,586.39485 942.8282,587.31887 941.2751,587.31887 L 733.8309,587.31887 C 732.2779,587.31887 731.0276,586.39485 731.0276,585.2471 L 731.0276,464.9999 C 731.0276,463.85214 732.2779,462.92812 733.8309,462.92812 z "
     style="color:#000000;fill:#373737;fill-opacity:1;fill-rule:evenodd;stroke:#4f4f4f;stroke-width:7.49998331;stroke-linecap:round;stroke-linejoin:round;marker:none;marker-start:none;marker-mid:none;marker-end:none;stroke-miterlimit:4;stroke-dashoffset:0;stroke-opacity:1"
     id="rect2178" />
  <path
     d="M 733.83089,323.61053 L 941.27513,323.61053 C 942.82816,323.61053 944.07843,324.53455 944.07843,325.68231 L 944.07843,445.9295 C 944.07843,447.07726 942.82816,448.00127 941.27513,448.00127 L 733.83089,448.00127 C 732.27786,448.00127 731.02759,447.07726 731.02759,445.9295 L 731.02759,325.68231 C 731.02759,324.53455 732.27786,323.61053 733.83089,323.61053 z "
     style="color:#000000;fill:#b3b3b3;fill-opacity:1;fill-rule:evenodd;stroke:#4f4f4f;stroke-width:7.49998331;stroke-linecap:round;stroke-linejoin:round;marker:none;marker-start:none;marker-mid:none;marker-end:none;stroke-miterlimit:4;stroke-dashoffset:0;stroke-opacity:1"
     id="rect2184" />
  <path
     d="M 787.0564,401.17257 C 787.6314,412.83778 795.1311,421.34516 803.9405,426.63436 C 813.1061,432.13746 824.7669,435.13824 837.5633,435.13825 C 850.3597,435.13825 862.0205,432.13746 871.1861,426.63436 C 879.9955,421.34516 887.4759,412.83779 888.0494,401.17257 L 871.2277,401.17257 C 870.5501,403.07445 868.5309,405.93392 863.7513,408.80362 C 857.607,412.49273 848.1124,415.18778 837.5633,415.18778 C 827.0142,415.18778 817.5196,412.49273 811.3753,408.80362 C 806.5957,405.93392 804.5613,403.07445 803.8782,401.17257 L 787.0564,401.17257 z "
     style="color:#000000;fill:#7f7f7f;fill-opacity:1;fill-rule:evenodd;stroke:none;stroke-width:25;stroke-linecap:round;stroke-linejoin:round;marker:none;marker-start:none;marker-mid:none;marker-end:none;stroke-miterlimit:4;stroke-dashoffset:0;stroke-opacity:1"
     id="path2188" />
  <path
     d="M 787.0564,261.8549 C 787.6314,273.52012 795.1311,282.0275 803.9405,287.3167 C 813.1061,292.81981 824.7669,295.82058 837.5633,295.82059 C 850.3597,295.82059 862.0205,292.81981 871.1861,287.3167 C 879.9955,282.0275 887.4759,273.52013 888.0494,261.8549 L 871.2277,261.8549 C 870.5501,263.75679 868.5309,266.61625 863.7513,269.48596 C 857.607,273.17507 848.1124,275.87012 837.5633,275.87012 C 827.0142,275.87012 817.5196,273.17507 811.3753,269.48596 C 806.5957,266.61625 804.5613,263.75679 803.8782,261.8549 L 787.0564,261.8549 z "
     style="color:#000000;fill:#7f7f7f;fill-opacity:1;fill-rule:evenodd;stroke:none;stroke-width:25;stroke-linecap:round;stroke-linejoin:round;marker:none;marker-start:none;marker-mid:none;marker-end:none;stroke-miterlimit:4;stroke-dashoffset:0;stroke-opacity:1"
     id="path2190" />
  <path
     d="M 787.0564,122.5373 C 787.6314,134.20252 795.1311,142.7099 803.9405,147.99909 C 813.1061,153.50219 824.7669,156.50298 837.5633,156.50299 C 850.3597,156.50299 862.0205,153.50219 871.1861,147.99909 C 879.9955,142.7099 887.4759,134.20253 888.0494,122.5373 L 871.2277,122.5373 C 870.5501,124.43919 868.5309,127.29865 863.7513,130.16835 C 857.607,133.85746 848.1124,136.5525 837.5633,136.5525 C 827.0142,136.5525 817.5196,133.85746 811.3753,130.16835 C 806.5957,127.29865 804.5613,124.43919 803.8782,122.5373 L 787.0564,122.5373 z "
     style="color:#000000;fill:#7f7f7f;fill-opacity:1;fill-rule:evenodd;stroke:none;stroke-width:25;stroke-linecap:round;stroke-linejoin:round;marker:none;marker-start:none;marker-mid:none;marker-end:none;stroke-miterlimit:4;stroke-dashoffset:0;stroke-opacity:1"
     id="path2192" />
  <path
     d="M 706.24319,528.19983 L 968.86274,528.19983 C 970.82884,528.19983 972.41165,529.3696 972.41165,530.82264 L 972.41165,683.05274 C 972.41165,684.50578 970.82884,685.67555 968.86274,685.67555 L 706.24319,685.67555 C 704.27709,685.67555 702.69427,684.50578 702.69427,683.05274 L 702.69427,530.82264 C 702.69427,529.3696 704.27709,528.19983 706.24319,528.19983 z "
     style="color:#000000;fill:#b3b3b3;fill-opacity:1;fill-rule:evenodd;stroke:#4f4f4f;stroke-width:7.49997854;stroke-linecap:round;stroke-linejoin:round;marker:none;marker-start:none;marker-mid:none;marker-end:none;stroke-miterlimit:4;stroke-dashoffset:0;stroke-opacity:1"
     id="rect2180" />
  <path
     d="M 697.69546,538.21259 L 977.41065,538.21259 C 979.50473,538.21259 981.19058,539.45851 981.19058,541.00614 L 981.19058,703.14587 C 981.19058,704.6935 979.50473,705.93942 977.41065,705.93942 L 697.69546,705.93942 C 695.60138,705.93942 693.91553,704.6935 693.91553,703.14587 L 693.91553,541.00614 C 693.91553,539.45851 695.60138,538.21259 697.69546,538.21259 z "
     style="color:#000000;fill:#b3b3b3;fill-opacity:1;fill-rule:evenodd;stroke:#4f4f4f;stroke-width:7.49998283;stroke-linecap:round;stroke-linejoin:round;marker:none;marker-start:none;marker-mid:none;marker-end:none;stroke-miterlimit:4;stroke-dashoffset:0;stroke-opacity:1"
     id="rect2182" />
  <path
     d="M 767.9246,634.94345 C 768.7176,651.02833 779.0587,662.75893 791.2057,670.05206 C 803.8439,677.64013 819.9226,681.77784 837.5673,681.77785 C 855.212,681.77785 871.2907,677.64013 883.9289,670.05206 C 896.0759,662.75893 906.3905,651.02834 907.1813,634.94345 L 883.9862,634.94345 C 883.0519,637.56592 880.2677,641.50875 873.6772,645.46572 C 865.205,650.55253 852.1132,654.26866 837.5673,654.26866 C 823.0214,654.26865 809.9296,650.55253 801.4573,645.46572 C 794.8669,641.50875 792.0618,637.56592 791.1198,634.94345 L 767.9246,634.94345 z "
     style="color:#000000;fill:#7f7f7f;fill-opacity:1;fill-rule:evenodd;stroke:none;stroke-width:25;stroke-linecap:round;stroke-linejoin:round;marker:none;marker-start:none;marker-mid:none;marker-end:none;stroke-miterlimit:4;stroke-dashoffset:0;stroke-opacity:1"
     id="path2186" />
  <path
     d="M 33.758348,149.77388 L 657.00405,149.77388 C 657.75112,149.77388 658.35255,150.37531 658.35255,151.12238 L 658.35255,594.54682 C 658.35255,595.29389 657.75112,595.89532 657.00405,595.89532 L 33.758348,595.89532 C 33.011275,595.89532 32.409842,595.29389 32.409842,594.54682 L 32.409842,151.12238 C 32.409842,150.37531 33.011275,149.77388 33.758348,149.77388 z "
     style="color:#000000;fill:#a55229;fill-opacity:1;fill-rule:evenodd;stroke:#7f4224;stroke-width:7.50000048;stroke-linecap:round;stroke-linejoin:round;marker:none;marker-start:none;marker-mid:none;marker-end:none;stroke-miterlimit:4;stroke-dashoffset:0;stroke-opacity:1"
     id="rect1117" />
  <path
     d="M 62.135291,179.73883 L 628.62711,179.73883 C 629.27382,179.73883 629.79446,180.25947 629.79446,180.90619 L 629.79446,564.76301 C 629.79446,565.40973 629.27382,565.93037 628.62711,565.93037 L 62.135291,565.93037 C 61.488577,565.93037 60.967937,565.40973 60.967937,564.76301 L 60.967937,180.90619 C 60.967937,180.25947 61.488577,179.73883 62.135291,179.73883 z "
     style="color:#000000;fill:#2d2d2d;fill-opacity:1;fill-rule:evenodd;stroke:#7f4224;stroke-width:4.99999762;stroke-linecap:round;stroke-linejoin:round;marker:none;marker-start:none;marker-mid:none;marker-end:none;stroke-miterlimit:4;stroke-dashoffset:0;stroke-opacity:1"
     id="rect1739" />
  <path
     d="M 62.335687,180.32562 L 32.803895,150.79382"
     style="fill:none;fill-opacity:0.75;fill-rule:evenodd;stroke:#7f4224;stroke-width:5.00000095;stroke-linecap:butt;stroke-linejoin:round;stroke-miterlimit:4;stroke-opacity:1"
     id="path1742" />
  <path
     d="M 629.5178,180.32562 L 659.04959,150.79382"
     style="fill:none;fill-opacity:0.75;fill-rule:evenodd;stroke:#7f4224;stroke-width:5.00000095;stroke-linecap:butt;stroke-linejoin:round;stroke-miterlimit:4;stroke-opacity:1"
     id="path2987" />
  <path
     d="M 62.335687,565.45938 L 32.803895,594.99117"
     style="fill:none;fill-opacity:0.75;fill-rule:evenodd;stroke:#7f4224;stroke-width:5.00000095;stroke-linecap:butt;stroke-linejoin:round;stroke-miterlimit:4;stroke-opacity:1"
     id="path2988" />
  <path
     d="M 629.5178,565.45941 L 659.04959,594.9912"
     style="fill:none;fill-opacity:0.75;fill-rule:evenodd;stroke:#7f4224;stroke-width:5.00000095;stroke-linecap:butt;stroke-linejoin:round;stroke-miterlimit:4;stroke-opacity:1"
     id="path2989" />
  <path
     d="M 35.539352,611.91216 L 655.22304,611.91216 L 655.22304,631.12969 L 35.539352,631.12969 L 35.539352,611.91216 z "
     style="color:#000000;fill:#fb9660;fill-opacity:1;fill-rule:evenodd;stroke:#6b3d27;stroke-width:7.50000048;stroke-linecap:round;stroke-linejoin:round;marker:none;marker-start:none;marker-mid:none;marker-end:none;stroke-miterlimit:4;stroke-dashoffset:0;stroke-opacity:1"
     id="path1073" />
  <path
     d="M 18.683027,593.3702 L 672.07937,593.3702 L 655.22304,612.58774 L 35.539352,612.58774 L 18.683027,593.3702 z "
     style="color:#000000;fill:#f18347;fill-opacity:1;fill-rule:evenodd;stroke:#6b3d27;stroke-width:7.50000048;stroke-linecap:round;stroke-linejoin:round;marker:none;marker-start:none;marker-mid:none;marker-end:none;stroke-miterlimit:4;stroke-dashoffset:0;stroke-opacity:1"
     id="rect1697" />
  <g
     transform="matrix(0.628274,0,0,0.628274,145.0612,254.0232)"
     id="g4820">
    <path
       d="M 127.92325,531.3083 L 26.58465,531.3083 C 13.825199,531.3083 3.5531501,523.60463 3.5531501,514.03549 C 3.5531501,504.46636 13.825199,496.7627 26.58465,496.7627 L 127.92325,496.7627"
       style="color:#000000;fill:#e1e1e1;fill-opacity:1;fill-rule:evenodd;stroke:#b3b3b3;stroke-width:7.95831203;stroke-linecap:round;stroke-linejoin:round;marker:none;marker-start:none;marker-mid:none;marker-end:none;stroke-miterlimit:4;stroke-dashoffset:0;stroke-opacity:1"
       id="rect4197" />
    <path
       d="M 145.19688,514.03549 C 145.19688,523.57053 137.45829,531.30912 127.92325,531.30912 C 118.38821,531.30912 110.64963,523.57053 110.64963,514.03549 C 110.64963,504.50045 118.38821,496.76187 127.92325,496.76187 C 137.45829,496.76187 145.19688,504.50045 145.19688,514.03549 z "
       style="color:#000000;fill:#c7c7c7;fill-opacity:1;fill-rule:evenodd;stroke:#b3b3b3;stroke-width:7.95831203;stroke-linecap:round;stroke-linejoin:round;marker:none;marker-start:none;marker-mid:none;marker-end:none;stroke-miterlimit:4;stroke-dashoffset:0;stroke-opacity:1"
       id="path4193" />
  </g>
</svg>
