<?xml version="1.0" encoding="UTF-8" standalone="no"?>
<!-- Created with Inkscape (http://www.inkscape.org/) -->
<svg
   xmlns:dc="http://purl.org/dc/elements/1.1/"
   xmlns:cc="http://web.resource.org/cc/"
   xmlns:rdf="http://www.w3.org/1999/02/22-rdf-syntax-ns#"
   xmlns:svg="http://www.w3.org/2000/svg"
   xmlns="http://www.w3.org/2000/svg"
   xmlns:sodipodi="http://inkscape.sourceforge.net/DTD/sodipodi-0.dtd"
   xmlns:inkscape="http://www.inkscape.org/namespaces/inkscape"
   width="166"
   height="66"
   id="svg1439"
   sodipodi:version="0.32"
   inkscape:version="0.43"
   version="1.0"
   sodipodi:docbase="/home/danny"
   sodipodi:docname="card.svg">
  <defs
     id="defs1441" />
  <sodipodi:namedview
     id="base"
     pagecolor="#ffffff"
     bordercolor="#666666"
     borderopacity="1.0"
     inkscape:pageopacity="0.0"
     inkscape:pageshadow="2"
     inkscape:zoom="3.0834507"
     inkscape:cx="148.22428"
     inkscape:cy="31.593011"
     inkscape:document-units="px"
     inkscape:current-layer="layer1"
     inkscape:window-width="1024"
     inkscape:window-height="712"
     inkscape:window-x="0"
     inkscape:window-y="0" />
  <metadata
     id="metadata1444">
    <rdf:RDF>
      <cc:Work
         rdf:about="">
        <dc:format>image/svg+xml</dc:format>
        <dc:type
           rdf:resource="http://purl.org/dc/dcmitype/StillImage" />
      </cc:Work>
    </rdf:RDF>
  </metadata>
  <g
     inkscape:label="Layer 1"
     inkscape:groupmode="layer"
     id="layer1">
    <path
       style="color:#000000;fill:#ce8633;fill-opacity:1;fill-rule:evenodd;stroke:none;stroke-width:6.16239691;stroke-linecap:round;stroke-linejoin:round;marker:none;marker-start:none;marker-mid:none;marker-end:none;stroke-miterlimit:4;stroke-dashoffset:0;stroke-opacity:1;visibility:visible;display:inline;overflow:visible"
       d="M 97.515144,3.0746799 L 6.0034183,9.1361014 C 4.1970502,9.2552118 2.8184517,10.402547 2.9068505,11.730957 L 6.614583,65.999938 L 163.60242,65.999938 L 160.05766,12.724301 C 159.96913,11.39591 158.42114,10.415774 156.61477,10.534891 L 101.73218,14.143363 L 100.93767,5.284362 C 100.8492,3.9559839 99.321519,2.9555696 97.515144,3.0746799 z "
       id="path1457" />
    <path
       style="color:#000000;fill:#6a451a;fill-opacity:1;fill-rule:evenodd;stroke:none;stroke-width:6.16239691;stroke-linecap:round;stroke-linejoin:round;marker:none;marker-start:none;marker-mid:none;marker-end:none;stroke-miterlimit:4;stroke-dashoffset:0;stroke-opacity:1;visibility:visible;display:inline;overflow:visible"
       d="M 97.637377,1.067721 C 97.556351,1.0701407 97.474563,1.082609 97.392911,1.0879933 L 5.8608132,7.1291424 C 4.5651636,7.2145781 3.3725482,7.6612112 2.4382909,8.4468428 C 1.5040336,9.2324743 0.81843397,10.470934 0.91037922,11.852591 L 4.5977395,65.999938 L 8.6314264,65.999938 L 4.923694,11.629596 C 4.9243133,11.627909 4.9230616,11.611516 4.923694,11.609324 C 4.9394572,11.592963 4.9782653,11.564861 5.0459269,11.507962 C 5.2263558,11.356241 5.6149327,11.156463 6.1256512,11.122788 L 97.657749,5.0816389 C 98.157718,5.0486712 98.572886,5.1719723 98.778218,5.3046343 C 98.868051,5.3626748 98.905412,5.4071765 98.920823,5.4262682 C 98.92579,5.441513 98.935856,5.4516913 98.941195,5.4668128 L 99.735709,14.325813 C 99.82886,15.412987 100.78087,16.224995 101.87479,16.150322 L 156.75737,12.521578 C 157.25673,12.488649 157.68432,12.628045 157.89822,12.764845 C 157.96506,12.807596 158.01558,12.843586 158.04082,12.866207 C 158.04465,12.869924 158.05844,12.883566 158.06119,12.886479 C 158.06484,12.890702 158.06037,12.905746 158.06119,12.906752 L 161.58558,65.999938 L 165.61926,65.999938 L 162.07451,12.602667 C 161.98137,11.205129 161.11034,10.059864 160.07804,9.3996414 C 159.04573,8.7394193 157.79956,8.4417439 156.49254,8.527932 L 103.5453,12.035042 L 102.93414,5.1019112 C 102.84189,3.71679 101.98635,2.6240702 100.95804,1.9597027 C 99.994002,1.3368595 98.852764,1.031419 97.637377,1.067721 z "
       id="path2966" />
  </g>
</svg>
