<?xml version="1.0" encoding="UTF-8" standalone="no"?>
<!-- Created with Inkscape (http://www.inkscape.org/) -->
<svg
   xmlns:dc="http://purl.org/dc/elements/1.1/"
   xmlns:cc="http://web.resource.org/cc/"
   xmlns:rdf="http://www.w3.org/1999/02/22-rdf-syntax-ns#"
   xmlns:svg="http://www.w3.org/2000/svg"
   xmlns="http://www.w3.org/2000/svg"
   xmlns:sodipodi="http://inkscape.sourceforge.net/DTD/sodipodi-0.dtd"
   xmlns:inkscape="http://www.inkscape.org/namespaces/inkscape"
   width="211"
   height="134"
   id="svg1465"
   sodipodi:version="0.32"
   inkscape:version="0.43"
   version="1.0"
   sodipodi:docbase="/home/danny/work/kde/EDU/kanagram/kde4"
   sodipodi:docname="eyes6.svg">
  <defs
     id="defs1467" />
  <sodipodi:namedview
     id="base"
     pagecolor="#ffffff"
     bordercolor="#666666"
     borderopacity="1.0"
     inkscape:pageopacity="0.0"
     inkscape:pageshadow="2"
     inkscape:zoom="5.9800781"
     inkscape:cx="133.35896"
     inkscape:cy="20.021548"
     inkscape:document-units="px"
     inkscape:current-layer="layer1"
     inkscape:window-width="1024"
     inkscape:window-height="712"
     inkscape:window-x="0"
     inkscape:window-y="0" />
  <metadata
     id="metadata1470">
    <rdf:RDF>
      <cc:Work
         rdf:about="">
        <dc:format>image/svg+xml</dc:format>
        <dc:type
           rdf:resource="http://purl.org/dc/dcmitype/StillImage" />
      </cc:Work>
    </rdf:RDF>
  </metadata>
  <g
     inkscape:label="Layer 1"
     inkscape:groupmode="layer"
     id="layer1">
    <path
       inkscape:export-ydpi="58.500000"
       inkscape:export-xdpi="58.500000"
       inkscape:export-filename="/home/danny/work/kde/MOCKUPS/kmessedwords/eyes1.png"
       style="color:#000000;fill:#e6e6e6;fill-opacity:1;fill-rule:evenodd;stroke:none;stroke-width:2.02884388;stroke-linecap:round;stroke-linejoin:round;marker:none;marker-start:none;marker-mid:none;marker-end:none;stroke-miterlimit:4;stroke-dashoffset:0;stroke-opacity:1;visibility:visible;display:inline;overflow:visible"
       d="M 7.6690087,2.5840576 C 6.660735,2.5840576 5.8430493,3.1795573 5.8430493,3.9230945 L 5.8430493,88.302703 C 5.8430493,89.04624 6.660748,89.641746 7.6690087,89.64174 L 59.708851,89.64174 L 104.81005,122.65103 L 92.210928,89.64174 L 177.58464,89.64174 C 178.59296,89.64174 179.39034,89.046233 179.39034,88.302703 L 179.39034,3.9230945 C 179.39034,3.1795638 178.59296,2.5840576 177.58464,2.5840576 L 7.6690087,2.5840576 z "
       id="path2531"
       sodipodi:nodetypes="cccccccccccc" />
    <path
       style="color:#000000;fill:none;fill-opacity:1;fill-rule:evenodd;stroke:#b3b3b3;stroke-width:2.02884388;stroke-linecap:round;stroke-linejoin:round;stroke-miterlimit:4;stroke-dashoffset:0;stroke-opacity:1;marker:none;marker-start:none;marker-mid:none;marker-end:none;visibility:visible;display:inline;overflow:visible"
       d="M 7.6690087,2.5840576 C 6.660735,2.5840576 5.8430493,3.1795573 5.8430493,3.9230945 L 5.8430493,88.302703 C 5.8430493,89.04624 6.660748,89.641746 7.6690087,89.64174 L 59.708851,89.64174 L 104.81005,122.65103 L 92.210928,89.64174 L 177.58464,89.64174 C 178.59296,89.64174 179.39034,89.046233 179.39034,88.302703 L 179.39034,3.9230945 C 179.39034,3.1795638 178.59296,2.5840576 177.58464,2.5840576 L 7.6690087,2.5840576 z "
       id="rect3233" />
    <path
       style="font-size:12px;fill:#e6e6e6;fill-opacity:1;fill-rule:evenodd;stroke:none;stroke-width:4.38316965;stroke-linecap:round;stroke-linejoin:round;stroke-miterlimit:4;stroke-opacity:1"
       d="M 143.1875,105.3125 C 136.88743,105.56665 131.35755,110.42585 130.21875,117.03125 C 128.91728,124.58027 133.78193,131.85365 141.15625,133.125 C 148.5306,134.39637 155.54227,129.14277 156.84375,121.59375 C 158.14521,114.04472 153.28059,106.77136 145.90625,105.5 C 144.98446,105.34108 144.08751,105.27619 143.1875,105.3125 z M 145.1875,109.8125 C 150.11916,110.66274 153.44721,115.56203 152.53125,120.875 C 151.61527,126.18796 146.83791,129.66274 141.90625,128.8125 C 136.97461,127.96227 133.64654,123.06296 134.5625,117.75 C 135.47848,112.43703 140.25585,108.96227 145.1875,109.8125 z "
       id="path2210" />
    <path
       style="font-size:12px;fill:#e6e6e6;fill-opacity:1;fill-rule:evenodd;stroke:none;stroke-width:4.38316965;stroke-linecap:round;stroke-linejoin:round;stroke-miterlimit:4;stroke-opacity:1"
       d="M 123.5 102.125 C 123.11894 102.13485 122.72847 102.17448 122.34375 102.21875 C 116.18826 102.92708 111.26944 107.8666 110.3125 114.125 C 109.35554 120.38341 112.58177 126.53551 118.25 129.03125 C 123.63305 131.40143 129.90863 129.86354 133.75 125.375 C 133.01945 124.07765 132.51791 122.65494 132.3125 121.125 C 131.73618 121.19585 131.18626 121.4972 130.8125 122 C 128.19987 125.50711 123.81942 126.6992 120.03125 125.03125 C 116.24308 123.36331 113.98495 119.1715 114.65625 114.78125 C 115.32754 110.391 118.7254 107.06766 122.84375 106.59375 C 126.9621 106.11984 130.80505 108.53975 132.25 112.65625 C 132.41733 113.30691 132.87146 113.82308 133.46875 114.09375 C 134.13694 112.72153 135.04289 111.49496 136.125 110.5 C 133.99026 105.33524 128.96816 101.98365 123.5 102.125 z "
       id="path2212" />
    <path
       style="color:#000000;fill:#e6e6e6;fill-opacity:1;fill-rule:evenodd;stroke:none;stroke-width:2.46781564;stroke-linecap:round;stroke-linejoin:round;marker:none;marker-start:none;marker-mid:none;marker-end:none;stroke-miterlimit:4;stroke-dashoffset:0;stroke-opacity:1;visibility:visible;display:inline;overflow:visible"
       d="M 121.27309,111.72429 C 119.20797,111.36826 117.22041,112.77135 116.86434,114.83642 C 116.50831,116.90154 117.91134,118.88914 119.97647,119.24517 C 122.04159,119.6012 124.02914,118.19814 124.38522,116.13304 C 124.74125,114.06792 123.33822,112.08033 121.27309,111.72429 z "
       id="path2214"
       sodipodi:nodetypes="csssc" />
    <path
       style="color:#000000;fill:#e6e6e6;fill-opacity:1;fill-rule:evenodd;stroke:none;stroke-width:2.46781564;stroke-linecap:round;stroke-linejoin:round;marker:none;marker-start:none;marker-mid:none;marker-end:none;stroke-miterlimit:4;stroke-dashoffset:0;stroke-opacity:1;visibility:visible;display:inline;overflow:visible"
       d="M 141.58389,115.22589 C 139.51877,114.86986 137.53121,116.27295 137.17514,118.33802 C 136.81911,120.40314 138.22214,122.39074 140.28727,122.74677 C 142.35239,123.1028 144.33994,121.69974 144.69602,119.63464 C 145.05205,117.56952 143.64902,115.58193 141.58389,115.22589 z "
       id="path2216"
       sodipodi:nodetypes="csssc" />
  </g>
</svg>
