<?xml version="1.0" encoding="UTF-8" standalone="no"?>
<!-- Created with Inkscape (http://www.inkscape.org/) -->
<svg
   xmlns:dc="http://purl.org/dc/elements/1.1/"
   xmlns:cc="http://web.resource.org/cc/"
   xmlns:rdf="http://www.w3.org/1999/02/22-rdf-syntax-ns#"
   xmlns:svg="http://www.w3.org/2000/svg"
   xmlns="http://www.w3.org/2000/svg"
   xmlns:sodipodi="http://inkscape.sourceforge.net/DTD/sodipodi-0.dtd"
   xmlns:inkscape="http://www.inkscape.org/namespaces/inkscape"
   width="211"
   height="134"
   id="svg1465"
   sodipodi:version="0.32"
   inkscape:version="0.43"
   version="1.0"
   sodipodi:docbase="/home/danny/work/kde/EDU/kanagram/kde4"
   sodipodi:docname="eyes8.svg">
  <defs
     id="defs1467" />
  <sodipodi:namedview
     id="base"
     pagecolor="#ffffff"
     bordercolor="#666666"
     borderopacity="1.0"
     inkscape:pageopacity="0.0"
     inkscape:pageshadow="2"
     inkscape:zoom="15.683601"
     inkscape:cx="115.3007"
     inkscape:cy="6.9120389"
     inkscape:document-units="px"
     inkscape:current-layer="layer1"
     inkscape:window-width="1024"
     inkscape:window-height="712"
     inkscape:window-x="0"
     inkscape:window-y="0" />
  <metadata
     id="metadata1470">
    <rdf:RDF>
      <cc:Work
         rdf:about="">
        <dc:format>image/svg+xml</dc:format>
        <dc:type
           rdf:resource="http://purl.org/dc/dcmitype/StillImage" />
      </cc:Work>
    </rdf:RDF>
  </metadata>
  <g
     inkscape:label="Layer 1"
     inkscape:groupmode="layer"
     id="layer1">
    <path
       inkscape:export-ydpi="58.500000"
       inkscape:export-xdpi="58.500000"
       inkscape:export-filename="/home/danny/work/kde/MOCKUPS/kmessedwords/eyes1.png"
       style="color:#000000;fill:#e6e6e6;fill-opacity:1;fill-rule:evenodd;stroke:none;stroke-width:2.02884388;stroke-linecap:round;stroke-linejoin:round;marker:none;marker-start:none;marker-mid:none;marker-end:none;stroke-miterlimit:4;stroke-dashoffset:0;stroke-opacity:1;visibility:visible;display:inline;overflow:visible"
       d="M 7.669018,2.9415302 C 6.6607444,2.9415302 5.8430587,3.53703 5.8430587,4.2805671 L 5.8430587,88.660179 C 5.8430587,89.403716 6.6607574,89.999222 7.669018,89.999216 L 46.72426,89.999216 L 91.825457,123.0085 L 79.226337,89.999216 L 177.58465,89.999216 C 178.59297,89.999216 179.39035,89.403709 179.39035,88.660179 L 179.39035,4.2805671 C 179.39035,3.5370365 178.59297,2.9415302 177.58465,2.9415302 L 7.669018,2.9415302 z "
       id="rect3233"
       sodipodi:nodetypes="cccccccccccc" />
    <path
       id="text1434"
       d="M 114.2731,110.83259 L 117.57018,112.17931 L 117.22558,113.02298 L 114.38815,114.28179 L 116.37923,115.09505 L 116.02635,115.95898 L 112.6449,114.57781 L 112.9895,113.73413 L 115.82693,112.47532 L 113.92022,111.69652 L 114.2731,110.83259"
       style="font-size:11.49931717px;font-style:normal;font-variant:normal;font-weight:bold;font-stretch:normal;line-height:100%;writing-mode:lr-tb;text-anchor:start;fill:#e6e6e6;fill-opacity:1;stroke:none;stroke-width:1pt;stroke-linecap:butt;stroke-linejoin:miter;stroke-opacity:1;font-family:Bitstream Vera Sans" />
    <path
       id="text2196"
       d="M 107.98301,103.86517 L 112.74759,103.29955 L 112.89232,104.51874 L 110.37051,107.85463 L 113.24779,107.51305 L 113.396,108.7615 L 108.50951,109.3416 L 108.36478,108.12241 L 110.88658,104.78652 L 108.13122,105.11362 L 107.98301,103.86517"
       style="font-size:15.49171734px;font-style:normal;font-variant:normal;font-weight:bold;font-stretch:normal;line-height:100%;writing-mode:lr-tb;text-anchor:start;fill:#e6e6e6;fill-opacity:1;stroke:none;stroke-width:1pt;stroke-linecap:butt;stroke-linejoin:miter;stroke-opacity:1;font-family:Bitstream Vera Sans" />
    <path
       style="font-size:12px;fill:#e6e6e6;fill-opacity:1;fill-rule:evenodd;stroke:none;stroke-width:1.99530005;stroke-linecap:round;stroke-linejoin:round;stroke-miterlimit:4;stroke-opacity:1"
       d="M 118.6875,118.78125 C 114.76055,118.10424 111.00766,120.90527 110.3125,124.9375 C 109.61734,128.96973 112.19805,132.85423 116.125,133.53125 C 120.05195,134.20826 123.80484,131.40723 124.5,127.375 C 125.19516,123.34277 122.61445,119.45827 118.6875,118.78125 z M 118.34375,120.75 C 121.15874,121.23532 123.05093,124.01691 122.53125,127.03125 C 122.01157,130.04558 119.28374,132.04781 116.46875,131.5625 C 113.65376,131.07718 111.76158,128.29558 112.28125,125.28125 C 112.80093,122.26692 115.52876,120.26469 118.34375,120.75 z "
       id="path840" />
    <path
       style="font-size:12px;fill:#e6e6e6;fill-opacity:1;fill-rule:evenodd;stroke:none;stroke-width:1.99530005;stroke-linecap:round;stroke-linejoin:round;stroke-miterlimit:4;stroke-opacity:1"
       d="M 105.96875 116.96875 C 105.91764 116.97349 105.86372 116.99411 105.8125 117 C 102.53452 117.37721 99.917284 120.00155 99.40625 123.34375 C 98.895208 126.68594 100.60669 129.98354 103.625 131.3125 C 106.50183 132.57917 109.88847 131.72981 111.9375 129.3125 C 111.9328 129.30344 111.94216 129.29033 111.9375 129.28125 C 111.63076 128.68342 111.39322 128.02692 111.28125 127.34375 C 111.26529 127.34584 111.23459 127.3409 111.21875 127.34375 C 111.19509 127.3486 111.14828 127.36847 111.125 127.375 C 111.10187 127.38209 111.05386 127.39749 111.03125 127.40625 C 110.96399 127.43419 110.87305 127.48862 110.8125 127.53125 C 110.80587 127.53616 110.78777 127.55741 110.78125 127.5625 C 110.71712 127.6152 110.64499 127.67989 110.59375 127.75 C 109.10911 129.74292 106.59997 130.4209 104.4375 129.46875 C 102.27503 128.51661 100.99399 126.14802 101.375 123.65625 C 101.756 121.16446 103.71186 119.27049 106.0625 119 C 108.41312 118.72951 110.585 120.12908 111.40625 122.46875 C 111.41218 122.48493 111.43083 122.51557 111.4375 122.53125 C 111.44453 122.54668 111.46103 122.57884 111.46875 122.59375 C 111.47681 122.6084 111.49128 122.64214 111.5 122.65625 C 111.52259 122.69085 111.56744 122.75017 111.59375 122.78125 C 111.59915 122.78732 111.61946 122.80658 111.625 122.8125 C 111.63067 122.81827 111.65045 122.83813 111.65625 122.84375 C 111.66217 122.84922 111.68146 122.86968 111.6875 122.875 C 111.71831 122.90082 111.77898 122.94692 111.8125 122.96875 C 111.82611 122.97715 111.86102 122.99226 111.875 123 C 111.88916 123.0074 111.92301 123.02453 111.9375 123.03125 C 111.95215 123.03762 111.98506 123.05684 112 123.0625 C 112.30683 122.49542 112.71305 121.97393 113.15625 121.53125 C 113.15243 121.52156 113.1601 121.50967 113.15625 121.5 C 111.98052 118.55079 109.08671 116.67943 105.96875 116.96875 z "
       id="path841" />
    <path
       style="color:#000000;fill:#e6e6e6;fill-opacity:1;fill-rule:evenodd;stroke:none;stroke-width:0.63250828;stroke-linecap:round;stroke-linejoin:round;marker:none;marker-start:none;marker-mid:none;marker-end:none;stroke-miterlimit:4;stroke-dashoffset:0;stroke-opacity:1;visibility:visible;display:inline;overflow:visible"
       d="M 106.3125,126.875 C 105.92427,126.85778 105.56063,126.88109 105.25,126.9375 C 105.09469,126.9657 104.96725,127.01305 104.84375,127.0625 C 104.72025,127.11195 104.5973,127.16732 104.5,127.3125 C 104.45135,127.3851 104.42492,127.49033 104.4375,127.59375 C 104.45008,127.69717 104.48017,127.78753 104.53125,127.84375 C 104.63341,127.95618 104.75,127.98569 104.875,128.03125 C 105.12501,128.12236 105.45552,128.17028 105.84375,128.1875 C 106.23198,128.20472 106.59562,128.18141 106.90625,128.125 C 107.06156,128.0968 107.22025,128.0807 107.34375,128.03125 C 107.46725,127.9818 107.55895,127.92643 107.65625,127.78125 C 107.7049,127.70865 107.76258,127.60342 107.75,127.5 C 107.73742,127.39658 107.67608,127.30622 107.625,127.25 C 107.52284,127.13756 107.40625,127.10806 107.28125,127.0625 C 107.03124,126.97139 106.70073,126.89222 106.3125,126.875 z "
       id="path2463"
       sodipodi:nodetypes="csssssssssssssc" />
    <path
       style="color:#000000;fill:#e6e6e6;fill-opacity:1;fill-rule:evenodd;stroke:none;stroke-width:0.63250828;stroke-linecap:round;stroke-linejoin:round;marker:none;marker-start:none;marker-mid:none;marker-end:none;stroke-miterlimit:4;stroke-dashoffset:0;stroke-opacity:1;visibility:visible;display:inline;overflow:visible"
       d="M 117.375,128.8125 C 116.98677,128.79528 116.59188,128.81859 116.28125,128.875 C 116.12594,128.9032 115.9985,128.9193 115.875,128.96875 C 115.7515,129.0182 115.62855,129.07357 115.53125,129.21875 C 115.4826,129.29134 115.45617,129.39658 115.46875,129.5 C 115.48133,129.60342 115.54267,129.69378 115.59375,129.75 C 115.69591,129.86243 115.78125,129.9232 115.90625,129.96875 C 116.15626,130.05986 116.48677,130.10778 116.875,130.125 C 117.26323,130.14222 117.65812,130.11891 117.96875,130.0625 C 118.12406,130.0343 118.2515,129.98695 118.375,129.9375 C 118.4985,129.88805 118.62145,129.83268 118.71875,129.6875 C 118.7674,129.6149 118.79383,129.50967 118.78125,129.40625 C 118.76867,129.30283 118.70733,129.24372 118.65625,129.1875 C 118.55409,129.07507 118.46875,129.0143 118.34375,128.96875 C 118.09374,128.87764 117.76323,128.82972 117.375,128.8125 z "
       id="path2204"
       sodipodi:nodetypes="csssssssssssssc" />
    <path
       style="color:#000000;fill:#b3b3b3;fill-opacity:1;fill-rule:evenodd;stroke:none;stroke-width:2.02884388;stroke-linecap:round;stroke-linejoin:round;marker:none;marker-start:none;marker-mid:none;marker-end:none;stroke-miterlimit:4;stroke-dashoffset:0;stroke-opacity:1;visibility:visible;display:inline;overflow:visible"
       d="M 7.65625,1.9375 C 6.9524029,1.9375 6.3108721,2.1124391 5.78125,2.5 C 5.2516279,2.8875609 4.84375,3.53762 4.84375,4.28125 L 4.84375,88.65625 C 4.8437501,89.399886 5.2516275,90.04994 5.78125,90.4375 C 6.3108725,90.82506 6.9524031,91.000004 7.65625,91 L 46.375,91 L 91.21875,123.8125 C 91.577516,124.08119 92.070084,124.0826 92.430386,123.81598 C 92.790689,123.54935 92.933326,123.07789 92.78125,122.65625 L 80.71875,91 L 177.59375,91 C 178.29761,91.000001 178.94283,90.828354 179.46875,90.4375 C 179.99467,90.046646 180.40625,89.390645 180.40625,88.65625 L 180.40625,4.28125 C 180.40625,3.5468547 179.99467,2.9221038 179.46875,2.53125 C 178.94283,2.1403962 178.29761,1.9375 177.59375,1.9375 L 7.65625,1.9375 z M 7.65625,3.96875 L 177.59375,3.96875 C 177.89821,3.96875 178.12515,4.063468 178.25,4.15625 C 178.37485,4.249032 178.375,4.2721146 178.375,4.28125 L 178.375,88.65625 C 178.375,88.665385 178.37484,88.688468 178.25,88.78125 C 178.12516,88.874032 177.8982,89.000001 177.59375,89 L 79.21875,89 C 78.88712,89.003531 78.578153,89.16893 78.391323,89.442948 C 78.204493,89.716965 78.163391,90.065 78.28125,90.375 L 89.65625,120.15625 L 47.3125,89.1875 C 47.139129,89.064309 46.931428,88.998719 46.71875,89 L 7.65625,89 C 7.3518363,89.000002 7.100042,88.877325 6.96875,88.78125 C 6.837458,88.685175 6.84375,88.656151 6.84375,88.65625 L 6.84375,4.28125 C 6.84375,4.2813429 6.8374609,4.2523232 6.96875,4.15625 C 7.1000391,4.0601768 7.3518237,3.96875 7.65625,3.96875 z "
       id="path3296" />
  </g>
</svg>
