<?xml version="1.0" encoding="UTF-8" standalone="no"?>
<!-- Created with Inkscape (http://www.inkscape.org/) -->
<svg
   xmlns:dc="http://purl.org/dc/elements/1.1/"
   xmlns:cc="http://web.resource.org/cc/"
   xmlns:rdf="http://www.w3.org/1999/02/22-rdf-syntax-ns#"
   xmlns:svg="http://www.w3.org/2000/svg"
   xmlns="http://www.w3.org/2000/svg"
   xmlns:xlink="http://www.w3.org/1999/xlink"
   xmlns:sodipodi="http://inkscape.sourceforge.net/DTD/sodipodi-0.dtd"
   xmlns:inkscape="http://www.inkscape.org/namespaces/inkscape"
   width="211"
   height="134"
   id="svg1465"
   sodipodi:version="0.32"
   inkscape:version="0.43"
   version="1.0"
   sodipodi:docbase="/home/danny/work/kde/EDU/kanagram/kde4"
   sodipodi:docname="eyes4.svg">
  <defs
     id="defs1467">
    <pattern
       id="pattern1350"
       height="135"
       width="211"
       patternUnits="userSpaceOnUse"
       inkscape:collect="always"
       patternTransform="translate(-17.73022,38.01079)">
      <image
         id="image1352"
         height="135"
         width="211"
         sodipodi:absref="/home/danny/work/kde/EDU/kanagram/kde4/eyes3.png"
         xlink:href="eyes3.png" />
    </pattern>
    <pattern
       id="pattern1399"
       height="135"
       width="211"
       patternUnits="userSpaceOnUse"
       inkscape:collect="always"
       patternTransform="translate(3.148804e-6,-0.500001)">
      <image
         id="image1401"
         height="135"
         width="211"
         sodipodi:absref="/home/danny/work/kde/EDU/kanagram/kde4/eyes4.png"
         xlink:href="eyes4.png" />
    </pattern>
  </defs>
  <sodipodi:namedview
     id="base"
     pagecolor="#ffffff"
     bordercolor="#666666"
     borderopacity="1.0"
     inkscape:pageopacity="0"
     inkscape:pageshadow="2"
     inkscape:zoom="3.475"
     inkscape:cx="111.37432"
     inkscape:cy="35.389796"
     inkscape:document-units="px"
     inkscape:current-layer="layer1"
     inkscape:window-width="1024"
     inkscape:window-height="712"
     inkscape:window-x="0"
     inkscape:window-y="0"
     showborder="true" />
  <metadata
     id="metadata1470">
    <rdf:RDF>
      <cc:Work
         rdf:about="">
        <dc:format>image/svg+xml</dc:format>
        <dc:type
           rdf:resource="http://purl.org/dc/dcmitype/StillImage" />
      </cc:Work>
    </rdf:RDF>
  </metadata>
  <g
     inkscape:label="Layer 1"
     inkscape:groupmode="layer"
     id="layer1">
    <path
       inkscape:export-ydpi="58.500000"
       inkscape:export-xdpi="58.500000"
       inkscape:export-filename="/home/danny/work/kde/MOCKUPS/kmessedwords/eyes1.png"
       style="color:#000000;fill:#e6e6e6;fill-opacity:1;fill-rule:evenodd;stroke:none;stroke-width:2.02884388;stroke-linecap:round;stroke-linejoin:round;marker:none;marker-start:none;marker-mid:none;marker-end:none;stroke-miterlimit:4;stroke-dashoffset:0;stroke-opacity:1;visibility:visible;display:inline;overflow:visible"
       d="M 7.6690176,2.5840617 C 6.6607439,2.5840617 5.8430582,3.1795614 5.8430582,3.9230985 L 5.8430582,88.302709 C 5.8430582,89.046247 6.6607569,89.641753 7.6690176,89.641746 L 14.26276,89.641746 L 59.363957,122.65103 L 46.764837,89.641746 L 177.58465,89.641746 C 178.59297,89.641746 179.39035,89.04624 179.39035,88.302709 L 179.39035,3.9230985 C 179.39035,3.1795679 178.59297,2.5840617 177.58465,2.5840617 L 7.6690176,2.5840617 z "
       id="path1675"
       sodipodi:nodetypes="cccccccccccc" />
    <path
       style="font-size:12px;fill:#e6e6e6;fill-opacity:1;fill-rule:evenodd;stroke:none;stroke-width:3.24614549;stroke-linecap:round;stroke-linejoin:round;stroke-miterlimit:4;stroke-opacity:1"
       d="M 93.15625,107.6875 C 87.69487,106.74595 82.49511,110.62799 81.53125,116.21875 C 80.56739,121.80951 84.16362,127.18344 89.625,128.125 C 95.08639,129.06656 100.28614,125.21576 101.25,119.625 C 102.21387,114.03425 98.61764,108.62906 93.15625,107.6875 z M 92.59375,110.875 C 96.2461,111.50468 98.70961,115.12776 98.03125,119.0625 C 97.35289,122.99724 93.8086,125.56718 90.15625,124.9375 C 86.50391,124.30782 84.04039,120.68474 84.71875,116.75 C 85.39711,112.81526 88.94141,110.24533 92.59375,110.875 z "
       id="path840" />
    <path
       style="font-size:12px;fill:#e6e6e6;fill-opacity:1;fill-rule:evenodd;stroke:none;stroke-width:3.24614549;stroke-linecap:round;stroke-linejoin:round;stroke-miterlimit:4;stroke-opacity:1"
       d="M 76.3125,105.1875 C 76.10019,105.19773 75.90119,105.22541 75.6875,105.25 C 71.12878,105.77458 67.489953,109.42756 66.78125,114.0625 C 66.072535,118.69743 68.458395,123.27667 72.65625,125.125 C 76.63715,126.8778 81.28019,125.72103 84.125,122.40625 C 83.5822,121.43479 83.20837,120.33287 83.0625,119.1875 C 82.61547,119.2626 82.21918,119.51316 81.96875,119.90625 C 80.03385,122.50359 76.77424,123.39152 73.96875,122.15625 C 71.16325,120.92098 69.502839,117.81389 70,114.5625 C 70.49715,111.3111 73.01248,108.85098 76.0625,108.5 C 79.11252,108.14904 81.96113,109.95135 83.03125,113 C 83.1917,113.44927 83.52927,113.79871 83.9375,113.96875 C 83.93995,113.96383 83.96629,113.97366 83.96875,113.96875 C 84.46166,112.98565 85.12393,112.12272 85.90625,111.40625 C 85.91049,111.40237 85.90201,111.37887 85.90625,111.375 C 84.29594,107.48579 80.4444,104.98842 76.3125,105.1875 z "
       id="path841" />
    <path
       style="color:#000000;fill:#e6e6e6;fill-opacity:1;fill-rule:evenodd;stroke:none;stroke-width:2.46781564;stroke-linecap:round;stroke-linejoin:round;marker:none;marker-start:none;marker-mid:none;marker-end:none;stroke-miterlimit:4;stroke-dashoffset:0;stroke-opacity:1;visibility:visible;display:inline;overflow:visible"
       d="M 72.00458,112.29421 C 70.47517,112.03054 69.003191,113.06965 68.739486,114.59903 C 68.47581,116.12845 69.514885,117.60045 71.04431,117.86413 C 72.57372,118.1278 74.04568,117.0887 74.3094,115.55931 C 74.57307,114.02989 73.534,112.55789 72.00458,112.29421 z "
       id="path2463"
       sodipodi:nodetypes="csssc" />
    <path
       style="color:#000000;fill:#e6e6e6;fill-opacity:1;fill-rule:evenodd;stroke:none;stroke-width:2.46781564;stroke-linecap:round;stroke-linejoin:round;marker:none;marker-start:none;marker-mid:none;marker-end:none;stroke-miterlimit:4;stroke-dashoffset:0;stroke-opacity:1;visibility:visible;display:inline;overflow:visible"
       d="M 87.04658,114.88751 C 85.51716,114.62384 84.04519,115.66295 83.78149,117.19233 C 83.51781,118.72176 84.55688,120.19376 86.08631,120.45743 C 87.61573,120.7211 89.08769,119.68201 89.3514,118.15261 C 89.61508,116.62319 88.576,115.15118 87.04658,114.88751 z "
       id="path3223"
       sodipodi:nodetypes="csssc" />
    <path
       style="color:#000000;fill:#b3b3b3;fill-opacity:1;fill-rule:evenodd;stroke:none;stroke-width:2.02884388;stroke-linecap:round;stroke-linejoin:round;marker:none;marker-start:none;marker-mid:none;marker-end:none;stroke-miterlimit:4;stroke-dashoffset:0;stroke-opacity:1;visibility:visible;display:inline;overflow:visible"
       d="M 7.65625,1.5625 C 6.9524028,1.5625001 6.3108722,1.7686891 5.78125,2.15625 C 5.2516278,2.5438109 4.84375,3.19387 4.84375,3.9375 L 4.84375,88.3125 C 4.8437501,89.056136 5.2516274,89.67494 5.78125,90.0625 C 6.3108726,90.45006 6.9524027,90.656255 7.65625,90.65625 L 13.90625,90.65625 L 58.75,123.46875 C 59.113069,123.75297 59.62214,123.75662 59.989241,123.47762 C 60.356341,123.19862 60.489134,122.70716 60.3125,122.28125 L 48.25,90.65625 L 177.59375,90.65625 C 178.29761,90.65625 178.94283,90.453354 179.46875,90.0625 C 179.99467,89.671646 180.40625,89.046895 180.40625,88.3125 L 180.40625,3.9375 C 180.40625,3.2031047 179.99467,2.5471038 179.46875,2.15625 C 178.94283,1.7653962 178.29761,1.5625 177.59375,1.5625 L 7.65625,1.5625 z M 7.65625,3.59375 L 177.59375,3.59375 C 177.89821,3.59375 178.12515,3.688468 178.25,3.78125 C 178.37485,3.874032 178.375,3.9283646 178.375,3.9375 L 178.375,88.3125 C 178.375,88.321636 178.37485,88.344718 178.25,88.4375 C 178.12515,88.530282 177.8982,88.625 177.59375,88.625 L 46.75,88.625 C 46.41837,88.628531 46.109403,88.79393 45.922573,89.067948 C 45.735743,89.341965 45.694641,89.69 45.8125,90 L 57.1875,119.8125 L 14.875,88.8125 C 14.692999,88.68288 14.473297,88.616969 14.25,88.625 L 7.65625,88.625 C 7.3518366,88.625002 7.100042,88.533575 6.96875,88.4375 C 6.837458,88.341425 6.84375,88.3124 6.84375,88.3125 L 6.84375,3.9375 C 6.84375,3.9375929 6.8374609,3.8773233 6.96875,3.78125 C 7.1000391,3.6851767 7.3518233,3.59375 7.65625,3.59375 z "
       id="rect3233"
       sodipodi:nodetypes="csccscccscccsccsccccsccsccscccccsccsc" />
  </g>
</svg>
