<?xml version="1.0" encoding="UTF-8" standalone="no"?>
<!-- Created with Inkscape (http://www.inkscape.org/) -->
<svg
   xmlns:dc="http://purl.org/dc/elements/1.1/"
   xmlns:cc="http://web.resource.org/cc/"
   xmlns:rdf="http://www.w3.org/1999/02/22-rdf-syntax-ns#"
   xmlns:svg="http://www.w3.org/2000/svg"
   xmlns="http://www.w3.org/2000/svg"
   xmlns:sodipodi="http://inkscape.sourceforge.net/DTD/sodipodi-0.dtd"
   xmlns:inkscape="http://www.inkscape.org/namespaces/inkscape"
   width="39"
   height="39"
   id="svg1448"
   sodipodi:version="0.32"
   inkscape:version="0.43"
   sodipodi:docbase="/home/danny/work/kde/EDU/kanagram/kde4"
   sodipodi:docname="helpover.svg"
   version="1.0">
  <defs
     id="defs1450" />
  <sodipodi:namedview
     id="base"
     pagecolor="#ffffff"
     bordercolor="#666666"
     borderopacity="1.0"
     inkscape:pageopacity="0.0"
     inkscape:pageshadow="2"
     inkscape:zoom="5.9800781"
     inkscape:cx="63.079697"
     inkscape:cy="9.1350352"
     inkscape:document-units="px"
     inkscape:current-layer="layer1"
     inkscape:window-width="1024"
     inkscape:window-height="712"
     inkscape:window-x="0"
     inkscape:window-y="0" />
  <metadata
     id="metadata1453">
    <rdf:RDF>
      <cc:Work
         rdf:about="">
        <dc:format>image/svg+xml</dc:format>
        <dc:type
           rdf:resource="http://purl.org/dc/dcmitype/StillImage" />
      </cc:Work>
    </rdf:RDF>
  </metadata>
  <g
     inkscape:label="Layer 1"
     inkscape:groupmode="layer"
     id="layer1">
    <path
       id="rect7103"
       d="M -1.505418e-06,7.242488e-05 L 38.999917,7.242488e-05 L 38.999917,38.999991 L -1.505418e-06,38.999991 L -1.505418e-06,7.242488e-05 z "
       style="color:#000000;fill:#b3b3b3;fill-opacity:1;fill-rule:evenodd;stroke:none;stroke-width:1;stroke-linecap:square;stroke-linejoin:round;marker:none;marker-start:none;marker-mid:none;marker-end:none;stroke-miterlimit:4;stroke-dashoffset:0;stroke-opacity:1;visibility:visible;display:inline;overflow:visible" />
    <path
       style="font-size:12px;fill:#373737;fill-opacity:1;fill-rule:evenodd;stroke:none;stroke-width:5.00000143;stroke-linecap:round;stroke-linejoin:round;stroke-miterlimit:4;stroke-opacity:1"
       d="M 19.50004,8.242509e-05 C 8.7519233,9.24253e-05 8.0996314e-05,8.7520262 8.0996314e-05,19.500042 C 8.0996314e-05,30.248068 8.7519233,39.000001 19.50004,39.000001 C 30.248028,39.000021 38.999999,30.248058 38.999999,19.500042 C 38.999999,8.7520362 30.248028,8.242509e-05 19.50004,8.242509e-05 z M 19.114071,4.0625777 C 20.457163,4.0625777 21.757745,4.2716621 22.932813,4.6719505 C 24.106126,5.0716789 25.149894,5.6582112 26.060932,6.4391276 C 26.974895,7.2225441 27.684889,8.1607938 28.193773,9.2828774 C 28.722287,10.406111 28.965646,11.670107 28.965646,13.020366 C 28.965581,15.416016 28.366087,17.338737 27.0969,18.728166 C 25.946012,19.989292 24.358195,20.804259 22.445315,21.267229 L 22.445315,21.673478 C 22.445315,22.339362 22.280799,22.947944 21.97816,23.481286 C 21.684101,24.010487 21.258027,24.425795 20.739068,24.720342 C 20.732308,24.720482 20.725548,24.720482 20.718788,24.720342 C 20.200999,25.008018 19.630495,25.167221 18.992196,25.167221 C 18.353963,25.167211 17.753689,25.006118 17.225045,24.720342 C 17.21822,24.720482 17.21146,24.720482 17.2047,24.720342 C 16.693931,24.422405 16.283912,24.012337 15.985953,23.501596 C 15.985823,23.494826 15.985823,23.488056 15.985953,23.481286 C 15.697028,22.946844 15.539079,22.333341 15.539079,21.673478 L 15.539079,18.646914 C 15.539079,17.96049 15.664268,17.345517 16.026578,16.879737 C 16.342932,16.473008 16.753016,16.197493 17.2047,16.046919 C 17.612964,15.910837 18.178528,15.758353 18.931292,15.62036 C 19.828615,15.453557 20.454888,15.156391 20.840663,14.767243 C 21.226372,14.378084 21.429692,13.892954 21.429692,13.20318 C 21.429692,12.700479 21.226502,12.27838 20.779693,11.842241 C 20.772738,11.835671 20.765978,11.828901 20.759412,11.821931 C 20.349394,11.401932 19.841485,11.212558 19.114071,11.212558 C 18.412138,11.212568 17.925744,11.33447 17.59067,11.557875 C 17.224395,11.80901 16.846031,12.213239 16.432827,12.75631 C 15.992712,13.338793 15.534334,13.805942 15.092204,14.137549 C 14.595996,14.505727 13.954252,14.64536 13.223458,14.64536 C 12.345831,14.64536 11.563557,14.272852 10.948463,13.629739 C 10.347085,12.972355 10.034435,12.158068 10.034435,11.273499 C 10.03437,9.8140685 10.518294,8.4986109 11.476587,7.3938177 C 12.41395,6.313265 13.575888,5.4837976 14.97033,4.9156957 C 16.352487,4.3525938 17.729509,4.0625777 19.114071,4.0625777 z M 18.931292,27.300026 C 19.5978,27.300036 20.245914,27.49818 20.820318,27.848457 C 21.393942,28.198175 21.829766,28.650024 22.16094,29.229706 C 22.512914,29.806818 22.689064,30.462042 22.689064,31.139076 C 22.689064,31.826701 22.512784,32.477704 22.16094,33.068767 C 21.824306,33.643959 21.361962,34.097008 20.779693,34.429695 C 20.206589,34.765212 19.581161,34.937506 18.931292,34.937506 C 18.281358,34.937516 17.647089,34.763752 17.062546,34.429695 C 16.500102,34.100489 16.013773,33.667539 15.660953,33.089077 C 15.660823,33.082307 15.660823,33.075537 15.660953,33.068767 C 15.322629,32.476544 15.153175,31.820861 15.153175,31.139076 C 15.153175,30.468002 15.322499,29.828399 15.660953,29.250017 C 15.660823,29.243247 15.660823,29.236486 15.660953,29.229706 C 16.010718,28.642244 16.497242,28.193114 17.062546,27.848457 C 17.636949,27.49816 18.264718,27.300026 18.931292,27.300026 z "
       id="path839"
       inkscape:export-filename="/home/danny/work/kde/kanagram/help.png"
       inkscape:export-xdpi="58.500000"
       inkscape:export-ydpi="58.500000" />
  </g>
</svg>
