<?xml version="1.0" encoding="UTF-8" standalone="no"?>
<!-- Created with Inkscape (http://www.inkscape.org/) -->
<svg
   xmlns:dc="http://purl.org/dc/elements/1.1/"
   xmlns:cc="http://web.resource.org/cc/"
   xmlns:rdf="http://www.w3.org/1999/02/22-rdf-syntax-ns#"
   xmlns:svg="http://www.w3.org/2000/svg"
   xmlns="http://www.w3.org/2000/svg"
   xmlns:sodipodi="http://inkscape.sourceforge.net/DTD/sodipodi-0.dtd"
   xmlns:inkscape="http://www.inkscape.org/namespaces/inkscape"
   width="39"
   height="39"
   id="svg1448"
   sodipodi:version="0.32"
   inkscape:version="0.43"
   sodipodi:docbase="/home/danny/work/kde/EDU/kanagram/kde4"
   sodipodi:docname="help.svg"
   version="1.0">
  <defs
     id="defs1450" />
  <sodipodi:namedview
     id="base"
     pagecolor="#ffffff"
     bordercolor="#666666"
     borderopacity="1.0"
     inkscape:pageopacity="0.0"
     inkscape:pageshadow="2"
     inkscape:zoom="5.9800781"
     inkscape:cx="63.079697"
     inkscape:cy="9.1350352"
     inkscape:document-units="px"
     inkscape:current-layer="layer1"
     inkscape:window-width="1024"
     inkscape:window-height="712"
     inkscape:window-x="0"
     inkscape:window-y="0" />
  <metadata
     id="metadata1453">
    <rdf:RDF>
      <cc:Work
         rdf:about="">
        <dc:format>image/svg+xml</dc:format>
        <dc:type
           rdf:resource="http://purl.org/dc/dcmitype/StillImage" />
      </cc:Work>
    </rdf:RDF>
  </metadata>
  <g
     inkscape:label="Layer 1"
     inkscape:groupmode="layer"
     id="layer1">
    <g
       id="g1342"
       transform="matrix(1.000021,0,0,1.000021,-7.499901,-299.6455)">
      <path
         style="color:#000000;fill:#b3b3b3;fill-opacity:1;fill-rule:evenodd;stroke:none;stroke-width:1;stroke-linecap:square;stroke-linejoin:round;stroke-miterlimit:4;stroke-dashoffset:0;stroke-opacity:1;marker:none;marker-start:none;marker-mid:none;marker-end:none;visibility:visible;display:inline;overflow:visible"
         d="M 7.499742,299.63928 L 46.498842,299.63928 L 46.498842,338.63838 L 7.499742,338.63838 L 7.499742,299.63928 z "
         id="rect7103" />
      <path
         inkscape:export-ydpi="58.500000"
         inkscape:export-xdpi="58.500000"
         inkscape:export-filename="/home/danny/work/kde/kanagram/help.png"
         id="path839"
         d="M 26.999374,299.63929 C 16.251483,299.6393 7.4998245,308.39105 7.4998245,319.13884 C 7.4998245,329.88664 16.251483,338.63839 26.999374,338.63839 C 37.747136,338.63841 46.498924,329.88663 46.498924,319.13884 C 46.498924,308.39106 37.747136,299.63929 26.999374,299.63929 z M 26.613413,303.7017 C 27.956477,303.7017 29.257032,303.91078 30.432075,304.31106 C 31.605363,304.71078 32.649109,305.2973 33.560128,306.0782 C 34.474072,306.8616 35.184051,307.79983 35.692924,308.92189 C 36.221427,310.0451 36.464781,311.30907 36.464781,312.6593 C 36.464716,315.0549 35.865235,316.97758 34.596074,318.36698 C 33.445211,319.62808 31.857427,320.44303 29.944587,320.90599 L 29.944587,321.31223 C 29.944587,321.9781 29.780075,322.58667 29.477442,323.12 C 29.183389,323.64919 28.757324,324.06449 28.238376,324.35903 C 28.231616,324.35917 28.224856,324.35917 28.218096,324.35903 C 27.700318,324.6467 27.129826,324.8059 26.491541,324.8059 C 25.853321,324.80589 25.25306,324.6448 24.724427,324.35903 C 24.717602,324.35917 24.710842,324.35917 24.704082,324.35903 C 24.193324,324.0611 23.783314,323.65104 23.485361,323.14031 C 23.485231,323.13354 23.485231,323.12677 23.485361,323.12 C 23.196442,322.58557 23.038496,321.97208 23.038496,321.31223 L 23.038496,318.28573 C 23.038496,317.59932 23.163683,316.98436 23.525985,316.51859 C 23.842332,316.11187 24.252408,315.83636 24.704082,315.68579 C 25.112338,315.54971 25.67789,315.39723 26.430638,315.25924 C 27.327942,315.09244 27.954202,314.79528 28.339969,314.40614 C 28.72567,314.01699 28.928985,313.53187 28.928985,312.84211 C 28.928985,312.33942 28.7258,311.91733 28.279,311.4812 C 28.272045,311.47463 28.265285,311.46786 28.25872,311.46089 C 27.84871,311.0409 27.340812,310.85153 26.613413,310.85153 C 25.911495,310.85154 25.425111,310.97344 25.090044,311.19684 C 24.723777,311.44797 24.345421,311.85219 23.932225,312.39525 C 23.49212,312.97772 23.033751,313.44486 22.591631,313.77646 C 22.095433,314.14463 21.453702,314.28426 20.722924,314.28426 C 19.845315,314.28426 19.063058,313.91176 18.447977,313.26866 C 17.846611,312.61129 17.533968,311.79702 17.533968,310.91247 C 17.533903,309.45307 18.017817,308.13764 18.97609,307.03287 C 19.913433,305.95234 21.075346,305.12289 22.469759,304.5548 C 23.851887,303.99171 25.22888,303.7017 26.613413,303.7017 z M 26.430638,326.93866 C 27.097132,326.93867 27.745232,327.13681 28.319624,327.48708 C 28.893236,327.83679 29.329051,328.28863 29.660218,328.8683 C 30.012185,329.4454 30.188331,330.10061 30.188331,330.77763 C 30.188331,331.46524 30.012055,332.11623 29.660218,332.70728 C 29.323591,333.28246 28.861257,333.7355 28.279,334.06818 C 27.705908,334.40369 27.080493,334.57598 26.430638,334.57598 C 25.780718,334.57599 25.146462,334.40223 24.561931,334.06818 C 23.999499,333.73898 23.51318,333.30604 23.160368,332.72759 C 23.160238,332.72082 23.160238,332.71405 23.160368,332.70728 C 22.822051,332.11507 22.6526,331.4594 22.6526,330.77763 C 22.6526,330.10657 22.821921,329.46698 23.160368,328.88861 C 23.160238,328.88184 23.160238,328.87508 23.160368,328.8683 C 23.510125,328.28085 23.996639,327.83173 24.561931,327.48708 C 25.136322,327.13679 25.764078,326.93866 26.430638,326.93866 z "
         style="font-size:12px;fill:#666666;fill-opacity:1;fill-rule:evenodd;stroke:none;stroke-width:5.00000143;stroke-linecap:round;stroke-linejoin:round;stroke-miterlimit:4;stroke-opacity:1" />
    </g>
  </g>
</svg>
