<?xml version="1.0" encoding="UTF-8" standalone="no"?>
<!-- Created with Inkscape (http://www.inkscape.org/) -->
<svg
   xmlns:dc="http://purl.org/dc/elements/1.1/"
   xmlns:cc="http://web.resource.org/cc/"
   xmlns:rdf="http://www.w3.org/1999/02/22-rdf-syntax-ns#"
   xmlns:svg="http://www.w3.org/2000/svg"
   xmlns="http://www.w3.org/2000/svg"
   xmlns:sodipodi="http://inkscape.sourceforge.net/DTD/sodipodi-0.dtd"
   xmlns:inkscape="http://www.inkscape.org/namespaces/inkscape"
   width="44"
   height="44"
   id="svg1439"
   sodipodi:version="0.32"
   inkscape:version="0.43"
   version="1.0"
   sodipodi:docbase="/home/danny/work/kde/EDU/kanagram/kde4"
   sodipodi:docname="kicon.svg">
  <defs
     id="defs1441" />
  <sodipodi:namedview
     id="base"
     pagecolor="#ffffff"
     bordercolor="#666666"
     borderopacity="1.0"
     inkscape:pageopacity="0.0"
     inkscape:pageshadow="2"
     inkscape:zoom="1.7386371"
     inkscape:cx="208.86266"
     inkscape:cy="-44.784295"
     inkscape:document-units="px"
     inkscape:current-layer="layer1"
     inkscape:window-width="1024"
     inkscape:window-height="712"
     inkscape:window-x="0"
     inkscape:window-y="0" />
  <metadata
     id="metadata1444">
    <rdf:RDF>
      <cc:Work
         rdf:about="">
        <dc:format>image/svg+xml</dc:format>
        <dc:type
           rdf:resource="http://purl.org/dc/dcmitype/StillImage" />
      </cc:Work>
    </rdf:RDF>
  </metadata>
  <g
     inkscape:label="Layer 1"
     inkscape:groupmode="layer"
     id="layer1">
    <g
       id="g1509"
       transform="translate(-88.00003,0)">
      <path
         inkscape:export-ydpi="58.669998"
         inkscape:export-xdpi="58.669998"
         inkscape:export-filename="/home/danny/work/kde/kanagram/graphics_sources/kde.png"
         id="path4113"
         d="M 88.000025,1.054572e-05 L 132.00003,1.054572e-05 L 132.00003,44.000021 L 88.000025,44.000021 L 88.000025,1.054572e-05 z "
         style="color:#000000;fill:#b3b3b3;fill-opacity:1;fill-rule:evenodd;stroke:none;stroke-width:3.125;stroke-linecap:round;stroke-linejoin:round;marker:none;marker-start:none;marker-mid:none;marker-end:none;stroke-miterlimit:4;stroke-dashoffset:0;stroke-opacity:1;visibility:visible;display:inline;overflow:visible" />
      <path
         id="path4117"
         d="M 120.25249,4.9020549 L 112.38959,15.576131 L 112.71552,4.963166 L 106.29881,5.6353884 L 106.29881,29.672431 L 112.71552,29.244653 L 112.77659,19.039095 L 120.63956,30.16132 L 127.11734,28.063171 L 119.05067,17.12428 L 119.05067,17.002058 L 126.85249,7.0002035 L 120.25249,4.9020549 z M 99.53585,8.874278 L 96.296928,12.011316 L 99.108105,16.390946 C 98.632187,17.194204 98.262457,18.050457 97.987701,18.957614 L 92.895108,20.240947 L 92.895108,24.253911 L 98.008039,25.82243 C 98.272365,26.667504 98.648093,27.471629 99.087702,28.226134 L 96.113627,32.116876 L 99.53585,35.437247 L 103.32474,32.503913 C 104.25259,33.061559 105.2698,33.505106 106.33956,33.807617 L 107.52104,39.124285 L 111.81922,39.124285 L 112.73585,33.929839 C 113.81558,33.666726 114.82563,33.249364 115.77101,32.727987 L 119.80441,35.62058 L 123.04326,32.116876 L 122.37101,30.385394 L 120.35437,31.220579 L 117.86919,28.103912 C 116.04029,30.53783 113.09261,32.116876 109.76178,32.116876 C 104.21504,32.116882 99.698813,27.742499 99.698813,22.339096 C 99.698748,18.507438 101.98512,15.186141 105.2803,13.579835 L 105.2803,11.216871 C 104.79714,11.402017 104.32585,11.607617 103.87471,11.848353 L 99.53585,8.874278 z "
         style="fill:#666666;fill-opacity:1;fill-rule:evenodd;stroke:none;stroke-width:1pt;stroke-linecap:butt;stroke-linejoin:miter;stroke-opacity:1" />
    </g>
  </g>
</svg>
